<svg width="25" height="24" viewBox="0 0 25 24" fill="none" xmlns="http://www.w3.org/2000/svg">
<path d="M18.24 22.75H8.13C7.81 22.75 7.53 22.55 7.42 22.26C7.31 21.96 7.4 21.63 7.64 21.43C7.88 21.23 8.09999 20.97 8.25999 20.69C8.57999 20.18 8.74001 19.6 8.74001 19.01C8.74001 17.22 7.28001 15.76 5.49001 15.76C4.75001 15.76 4.05001 16.01 3.46001 16.48C3.24001 16.66 2.93 16.69 2.67 16.57C2.41 16.45 2.25 16.18 2.25 15.89V11.52C2.25 9.03002 4.26999 7.01001 6.75999 7.01001H18.24C20.73 7.01001 22.75 9.03002 22.75 11.52V12.96C22.75 13.37 22.41 13.71 22 13.71H19.98C19.63 13.71 19.31 13.84 19.08 14.08L19.07 14.09C18.79 14.36 18.66 14.73 18.69 15.11C18.75 15.77 19.38 16.3 20.1 16.3H22C22.41 16.3 22.75 16.64 22.75 17.05V18.24C22.75 20.73 20.73 22.75 18.24 22.75ZM9.67999 21.25H18.24C19.9 21.25 21.25 19.9 21.25 18.24V17.8H20.1C18.59 17.8 17.31 16.68 17.19 15.24C17.11 14.42 17.41 13.61 18.01 13.02C18.53 12.49 19.23 12.2 19.98 12.2H21.25V11.51C21.25 9.85001 19.9 8.5 18.24 8.5H6.75999C5.09999 8.5 3.75 9.85001 3.75 11.51V14.59C4.31 14.37 4.9 14.25 5.5 14.25C8.12 14.25 10.25 16.38 10.25 19C10.25 19.79 10.05 20.57 9.67999 21.25Z" fill="#1F1F1F"/>
<path d="M18.24 22.75H8.13C7.81 22.75 7.53 22.55 7.42 22.26C7.31 21.96 7.4 21.63 7.64 21.43C7.88 21.23 8.09999 20.97 8.25999 20.69C8.57999 20.18 8.74001 19.6 8.74001 19.01C8.74001 17.22 7.28001 15.76 5.49001 15.76C4.75001 15.76 4.05001 16.01 3.46001 16.48C3.24001 16.66 2.93 16.69 2.67 16.57C2.41 16.45 2.25 16.18 2.25 15.89V11.52C2.25 9.03002 4.26999 7.01001 6.75999 7.01001H18.24C20.73 7.01001 22.75 9.03002 22.75 11.52V12.96C22.75 13.37 22.41 13.71 22 13.71H19.98C19.63 13.71 19.31 13.84 19.08 14.08L19.07 14.09C18.79 14.36 18.66 14.73 18.69 15.11C18.75 15.77 19.38 16.3 20.1 16.3H22C22.41 16.3 22.75 16.64 22.75 17.05V18.24C22.75 20.73 20.73 22.75 18.24 22.75ZM9.67999 21.25H18.24C19.9 21.25 21.25 19.9 21.25 18.24V17.8H20.1C18.59 17.8 17.31 16.68 17.19 15.24C17.11 14.42 17.41 13.61 18.01 13.02C18.53 12.49 19.23 12.2 19.98 12.2H21.25V11.51C21.25 9.85001 19.9 8.5 18.24 8.5H6.75999C5.09999 8.5 3.75 9.85001 3.75 11.51V14.59C4.31 14.37 4.9 14.25 5.5 14.25C8.12 14.25 10.25 16.38 10.25 19C10.25 19.79 10.05 20.57 9.67999 21.25Z" fill="black" fill-opacity="0.2"/>
<path d="M3 13.16C2.59 13.16 2.25 12.82 2.25 12.41V7.84006C2.25 6.35006 3.19 5.00001 4.58 4.47001L12.52 1.47001C13.34 1.16001 14.25 1.27005 14.96 1.77005C15.68 2.27005 16.1 3.08005 16.1 3.95005V7.75003C16.1 8.16003 15.76 8.50003 15.35 8.50003C14.94 8.50003 14.6 8.16003 14.6 7.75003V3.95005C14.6 3.57005 14.42 3.22003 14.1 3.00003C13.78 2.78003 13.4 2.73003 13.04 2.87003L5.10001 5.87003C4.29001 6.18003 3.74001 6.97006 3.74001 7.84006V12.41C3.75001 12.83 3.41 13.16 3 13.16Z" fill="#1F1F1F"/>
<path d="M3 13.16C2.59 13.16 2.25 12.82 2.25 12.41V7.84006C2.25 6.35006 3.19 5.00001 4.58 4.47001L12.52 1.47001C13.34 1.16001 14.25 1.27005 14.96 1.77005C15.68 2.27005 16.1 3.08005 16.1 3.95005V7.75003C16.1 8.16003 15.76 8.50003 15.35 8.50003C14.94 8.50003 14.6 8.16003 14.6 7.75003V3.95005C14.6 3.57005 14.42 3.22003 14.1 3.00003C13.78 2.78003 13.4 2.73003 13.04 2.87003L5.10001 5.87003C4.29001 6.18003 3.74001 6.97006 3.74001 7.84006V12.41C3.75001 12.83 3.41 13.16 3 13.16Z" fill="black" fill-opacity="0.2"/>
<path d="M20.1005 17.7999C18.5905 17.7999 17.3105 16.6799 17.1905 15.2399C17.1105 14.4099 17.4105 13.5999 18.0105 13.0099C18.5205 12.4899 19.2205 12.2 19.9705 12.2H22.0505C23.0405 12.23 23.8005 13.0099 23.8005 13.9699V16.03C23.8005 16.99 23.0405 17.7699 22.0805 17.7999H20.1005ZM22.0305 13.7H19.9805C19.6305 13.7 19.3105 13.8299 19.0805 14.0699C18.7905 14.3499 18.6505 14.7299 18.6905 15.1099C18.7505 15.7699 19.3805 16.2999 20.1005 16.2999H22.0605C22.1905 16.2999 22.3105 16.18 22.3105 16.03V13.9699C22.3105 13.8199 22.1905 13.71 22.0305 13.7Z" fill="#1F1F1F"/>
<path d="M20.1005 17.7999C18.5905 17.7999 17.3105 16.6799 17.1905 15.2399C17.1105 14.4099 17.4105 13.5999 18.0105 13.0099C18.5205 12.4899 19.2205 12.2 19.9705 12.2H22.0505C23.0405 12.23 23.8005 13.0099 23.8005 13.9699V16.03C23.8005 16.99 23.0405 17.7699 22.0805 17.7999H20.1005ZM22.0305 13.7H19.9805C19.6305 13.7 19.3105 13.8299 19.0805 14.0699C18.7905 14.3499 18.6505 14.7299 18.6905 15.1099C18.7505 15.7699 19.3805 16.2999 20.1005 16.2999H22.0605C22.1905 16.2999 22.3105 16.18 22.3105 16.03V13.9699C22.3105 13.8199 22.1905 13.71 22.0305 13.7Z" fill="black" fill-opacity="0.2"/>
<path d="M14.5 12.75H7.5C7.09 12.75 6.75 12.41 6.75 12C6.75 11.59 7.09 11.25 7.5 11.25H14.5C14.91 11.25 15.25 11.59 15.25 12C15.25 12.41 14.91 12.75 14.5 12.75Z" fill="#1F1F1F"/>
<path d="M14.5 12.75H7.5C7.09 12.75 6.75 12.41 6.75 12C6.75 11.59 7.09 11.25 7.5 11.25H14.5C14.91 11.25 15.25 11.59 15.25 12C15.25 12.41 14.91 12.75 14.5 12.75Z" fill="black" fill-opacity="0.2"/>
<path d="M5.5 23.75C3.84 23.75 2.28 22.87 1.44 21.44C0.990002 20.72 0.75 19.87 0.75 19C0.75 17.54 1.4 16.19 2.53 15.29C3.37 14.62 4.43 14.25 5.5 14.25C8.12 14.25 10.25 16.38 10.25 19C10.25 19.87 10.01 20.72 9.56 21.45C9.32 21.87 8.99 22.25 8.61 22.57C7.78 23.33 6.67 23.75 5.5 23.75ZM5.5 15.75C4.76 15.75 4.06 16 3.47 16.47C2.7 17.08 2.25 18.01 2.25 19C2.25 19.59 2.41 20.17 2.72 20.67C3.31 21.67 4.35 22.25 5.5 22.25C6.29 22.25 7.05 21.96 7.63 21.44C7.89001 21.22 8.11 20.96 8.27 20.68C8.59 20.17 8.75 19.59 8.75 19C8.75 17.21 7.29 15.75 5.5 15.75Z" fill="#1F1F1F"/>
<path d="M5.5 23.75C3.84 23.75 2.28 22.87 1.44 21.44C0.990002 20.72 0.75 19.87 0.75 19C0.75 17.54 1.4 16.19 2.53 15.29C3.37 14.62 4.43 14.25 5.5 14.25C8.12 14.25 10.25 16.38 10.25 19C10.25 19.87 10.01 20.72 9.56 21.45C9.32 21.87 8.99 22.25 8.61 22.57C7.78 23.33 6.67 23.75 5.5 23.75ZM5.5 15.75C4.76 15.75 4.06 16 3.47 16.47C2.7 17.08 2.25 18.01 2.25 19C2.25 19.59 2.41 20.17 2.72 20.67C3.31 21.67 4.35 22.25 5.5 22.25C6.29 22.25 7.05 21.96 7.63 21.44C7.89001 21.22 8.11 20.96 8.27 20.68C8.59 20.17 8.75 19.59 8.75 19C8.75 17.21 7.29 15.75 5.5 15.75Z" fill="black" fill-opacity="0.2"/>
<path d="M4.9289 20.7401C4.7389 20.7401 4.5489 20.6701 4.3989 20.5201L3.40891 19.5301C3.11891 19.2401 3.11891 18.76 3.40891 18.47C3.69891 18.18 4.1789 18.18 4.4689 18.47L4.9489 18.9501L6.54891 17.47C6.84891 17.19 7.3289 17.2101 7.6089 17.5101C7.8889 17.8101 7.86891 18.2901 7.56891 18.5701L5.43891 20.54C5.2889 20.67 5.1089 20.7401 4.9289 20.7401Z" fill="#1F1F1F"/>
<path d="M4.9289 20.7401C4.7389 20.7401 4.5489 20.6701 4.3989 20.5201L3.40891 19.5301C3.11891 19.2401 3.11891 18.76 3.40891 18.47C3.69891 18.18 4.1789 18.18 4.4689 18.47L4.9489 18.9501L6.54891 17.47C6.84891 17.19 7.3289 17.2101 7.6089 17.5101C7.8889 17.8101 7.86891 18.2901 7.56891 18.5701L5.43891 20.54C5.2889 20.67 5.1089 20.7401 4.9289 20.7401Z" fill="black" fill-opacity="0.2"/>
</svg>
