<svg width="28" height="37" viewBox="0 0 28 37" fill="none" xmlns="http://www.w3.org/2000/svg">
<path d="M15.1997 19.5721L12.9024 20.0135L0.214148 31.8767L15.1997 19.5721ZM15.5094 19.2725L13.2015 19.724L12.9024 20.0135L15.5094 19.2725ZM15.8103 18.9785L13.4923 19.44L13.2015 19.724L15.8103 18.9785ZM16.1025 18.6902L13.7746 19.1614L13.4923 19.44L16.1025 18.6902ZM16.386 18.4074L14.0485 18.8883L13.7746 19.1614L16.386 18.4074ZM16.6607 18.1304L14.3139 18.6205L14.0485 18.8883L16.6607 18.1304ZM16.9267 17.8589L14.5709 18.3583L14.3139 18.6205L16.9267 17.8589ZM17.184 17.593L14.8195 18.1014L14.5709 18.3583L17.184 17.593ZM17.4326 17.3328L15.0597 17.85L14.8195 18.1014L17.4326 17.3328ZM17.6725 17.0782L15.2915 17.6041L15.0597 17.85L17.6725 17.0782ZM17.9036 16.8293L15.5148 17.3635L15.2915 17.6041L17.9036 16.8293ZM18.1261 16.586L15.7297 17.1284L15.5148 17.3635L18.1261 16.586ZM18.3398 16.3483L15.9361 16.8988L15.7297 17.1284L18.3398 16.3483ZM18.5447 16.114L16.1342 16.6724L15.9361 16.8988L18.5447 16.114ZM18.741 15.8809L16.3238 16.4473L16.1342 16.6724L18.741 15.8809ZM18.9285 15.6491L16.505 16.2233L16.3238 16.4473L18.9285 15.6491ZM19.1073 15.4185L16.6777 16.0005L16.505 16.2233L19.1073 15.4185ZM19.2774 15.1891L16.842 15.7789L16.6777 16.0005L19.2774 15.1891ZM19.4388 14.9609L16.9979 15.5584L16.842 15.7789L19.4388 14.9609ZM19.5914 14.734L17.1454 15.3392L16.9979 15.5584L19.5914 14.734ZM19.7353 14.5083L17.2845 15.1211L17.1454 15.3392L19.7353 14.5083ZM19.8705 14.2838L17.4151 14.9042L17.2845 15.1211L19.8705 14.2838ZM19.997 14.0605L17.5373 14.6885L17.4151 14.9042L19.997 14.0605ZM20.1148 13.8385L17.6511 14.474L17.5373 14.6885L20.1148 13.8385ZM20.2238 13.6177L17.7564 14.2606L17.6511 14.474L20.2238 13.6177ZM20.3241 13.3962L17.8533 14.0467L17.7564 14.2606L20.3241 13.3962ZM20.4157 13.1724L17.9418 13.8304L17.8533 14.0467L20.4157 13.1724ZM20.4985 12.946L18.0218 13.6117L17.9418 13.8304L20.4985 12.946ZM20.5727 12.7173L18.0935 13.3907L18.0218 13.6117L20.5727 12.7173ZM20.6381 12.486L18.1567 13.1673L18.0935 13.3907L20.6381 12.486ZM20.6948 12.2524L18.2114 12.9415L18.1567 13.1673L20.6948 12.2524ZM20.7428 12.0163L18.2578 12.7134L18.2114 12.9415L20.7428 12.0163ZM20.782 11.7777L18.2957 12.4829L18.2578 12.7134L20.782 11.7777ZM20.8125 11.5367L18.3252 12.2501L18.2957 12.4829L20.8125 11.5367ZM20.8343 11.2932L18.3463 12.0149L18.3252 12.2501L20.8343 11.2932ZM20.8474 11.0473L18.3589 11.7773L18.3463 12.0149L20.8474 11.0473ZM20.8518 10.799L18.3631 11.5373L18.3589 11.7773L20.8518 10.799ZM20.8461 10.5176L18.3577 11.2655L18.3631 11.5373L20.8461 10.5176ZM20.8292 10.2431L18.3413 11.0003L18.3577 11.2655L20.8292 10.2431ZM20.801 9.97542L18.3141 10.7416L18.3413 11.0003L20.801 9.97542ZM20.7615 9.71459L18.2759 10.4897L18.3141 10.7416L20.7615 9.71459ZM20.7107 9.46062L18.2268 10.2443L18.2759 10.4897L20.7107 9.46062ZM20.6486 9.21349L18.1668 10.0055L18.2268 10.2443L20.6486 9.21349ZM20.5752 8.97322L18.0959 9.77338L18.1668 10.0055L20.5752 8.97322ZM20.4906 8.7398L18.0142 9.54786L18.0959 9.77338L20.4906 8.7398ZM20.3946 8.51323L17.9215 9.32895L18.0142 9.54786L20.3946 8.51323ZM20.2874 8.29351L17.8179 9.11667L17.9215 9.32895L20.2874 8.29351ZM20.1689 8.08064L17.7033 8.91101L17.8179 9.11667L20.1689 8.08064ZM20.0391 7.87463L17.5779 8.71197L17.7033 8.91101L20.0391 7.87463ZM19.8994 7.67301L17.443 8.51718L17.5779 8.71197L19.8994 7.67301ZM19.7512 7.47923L17.2998 8.32995L17.443 8.51718L19.7512 7.47923ZM19.5946 7.29328L17.1485 8.15029L17.2998 8.32995L19.5946 7.29328ZM19.4295 7.11515L16.989 7.9782L17.1485 8.15029L19.4295 7.11515ZM19.256 6.94486L16.8214 7.81367L16.989 7.9782L19.256 6.94486ZM19.074 6.78239L16.6455 7.6567L16.8214 7.81367L19.074 6.78239ZM18.8835 6.62776L16.4615 7.5073L16.6455 7.6567L18.8835 6.62776ZM18.6845 6.48095L16.2693 7.36547L16.4615 7.5073L18.6845 6.48095ZM18.4771 6.34198L16.0689 7.23119L16.2693 7.36547L18.4771 6.34198ZM18.2613 6.21083L15.8603 7.10449L16.0689 7.23119L18.2613 6.21083ZM18.0369 6.08751L15.6435 6.98534L15.8603 7.10449L18.0369 6.08751ZM17.8041 5.97203L15.4186 6.87377L15.6435 6.98534L17.8041 5.97203ZM17.5644 5.8651L15.187 6.77046L15.4186 6.87377L17.5644 5.8651ZM17.3192 5.76748L14.9502 6.67614L15.187 6.77046L17.3192 5.76748ZM17.0687 5.67915L14.7081 6.5908L14.9502 6.67614L17.0687 5.67915ZM16.8128 5.60012L14.4609 6.51445L14.7081 6.5908L16.8128 5.60012ZM16.5515 5.53038L14.2085 6.44707L14.4609 6.51445L16.5515 5.53038ZM16.2849 5.46995L13.9508 6.38868L14.2085 6.44707L16.2849 5.46995ZM16.0128 5.41881L13.688 6.33928L13.9508 6.38868L16.0128 5.41881ZM15.7354 5.37697L13.4199 6.29885L13.688 6.33928L15.7354 5.37697ZM15.4525 5.34443L13.1466 6.26741L13.4199 6.29885L15.4525 5.34443ZM15.1643 5.32118L12.8682 6.24495L13.1466 6.26741L15.1643 5.32118ZM14.8707 5.30724L12.5845 6.23148L12.8682 6.24495L14.8707 5.30724ZM14.5717 5.30259L12.2956 6.22699L12.5845 6.23148L14.5717 5.30259ZM14.264 5.30773L11.9983 6.23195L12.2956 6.22699L14.264 5.30773ZM13.9627 5.32314L11.7072 6.24685L11.9983 6.23195L13.9627 5.32314ZM13.6678 5.34883L11.4223 6.27167L11.7072 6.24685L13.6678 5.34883ZM13.3793 5.3848L11.1436 6.30642L11.4223 6.27167L13.3793 5.3848ZM13.0972 5.43104L10.8711 6.3511L11.1436 6.30642L13.0972 5.43104ZM12.8216 5.48756L10.6048 6.4057L10.8711 6.3511L12.8216 5.48756ZM12.5524 5.55436L10.3446 6.47024L10.6048 6.4057L12.5524 5.55436ZM12.2895 5.63143L10.0907 6.5447L10.3446 6.47024L12.2895 5.63143ZM12.0331 5.71878L9.84297 6.6291L10.0907 6.5447L12.0331 5.71878ZM11.7831 5.81641L9.60144 6.72342L9.84297 6.6291L11.7831 5.81641ZM1.84531 11.2923L0 12.0139H6.2995L1.84531 11.2923ZM1.85672 10.726L0.0110308 11.4668L0 12.0139L1.85672 10.726ZM1.89097 10.1721L0.0441184 10.9317L0.0110308 11.4668L1.89097 10.1721ZM1.94805 9.63079L0.0992675 10.4087L0.0441184 10.9317L1.94805 9.63079ZM2.02796 9.10192L0.176473 9.89772L0.0992675 10.4087L2.02796 9.10192ZM2.13071 8.58553L0.275741 9.39881L0.176473 9.89772L2.13071 8.58553ZM2.25628 8.08162L0.397065 8.91196L0.275741 9.39881L2.25628 8.08162ZM2.40469 7.59019L0.540449 8.43716L0.397065 8.91196L2.40469 7.59019ZM2.57593 7.11124L0.705894 7.97442L0.540449 8.43716L2.57593 7.11124ZM2.77 6.64476L0.893396 7.52373L0.705894 7.97442L2.77 6.64476ZM2.98691 6.19076L1.10296 7.0851L0.893396 7.52373L2.98691 6.19076ZM3.22664 5.74925L1.33458 6.65853L1.10296 7.0851L3.22664 5.74925ZM3.48921 5.32021L1.58826 6.24401L1.33458 6.65853L3.48921 5.32021ZM3.77179 4.90536L1.86127 5.8432L1.58826 6.24401L3.77179 4.90536ZM4.07155 4.50641L2.15089 5.45776L1.86127 5.8432L4.07155 4.50641ZM4.38851 4.12337L2.45712 5.08769L2.15089 5.45776L4.38851 4.12337ZM4.72265 3.75624L2.77995 4.73298L2.45712 5.08769L4.72265 3.75624ZM5.07398 3.405L3.11939 4.39363L2.77995 4.73298L5.07398 3.405ZM5.4425 3.06967L3.47543 4.06966L3.11939 4.39363L5.4425 3.06967ZM5.82821 2.75025L3.84809 3.76104L3.47543 4.06966L5.82821 2.75025ZM6.2311 2.44673L4.23734 3.4678L3.84809 3.76104L6.2311 2.44673ZM6.65119 2.15911L4.64321 3.18991L4.23734 3.4678L6.65119 2.15911ZM7.08846 1.8874L5.06568 2.9274L4.64321 3.18991L7.08846 1.8874ZM7.54292 1.63159L5.50475 2.68025L5.06568 2.9274L7.54292 1.63159ZM2.06696 31.8509L0.214148 31.8767V36.4382L2.06696 31.8509ZM2.06696 31.8509L15.1997 19.5721L0.214148 31.8767L2.06696 31.8509ZM15.1997 19.5721L15.5094 19.2725L12.9024 20.0135L15.1997 19.5721ZM15.5094 19.2725L15.8103 18.9785L13.2015 19.724L15.5094 19.2725ZM15.8103 18.9785L16.1025 18.6902L13.4923 19.44L15.8103 18.9785ZM16.1025 18.6902L16.386 18.4074L13.7746 19.1614L16.1025 18.6902ZM16.386 18.4074L16.6607 18.1304L14.0485 18.8883L16.386 18.4074ZM16.6607 18.1304L16.9267 17.8589L14.3139 18.6205L16.6607 18.1304ZM16.9267 17.8589L17.184 17.593L14.5709 18.3583L16.9267 17.8589ZM17.184 17.593L17.4326 17.3328L14.8195 18.1014L17.184 17.593ZM17.4326 17.3328L17.6725 17.0782L15.0597 17.85L17.4326 17.3328ZM17.6725 17.0782L17.9036 16.8293L15.2915 17.6041L17.6725 17.0782ZM17.9036 16.8293L18.1261 16.586L15.5148 17.3635L17.9036 16.8293ZM18.1261 16.586L18.3398 16.3483L15.7297 17.1284L18.1261 16.586ZM18.3398 16.3483L18.5447 16.114L15.9361 16.8988L18.3398 16.3483ZM18.5447 16.114L18.741 15.8809L16.1342 16.6724L18.5447 16.114ZM18.741 15.8809L18.9285 15.6491L16.3238 16.4473L18.741 15.8809ZM18.9285 15.6491L19.1073 15.4185L16.505 16.2233L18.9285 15.6491ZM19.1073 15.4185L19.2774 15.1891L16.6777 16.0005L19.1073 15.4185ZM19.2774 15.1891L19.4388 14.9609L16.842 15.7789L19.2774 15.1891ZM19.4388 14.9609L19.5914 14.734L16.9979 15.5584L19.4388 14.9609ZM19.5914 14.734L19.7353 14.5083L17.1454 15.3392L19.5914 14.734ZM19.7353 14.5083L19.8705 14.2838L17.2845 15.1211L19.7353 14.5083ZM19.8705 14.2838L19.997 14.0605L17.4151 14.9042L19.8705 14.2838ZM19.997 14.0605L20.1148 13.8385L17.5373 14.6885L19.997 14.0605ZM20.1148 13.8385L20.2238 13.6177L17.6511 14.474L20.1148 13.8385ZM20.2238 13.6177L20.3241 13.3962L17.7564 14.2606L20.2238 13.6177ZM20.3241 13.3962L20.4157 13.1724L17.8533 14.0467L20.3241 13.3962ZM20.4157 13.1724L20.4985 12.946L17.9418 13.8304L20.4157 13.1724ZM20.4985 12.946L20.5727 12.7173L18.0218 13.6117L20.4985 12.946ZM20.5727 12.7173L20.6381 12.486L18.0935 13.3907L20.5727 12.7173ZM20.6381 12.486L20.6948 12.2524L18.1567 13.1673L20.6381 12.486ZM20.6948 12.2524L20.7428 12.0163L18.2114 12.9415L20.6948 12.2524ZM20.7428 12.0163L20.782 11.7777L18.2578 12.7134L20.7428 12.0163ZM20.782 11.7777L20.8125 11.5367L18.2957 12.4829L20.782 11.7777ZM20.8125 11.5367L20.8343 11.2932L18.3252 12.2501L20.8125 11.5367ZM20.8343 11.2932L20.8474 11.0473L18.3463 12.0149L20.8343 11.2932ZM20.8474 11.0473L20.8518 10.799L18.3589 11.7773L20.8474 11.0473ZM20.8518 10.799L20.8461 10.5176L18.3631 11.5373L20.8518 10.799ZM20.8461 10.5176L20.8292 10.2431L18.3577 11.2655L20.8461 10.5176ZM20.8292 10.2431L20.801 9.97542L18.3413 11.0003L20.8292 10.2431ZM20.801 9.97542L20.7615 9.71459L18.3141 10.7416L20.801 9.97542ZM20.7615 9.71459L20.7107 9.46062L18.2759 10.4897L20.7615 9.71459ZM20.7107 9.46062L20.6486 9.21349L18.2268 10.2443L20.7107 9.46062ZM20.6486 9.21349L20.5752 8.97322L18.1668 10.0055L20.6486 9.21349ZM20.5752 8.97322L20.4906 8.7398L18.0959 9.77338L20.5752 8.97322ZM20.4906 8.7398L20.3946 8.51323L18.0142 9.54786L20.4906 8.7398ZM20.3946 8.51323L20.2874 8.29351L17.9215 9.32895L20.3946 8.51323ZM20.2874 8.29351L20.1689 8.08064L17.8179 9.11667L20.2874 8.29351ZM20.1689 8.08064L20.0391 7.87463L17.7033 8.91101L20.1689 8.08064ZM20.0391 7.87463L19.8994 7.67301L17.5779 8.71197L20.0391 7.87463ZM19.8994 7.67301L19.7512 7.47923L17.443 8.51718L19.8994 7.67301ZM19.7512 7.47923L19.5946 7.29328L17.2998 8.32995L19.7512 7.47923ZM19.5946 7.29328L19.4295 7.11515L17.1485 8.15029L19.5946 7.29328ZM19.4295 7.11515L19.256 6.94486L16.989 7.9782L19.4295 7.11515ZM19.256 6.94486L19.074 6.78239L16.8214 7.81367L19.256 6.94486ZM19.074 6.78239L18.8835 6.62776L16.6455 7.6567L19.074 6.78239ZM18.8835 6.62776L18.6845 6.48095L16.4615 7.5073L18.8835 6.62776ZM18.6845 6.48095L18.4771 6.34198L16.2693 7.36547L18.6845 6.48095ZM18.4771 6.34198L18.2613 6.21083L16.0689 7.23119L18.4771 6.34198ZM18.2613 6.21083L18.0369 6.08751L15.8603 7.10449L18.2613 6.21083ZM18.0369 6.08751L17.8041 5.97203L15.6435 6.98534L18.0369 6.08751ZM17.8041 5.97203L17.5644 5.8651L15.4186 6.87377L17.8041 5.97203ZM17.5644 5.8651L17.3192 5.76748L15.187 6.77046L17.5644 5.8651ZM17.3192 5.76748L17.0687 5.67915L14.9502 6.67614L17.3192 5.76748ZM17.0687 5.67915L16.8128 5.60012L14.7081 6.5908L17.0687 5.67915ZM16.8128 5.60012L16.5515 5.53038L14.4609 6.51445L16.8128 5.60012ZM16.5515 5.53038L16.2849 5.46995L14.2085 6.44707L16.5515 5.53038ZM16.2849 5.46995L16.0128 5.41881L13.9508 6.38868L16.2849 5.46995ZM16.0128 5.41881L15.7354 5.37697L13.688 6.33928L16.0128 5.41881ZM15.7354 5.37697L15.4525 5.34443L13.4199 6.29885L15.7354 5.37697ZM15.4525 5.34443L15.1643 5.32118L13.1466 6.26741L15.4525 5.34443ZM15.1643 5.32118L14.8707 5.30724L12.8682 6.24495L15.1643 5.32118ZM14.8707 5.30724L14.5717 5.30259L12.5845 6.23148L14.8707 5.30724ZM14.5717 5.30259L14.264 5.30773L12.2956 6.22699L14.5717 5.30259ZM14.264 5.30773L13.9627 5.32314L11.9983 6.23195L14.264 5.30773ZM13.9627 5.32314L13.6678 5.34883L11.7072 6.24685L13.9627 5.32314ZM13.6678 5.34883L13.3793 5.3848L11.4223 6.27167L13.6678 5.34883ZM13.3793 5.3848L13.0972 5.43104L11.1436 6.30642L13.3793 5.3848ZM13.0972 5.43104L12.8216 5.48756L10.8711 6.3511L13.0972 5.43104ZM12.8216 5.48756L12.5524 5.55436L10.6048 6.4057L12.8216 5.48756ZM12.5524 5.55436L12.2895 5.63143L10.3446 6.47024L12.5524 5.55436ZM12.2895 5.63143L12.0331 5.71878L10.0907 6.5447L12.2895 5.63143ZM12.0331 5.71878L11.7831 5.81641L9.84297 6.6291L12.0331 5.71878ZM8.36551 11.2923H1.84531L6.2995 12.0139L8.36551 11.2923ZM1.84531 11.2923L1.85672 10.726L0 12.0139L1.84531 11.2923ZM1.85672 10.726L1.89097 10.1721L0.0110308 11.4668L1.85672 10.726ZM1.89097 10.1721L1.94805 9.63079L0.0441184 10.9317L1.89097 10.1721ZM1.94805 9.63079L2.02796 9.10192L0.0992675 10.4087L1.94805 9.63079ZM2.02796 9.10192L2.13071 8.58553L0.176473 9.89772L2.02796 9.10192ZM2.13071 8.58553L2.25628 8.08162L0.275741 9.39881L2.13071 8.58553ZM2.25628 8.08162L2.40469 7.59019L0.397065 8.91196L2.25628 8.08162ZM2.40469 7.59019L2.57593 7.11124L0.540449 8.43716L2.40469 7.59019ZM2.57593 7.11124L2.77 6.64476L0.705894 7.97442L2.57593 7.11124ZM2.77 6.64476L2.98691 6.19076L0.893396 7.52373L2.77 6.64476ZM2.98691 6.19076L3.22664 5.74925L1.10296 7.0851L2.98691 6.19076ZM3.22664 5.74925L3.48921 5.32021L1.33458 6.65853L3.22664 5.74925ZM3.48921 5.32021L3.77179 4.90536L1.58826 6.24401L3.48921 5.32021ZM3.77179 4.90536L4.07155 4.50641L1.86127 5.8432L3.77179 4.90536ZM4.07155 4.50641L4.38851 4.12337L2.15089 5.45776L4.07155 4.50641ZM4.38851 4.12337L4.72265 3.75624L2.45712 5.08769L4.38851 4.12337ZM4.72265 3.75624L5.07398 3.405L2.77995 4.73298L4.72265 3.75624ZM5.07398 3.405L5.4425 3.06967L3.11939 4.39363L5.07398 3.405ZM5.4425 3.06967L5.82821 2.75025L3.47543 4.06966L5.4425 3.06967ZM5.82821 2.75025L6.2311 2.44673L3.84809 3.76104L5.82821 2.75025ZM6.2311 2.44673L6.65119 2.15911L4.23734 3.4678L6.2311 2.44673ZM6.65119 2.15911L7.08846 1.8874L4.64321 3.18991L6.65119 2.15911ZM7.08846 1.8874L7.54292 1.63159L5.06568 2.9274L7.08846 1.8874ZM2.06696 36.5722V31.8509L0.214148 36.4382L2.06696 36.5722Z" fill="#D6211F"/>
<path d="M2.06687 31.851V36.5722H27.9999L2.06687 31.851ZM1.84521 11.2923H8.36542L8.37068 10.9876L1.84521 11.2923ZM1.89088 10.1722L1.85663 10.726L1.84521 11.2923L1.89088 10.1722ZM2.02787 9.10196L1.94796 9.63082L1.89088 10.1722L2.02787 9.10196ZM2.25619 8.08166L2.13061 8.58557L2.02787 9.10196L2.25619 8.08166ZM2.57584 7.11127L2.4046 7.59022L2.25619 8.08166L2.57584 7.11127ZM2.98681 6.1908L2.76991 6.64479L2.57584 7.11127L2.98681 6.1908ZM3.48912 5.32024L3.22655 5.74928L2.98681 6.1908L3.48912 5.32024ZM4.07146 4.50645L3.7717 4.90539L3.48912 5.32024L4.07146 4.50645ZM4.72256 3.75627L4.38842 4.1234L4.07146 4.50645L4.72256 3.75627ZM5.44241 3.06971L5.07389 3.40504L4.72256 3.75627L5.44241 3.06971ZM6.23101 2.44676L5.82812 2.75028L5.44241 3.06971L6.23101 2.44676ZM7.08837 1.88743L6.65109 2.15914L6.23101 2.44676L7.08837 1.88743ZM8.01447 1.39172L7.54282 1.63162L7.08837 1.88743L8.01447 1.39172ZM9.00471 0.966472L8.50369 1.16943L8.01447 1.39172L9.00471 0.966472ZM10.0422 0.618543L9.51754 0.782841L9.00471 0.966472L10.0422 0.618543ZM11.1268 0.34793L10.5786 0.473572L10.0422 0.618543L11.1268 0.34793ZM12.2587 0.154636L11.6868 0.241617L11.1268 0.34793L12.2587 0.154636ZM13.4377 0.0386585L12.8423 0.0869817L12.2587 0.154636L13.4377 0.0386585ZM14.664 0L14.0449 0.00966464L13.4377 0.0386585L14.664 0ZM15.9066 0.0376798L15.2917 0.00942069L14.664 0L15.9066 0.0376798ZM17.098 0.150721L16.5087 0.0847803L15.9066 0.0376798L17.098 0.150721ZM18.2381 0.339121L17.6745 0.235501L17.098 0.150721L18.2381 0.339121ZM19.3268 0.602883L18.7889 0.461581L18.2381 0.339121L19.3268 0.602883ZM20.3643 0.942004L19.852 0.763023L19.3268 0.602883L20.3643 0.942004ZM21.3504 1.35648L20.8638 1.13982L20.3643 0.942004L21.3504 1.35648ZM22.275 1.83654L21.8217 1.58954L21.3504 1.35648L22.275 1.83654ZM23.1277 2.37238L22.7103 2.09749L22.275 1.83654L23.1277 2.37238ZM23.9086 2.96401L23.5271 2.66122L23.1277 2.37238L23.9086 2.96401ZM24.6177 3.61142L24.2721 3.28074L23.9086 2.96401L24.6177 3.61142ZM25.2549 4.31462L24.9453 3.95605L24.6177 3.61142L25.2549 4.31462ZM25.8204 5.07361L25.5466 4.68714L25.2549 4.31462L25.8204 5.07361ZM26.3114 5.87908L26.077 5.47169L25.8204 5.07361L26.3114 5.87908ZM26.7131 6.72175L26.5234 6.29576L26.3114 5.87908L26.7131 6.72175ZM27.0256 7.6016L26.8805 7.15702L26.7131 6.72175L27.0256 7.6016ZM27.2488 8.51865L27.1483 8.05547L27.0256 7.6016L27.2488 8.51865ZM27.3827 9.47288L27.3269 8.99112L27.2488 8.51865L27.3827 9.47288ZM27.4273 10.4643L27.4162 9.96395L27.3827 9.47288L27.4273 10.4643ZM27.4047 11.1377L27.4217 10.8015L27.4273 10.4643L27.4047 11.1377ZM27.337 11.8071L27.3765 11.4729L27.4047 11.1377L27.337 11.8071ZM27.2241 12.4726L27.2862 12.1403L27.337 11.8071L27.2241 12.4726ZM27.0661 13.1342L27.1508 12.8039L27.2241 12.4726L27.0661 13.1342ZM26.8629 13.7919L26.9702 13.4636L27.0661 13.1342L26.8629 13.7919ZM26.6146 14.4457L26.7444 14.1193L26.8629 13.7919L26.6146 14.4457ZM26.3093 15.1092L26.4706 14.7745L26.6146 14.4457L26.3093 15.1092ZM25.9353 15.7963L26.1309 15.4498L26.3093 15.1092L25.9353 15.7963ZM25.4925 16.5068L25.7225 16.1486L25.9353 15.7963L25.4925 16.5068ZM24.981 17.2409L25.2453 16.8709L25.4925 16.5068L24.981 17.2409ZM24.4007 17.9984L24.6994 17.6167L24.981 17.2409L24.4007 17.9984ZM23.7516 18.7794L24.0847 18.386L24.4007 17.9984L23.7516 18.7794ZM23.0287 19.6L23.4016 19.1827L23.7516 18.7794L23.0287 19.6ZM22.2144 20.4765L22.633 20.0313L23.0287 19.6L22.2144 20.4765ZM21.3089 21.4087L21.7731 20.9356L22.2144 20.4765L21.3089 21.4087ZM20.3119 22.3967L20.8218 21.8957L21.3089 21.4087L20.3119 22.3967ZM27.9999 36.5722V31.1111H11.5239L27.9999 36.5722ZM1.84521 11.2923L8.37068 10.9876L8.38645 10.6899L1.84521 11.2923ZM2.02787 9.10196L1.89088 10.1722L1.84521 11.2923L2.02787 9.10196ZM2.57584 7.11127L2.25619 8.08166L2.02787 9.10196L2.57584 7.11127ZM3.48912 5.32024L2.98681 6.1908L2.57584 7.11127L3.48912 5.32024ZM4.72256 3.75627L4.07146 4.50645L3.48912 5.32024L4.72256 3.75627ZM6.23101 2.44676L5.44241 3.06971L4.72256 3.75627L6.23101 2.44676ZM8.01447 1.39172L7.08837 1.88743L6.23101 2.44676L8.01447 1.39172ZM10.0422 0.618543L9.00471 0.966472L8.01447 1.39172L10.0422 0.618543ZM12.2587 0.154636L11.1268 0.34793L10.0422 0.618543L12.2587 0.154636ZM14.664 0L13.4377 0.0386585L12.2587 0.154636L14.664 0ZM17.098 0.150721L15.9066 0.0376798L14.664 0L17.098 0.150721ZM19.3268 0.602883L18.2381 0.339121L17.098 0.150721L19.3268 0.602883ZM21.3504 1.35648L20.3643 0.942004L19.3268 0.602883L21.3504 1.35648ZM23.1277 2.37238L22.275 1.83654L21.3504 1.35648L23.1277 2.37238ZM24.6177 3.61142L23.9086 2.96401L23.1277 2.37238L24.6177 3.61142ZM25.8204 5.07361L25.2549 4.31462L24.6177 3.61142L25.8204 5.07361ZM26.7131 6.72175L26.3114 5.87908L25.8204 5.07361L26.7131 6.72175ZM27.2488 8.51865L27.0256 7.6016L26.7131 6.72175L27.2488 8.51865ZM27.4273 10.4643L27.3827 9.47288L27.2488 8.51865L27.4273 10.4643ZM27.337 11.8071L27.4047 11.1377L27.4273 10.4643L27.337 11.8071ZM27.0661 13.1342L27.2241 12.4726L27.337 11.8071L27.0661 13.1342ZM26.6146 14.4457L26.8629 13.7919L27.0661 13.1342L26.6146 14.4457ZM25.9353 15.7963L26.3093 15.1092L26.6146 14.4457L25.9353 15.7963ZM24.981 17.2409L25.4925 16.5068L25.9353 15.7963L24.981 17.2409ZM23.7516 18.7794L24.4007 17.9984L24.981 17.2409L23.7516 18.7794ZM22.2144 20.4765L23.0287 19.6L23.7516 18.7794L22.2144 20.4765ZM20.3119 22.3967L21.3089 21.4087L22.2144 20.4765L20.3119 22.3967ZM2.06687 31.851L27.9999 36.5722L11.5239 31.1111L2.06687 31.851ZM1.84521 11.2923L8.38645 10.6899L8.41275 10.3994L1.84521 11.2923ZM2.57584 7.11127L2.02787 9.10196L1.84521 11.2923L2.57584 7.11127ZM4.72256 3.75627L3.48912 5.32024L2.57584 7.11127L4.72256 3.75627ZM8.01447 1.39172L6.23101 2.44676L4.72256 3.75627L8.01447 1.39172ZM12.2587 0.154636L10.0422 0.618543L8.01447 1.39172L12.2587 0.154636ZM17.098 0.150721L14.664 0L12.2587 0.154636L17.098 0.150721ZM21.3504 1.35648L19.3268 0.602883L17.098 0.150721L21.3504 1.35648ZM24.6177 3.61142L23.1277 2.37238L21.3504 1.35648L24.6177 3.61142ZM26.7131 6.72175L25.8204 5.07361L24.6177 3.61142L26.7131 6.72175ZM27.4273 10.4643L27.2488 8.51865L26.7131 6.72175L27.4273 10.4643ZM27.0661 13.1342L27.337 11.8071L27.4273 10.4643L27.0661 13.1342ZM25.9353 15.7963L26.6146 14.4457L27.0661 13.1342L25.9353 15.7963ZM23.7516 18.7794L24.981 17.2409L25.9353 15.7963L23.7516 18.7794ZM20.3119 22.3967L22.2144 20.4765L23.7516 18.7794L20.3119 22.3967ZM2.06687 31.851L11.5239 31.1111V30.8644L2.06687 31.851ZM1.84521 11.2923L8.41275 10.3994L8.44956 10.1159L1.84521 11.2923ZM4.72256 3.75627L2.57584 7.11127L1.84521 11.2923L4.72256 3.75627ZM12.2587 0.154636L8.01447 1.39172L4.72256 3.75627L12.2587 0.154636ZM21.3504 1.35648L17.098 0.150721L12.2587 0.154636L21.3504 1.35648ZM26.7131 6.72175L24.6177 3.61142L21.3504 1.35648L26.7131 6.72175ZM27.0661 13.1342L27.4273 10.4643L26.7131 6.72175L27.0661 13.1342ZM23.7516 18.7794L25.9353 15.7963L27.0661 13.1342L23.7516 18.7794ZM18.0441 24.54L20.3119 22.3967L23.7516 18.7794L18.0441 24.54ZM2.06687 31.851L11.5239 30.8644L18.0441 24.54L2.06687 31.851ZM1.84521 11.2923L8.44956 10.1159L8.49689 9.83953L1.84521 11.2923ZM12.2587 0.154636L4.72256 3.75627L1.84521 11.2923L12.2587 0.154636ZM26.7131 6.72175L21.3504 1.35648L12.2587 0.154636L26.7131 6.72175ZM23.7516 18.7794L27.0661 13.1342L26.7131 6.72175L23.7516 18.7794ZM2.06687 31.851L18.0441 24.54L23.7516 18.7794L2.06687 31.851ZM1.84521 11.2923L8.49689 9.83953L8.55474 9.57027L1.84521 11.2923ZM15.1996 19.5721L2.06687 31.851L23.7516 18.7794L15.1996 19.5721ZM1.84521 11.2923L8.55474 9.57027L8.62311 9.3081L1.84521 11.2923ZM15.5093 19.2725L15.1996 19.5721L23.7516 18.7794L15.5093 19.2725ZM1.84521 11.2923L8.62311 9.3081L8.702 9.05302L1.84521 11.2923ZM15.8102 18.9786L15.5093 19.2725L23.7516 18.7794L15.8102 18.9786ZM1.84521 11.2923L8.702 9.05302L8.7914 8.80504L1.84521 11.2923ZM16.1024 18.6902L15.8102 18.9786L23.7516 18.7794L16.1024 18.6902ZM1.84521 11.2923L8.7914 8.80504L8.89132 8.56416L1.84521 11.2923ZM16.3859 18.4075L16.1024 18.6902L23.7516 18.7794L16.3859 18.4075ZM1.84521 11.2923L8.89132 8.56416L9.00176 8.33037L1.84521 11.2923ZM16.6606 18.1304L16.3859 18.4075L23.7516 18.7794L16.6606 18.1304ZM1.84521 11.2923L9.00176 8.33037L9.12272 8.10368L1.84521 11.2923ZM16.9266 17.8589L16.6606 18.1304L23.7516 18.7794L16.9266 17.8589ZM1.84521 11.2923L9.12272 8.10368L9.25638 7.88481L1.84521 11.2923ZM17.184 17.5931L16.9266 17.8589L23.7516 18.7794L17.184 17.5931ZM1.84521 11.2923L9.25638 7.88481L9.39876 7.67452L1.84521 11.2923ZM17.4325 17.3329L17.184 17.5931L23.7516 18.7794L17.4325 17.3329ZM1.84521 11.2923L9.39876 7.67452L9.54986 7.47278L1.84521 11.2923ZM17.6724 17.0783L17.4325 17.3329L23.7516 18.7794L17.6724 17.0783ZM1.84521 11.2923L9.54986 7.47278L9.70968 7.27961L1.84521 11.2923ZM17.9036 16.8293L17.6724 17.0783L23.7516 18.7794L17.9036 16.8293ZM1.84521 11.2923L9.70968 7.27961L9.87823 7.095L1.84521 11.2923ZM18.126 16.586L17.9036 16.8293L23.7516 18.7794L18.126 16.586ZM1.84521 11.2923L9.87823 7.095L10.0555 6.91895L1.84521 11.2923ZM18.3397 16.3483L18.126 16.586L23.7516 18.7794L18.3397 16.3483ZM1.84521 11.2923L10.0555 6.91895L10.2415 6.75147L1.84521 11.2923ZM18.5446 16.114L18.3397 16.3483L23.7516 18.7794L18.5446 16.114ZM1.84521 11.2923L10.2415 6.75147L10.4362 6.59256L1.84521 11.2923ZM18.5446 16.114L23.7516 18.7794L26.7131 6.72175L18.5446 16.114ZM1.84521 11.2923L10.4362 6.59256L10.6396 6.4422L1.84521 11.2923ZM18.7409 15.881L18.5446 16.114L26.7131 6.72175L18.7409 15.881ZM1.84521 11.2923L10.6396 6.4422L10.8518 6.30041L1.84521 11.2923ZM18.9284 15.6491L18.7409 15.881L26.7131 6.72175L18.9284 15.6491ZM1.84521 11.2923L10.8518 6.30041L11.0727 6.16719L1.84521 11.2923ZM19.1072 15.4185L18.9284 15.6491L26.7131 6.72175L19.1072 15.4185ZM12.2587 0.154636L1.84521 11.2923L11.0727 6.16719L12.2587 0.154636ZM19.2773 15.1891L19.1072 15.4185L26.7131 6.72175L19.2773 15.1891ZM12.2587 0.154636L11.0727 6.16719L11.3023 6.04252L12.2587 0.154636ZM19.4387 14.961L19.2773 15.1891L26.7131 6.72175L19.4387 14.961ZM12.2587 0.154636L11.3023 6.04252L11.5394 5.92435L12.2587 0.154636ZM19.5913 14.734L19.4387 14.961L26.7131 6.72175L19.5913 14.734ZM12.2587 0.154636L11.5394 5.92435L11.783 5.81644L12.2587 0.154636ZM19.7352 14.5083L19.5913 14.734L26.7131 6.72175L19.7352 14.5083ZM12.2587 0.154636L11.783 5.81644L12.033 5.71882L12.2587 0.154636ZM19.8704 14.2838L19.7352 14.5083L26.7131 6.72175L19.8704 14.2838ZM12.2587 0.154636L12.033 5.71882L12.2894 5.63147L12.2587 0.154636ZM19.9969 14.0606L19.8704 14.2838L26.7131 6.72175L19.9969 14.0606ZM12.2587 0.154636L12.2894 5.63147L12.5523 5.55439L12.2587 0.154636ZM20.1147 13.8385L19.9969 14.0606L26.7131 6.72175L20.1147 13.8385ZM12.2587 0.154636L12.5523 5.55439L12.8215 5.4876L12.2587 0.154636ZM20.2237 13.6177L20.1147 13.8385L26.7131 6.72175L20.2237 13.6177ZM12.2587 0.154636L12.8215 5.4876L13.0972 5.43108L12.2587 0.154636ZM20.324 13.3963L20.2237 13.6177L26.7131 6.72175L20.324 13.3963ZM12.2587 0.154636L13.0972 5.43108L13.3792 5.38483L12.2587 0.154636ZM20.4156 13.1724L20.324 13.3963L26.7131 6.72175L20.4156 13.1724ZM12.2587 0.154636L13.3792 5.38483L13.6677 5.34887L12.2587 0.154636ZM20.4984 12.9461L20.4156 13.1724L26.7131 6.72175L20.4984 12.9461ZM12.2587 0.154636L13.6677 5.34887L13.9626 5.32317L12.2587 0.154636ZM20.5726 12.7173L20.4984 12.9461L26.7131 6.72175L20.5726 12.7173ZM12.2587 0.154636L13.9626 5.32317L14.2639 5.30776L12.2587 0.154636ZM20.638 12.4861L20.5726 12.7173L26.7131 6.72175L20.638 12.4861ZM12.2587 0.154636L14.2639 5.30776L14.5716 5.30262L12.2587 0.154636ZM20.6947 12.2524L20.638 12.4861L26.7131 6.72175L20.6947 12.2524ZM12.2587 0.154636L14.5716 5.30262L14.8706 5.30727L12.2587 0.154636ZM20.7427 12.0163L20.6947 12.2524L26.7131 6.72175L20.7427 12.0163ZM12.2587 0.154636L14.8706 5.30727L15.1642 5.32122L12.2587 0.154636ZM20.7819 11.7777L20.7427 12.0163L26.7131 6.72175L20.7819 11.7777ZM12.2587 0.154636L15.1642 5.32122L15.4524 5.34446L12.2587 0.154636ZM20.8124 11.5367L20.7819 11.7777L26.7131 6.72175L20.8124 11.5367ZM12.2587 0.154636L15.4524 5.34446L15.7353 5.377L12.2587 0.154636ZM20.8343 11.2933L20.8124 11.5367L26.7131 6.72175L20.8343 11.2933ZM12.2587 0.154636L15.7353 5.377L16.0127 5.41884L12.2587 0.154636ZM20.8473 11.0474L20.8343 11.2933L26.7131 6.72175L20.8473 11.0474ZM12.2587 0.154636L16.0127 5.41884L16.2848 5.46998L12.2587 0.154636ZM20.8517 10.799L20.8473 11.0474L26.7131 6.72175L20.8517 10.799ZM12.2587 0.154636L16.2848 5.46998L16.5515 5.53042L12.2587 0.154636ZM20.8461 10.5177L20.8517 10.799L26.7131 6.72175L20.8461 10.5177ZM12.2587 0.154636L16.5515 5.53042L16.8127 5.60015L12.2587 0.154636ZM20.8291 10.2431L20.8461 10.5177L26.7131 6.72175L20.8291 10.2431ZM12.2587 0.154636L16.8127 5.60015L17.0686 5.67918L12.2587 0.154636ZM20.8009 9.97545L20.8291 10.2431L26.7131 6.72175L20.8009 9.97545ZM12.2587 0.154636L17.0686 5.67918L17.3192 5.76751L12.2587 0.154636ZM20.7614 9.71462L20.8009 9.97545L26.7131 6.72175L20.7614 9.71462ZM12.2587 0.154636L17.3192 5.76751L17.5643 5.86513L12.2587 0.154636ZM20.7106 9.46065L20.7614 9.71462L26.7131 6.72175L20.7106 9.46065ZM12.2587 0.154636L17.5643 5.86513L17.804 5.97206L12.2587 0.154636ZM20.6485 9.21353L20.7106 9.46065L26.7131 6.72175L20.6485 9.21353ZM12.2587 0.154636L17.804 5.97206L18.0368 6.08755L12.2587 0.154636ZM20.5751 8.97326L20.6485 9.21353L26.7131 6.72175L20.5751 8.97326ZM12.2587 0.154636L18.0368 6.08755L18.2612 6.21086L12.2587 0.154636ZM20.4905 8.73983L20.5751 8.97326L26.7131 6.72175L20.4905 8.73983ZM12.2587 0.154636L18.2612 6.21086L18.477 6.34201L12.2587 0.154636ZM20.3945 8.51326L20.4905 8.73983L26.7131 6.72175L20.3945 8.51326ZM12.2587 0.154636L18.477 6.34201L18.6845 6.48099L12.2587 0.154636ZM20.2873 8.29354L20.3945 8.51326L26.7131 6.72175L20.2873 8.29354ZM12.2587 0.154636L18.6845 6.48099L18.8834 6.62779L12.2587 0.154636ZM20.1688 8.08068L20.2873 8.29354L26.7131 6.72175L20.1688 8.08068ZM12.2587 0.154636L18.8834 6.62779L19.0739 6.78243L12.2587 0.154636ZM20.039 7.87466L20.1688 8.08068L26.7131 6.72175L20.039 7.87466ZM12.2587 0.154636L19.0739 6.78243L19.2559 6.94489L12.2587 0.154636ZM19.8993 7.67305L20.039 7.87466L26.7131 6.72175L19.8993 7.67305ZM26.7131 6.72175L12.2587 0.154636L19.2559 6.94489L26.7131 6.72175ZM19.7511 7.47926L19.8993 7.67305L26.7131 6.72175L19.7511 7.47926ZM26.7131 6.72175L19.2559 6.94489L19.4294 7.11519L26.7131 6.72175ZM19.5945 7.29331L19.7511 7.47926L26.7131 6.72175L19.5945 7.29331ZM26.7131 6.72175L19.4294 7.11519L19.5945 7.29331L26.7131 6.72175ZM19.2237 23.4405L19.7792 22.9116L20.3119 22.3967L19.2237 23.4405ZM18.0441 24.54L18.6453 23.9833L19.2237 23.4405L18.0441 24.54ZM18.0441 24.54L19.2237 23.4405L20.3119 22.3967L18.0441 24.54Z" fill="#EE2523"/>
</svg>
