<svg width="64" height="64" viewBox="0 0 64 64" fill="none" xmlns="http://www.w3.org/2000/svg">
<path d="M25.5993 55.3333C13.8927 55.3333 8.66602 50.1066 8.66602 38.4V25.6C8.66602 13.8933 13.8927 8.66663 25.5993 8.66663H38.3993C50.106 8.66663 55.3327 13.8933 55.3327 25.6C55.3327 26.6933 54.426 27.6 53.3327 27.6C52.2393 27.6 51.3327 26.6933 51.3327 25.6C51.3327 16.0533 47.946 12.6666 38.3993 12.6666H25.5993C16.0527 12.6666 12.666 16.0533 12.666 25.6V38.4C12.666 47.9466 16.0527 51.3333 25.5993 51.3333C26.6927 51.3333 27.5993 52.24 27.5993 53.3333C27.5993 54.4266 26.6927 55.3333 25.5993 55.3333Z" fill="#EE2523"/>
<path d="M21.3073 45.6C20.8806 45.6 20.4273 45.4666 20.054 45.1733C17.734 43.3333 16.6406 40.4 16.6406 36V28C16.6406 20.2666 20.2406 16.6666 27.974 16.6666H35.974C40.374 16.6666 43.2806 17.76 45.1473 20.08C45.8406 20.9333 45.6806 22.2133 44.8273 22.88C43.974 23.5733 42.694 23.44 42.0273 22.56C41.3873 21.7333 40.054 20.6666 36.0006 20.6666H28.0006C22.454 20.6666 20.6673 22.4533 20.6673 28V36C20.6673 40.0533 21.7606 41.3866 22.5606 42.0266C23.414 42.72 23.574 43.9733 22.8806 44.8266C22.4806 45.3333 21.894 45.6 21.3073 45.6Z" fill="#EE2523"/>
<path d="M21.3594 12.6667C20.2394 12.6667 19.3594 11.76 19.3594 10.6667V5.33337C19.3594 4.24004 20.266 3.33337 21.3594 3.33337C22.4527 3.33337 23.3594 4.24004 23.3594 5.33337V10.6667C23.3594 11.76 22.4527 12.6667 21.3594 12.6667Z" fill="#EE2523"/>
<path d="M32 12.6666C30.9067 12.6666 30 11.76 30 10.6666V5.33331C30 4.23998 30.9067 3.33331 32 3.33331C33.0933 3.33331 34 4.23998 34 5.33331V10.6666C34 11.76 33.0933 12.6666 32 12.6666Z" fill="#EE2523"/>
<path d="M42.666 12.6667C41.5727 12.6667 40.666 11.76 40.666 10.6667V5.33337C40.666 4.24004 41.5727 3.33337 42.666 3.33337C43.7593 3.33337 44.666 4.24004 44.666 5.33337V10.6667C44.666 11.76 43.7593 12.6667 42.666 12.6667Z" fill="#EE2523"/>
<path d="M58.6673 23.3334H53.334C52.2407 23.3334 51.334 22.4267 51.334 21.3334C51.334 20.24 52.2407 19.3334 53.334 19.3334H58.6673C59.7607 19.3334 60.6673 20.24 60.6673 21.3334C60.6673 22.4267 59.7873 23.3334 58.6673 23.3334Z" fill="#EE2523"/>
<path d="M21.3594 60.6666C20.266 60.6666 19.3594 59.76 19.3594 58.6666V53.3333C19.3594 52.24 20.266 51.3333 21.3594 51.3333C22.4527 51.3333 23.3594 52.24 23.3594 53.3333V58.6666C23.3594 59.76 22.4527 60.6666 21.3594 60.6666Z" fill="#EE2523"/>
<path d="M10.6673 23.3334H5.33398C4.24065 23.3334 3.33398 22.4534 3.33398 21.3334C3.33398 20.2134 4.24065 19.3334 5.33398 19.3334H10.6673C11.7607 19.3334 12.6673 20.24 12.6673 21.3334C12.6673 22.4267 11.7873 23.3334 10.6673 23.3334Z" fill="#EE2523"/>
<path d="M10.6673 34H5.33398C4.24065 34 3.33398 33.0933 3.33398 32C3.33398 30.9067 4.24065 30 5.33398 30H10.6673C11.7607 30 12.6673 30.9067 12.6673 32C12.6673 33.0933 11.7873 34 10.6673 34Z" fill="#EE2523"/>
<path d="M10.6673 44.6666H5.33398C4.24065 44.6666 3.33398 43.76 3.33398 42.6666C3.33398 41.5733 4.24065 40.6666 5.33398 40.6666H10.6673C11.7607 40.6666 12.6673 41.5733 12.6673 42.6666C12.6673 43.76 11.7873 44.6666 10.6673 44.6666Z" fill="#EE2523"/>
<path d="M44.5603 51.5733C41.1203 51.5733 38.3203 48.7733 38.3203 45.3333C38.3203 41.8933 41.1203 39.0933 44.5603 39.0933C48.0003 39.0933 50.8003 41.8933 50.8003 45.3333C50.7736 48.7733 48.0003 51.5733 44.5603 51.5733ZM44.5603 43.0933C43.3336 43.0933 42.3203 44.1067 42.3203 45.3333C42.3203 46.56 43.3336 47.5733 44.5603 47.5733C45.787 47.5733 46.8003 46.56 46.8003 45.3333C46.7736 44.1067 45.787 43.0933 44.5603 43.0933Z" fill="#EE2523"/>
<path d="M49.0671 60.6666C47.5737 60.6666 46.1071 59.8933 45.3071 58.5066L45.1204 58.2133C44.8271 57.7066 44.5871 57.5733 44.5337 57.5466C44.5071 57.5466 44.2404 57.7066 43.9471 58.2133L43.7871 58.48C42.5604 60.5866 39.8671 61.28 37.8137 60.0533L35.4137 58.6666C34.3204 58.0533 33.5471 57.04 33.2271 55.8133C32.9071 54.6133 33.0671 53.3333 33.6804 52.2666C33.9737 51.76 33.9737 51.4666 33.9471 51.4133C33.9204 51.3866 33.6804 51.2533 33.0937 51.2533C30.5071 51.2533 28.4004 49.1466 28.4004 46.5866V44.1066C28.4004 41.52 30.5071 39.44 33.0671 39.44C33.6537 39.44 33.8937 39.28 33.9471 39.2533C33.9471 39.2266 33.9471 38.9333 33.6537 38.4266C33.0404 37.3333 32.8537 36.08 33.2004 34.88C33.5204 33.68 34.2937 32.6666 35.3871 32.0266L37.8137 30.6133C39.8404 29.4133 42.5337 30.1066 43.7337 32.1866L43.8937 32.48C44.1871 32.9866 44.4271 33.12 44.4804 33.1466C44.5071 33.1466 44.7737 32.9866 45.0671 32.48L45.2271 32.2133C46.4804 30.1066 49.1471 29.4133 51.2004 30.64L53.6804 32C54.7737 32.6133 55.5471 33.6266 55.8671 34.8533C56.1871 36.0533 56.0271 37.3333 55.4137 38.4C55.1204 38.9066 55.1204 39.2 55.1471 39.2533C55.1737 39.28 55.4137 39.4133 56.0004 39.4133C58.5871 39.4133 60.6937 41.52 60.6937 44.08V46.56C60.6937 49.1466 58.5871 51.2266 56.0271 51.2266C55.4404 51.2266 55.2004 51.3866 55.1471 51.4133C55.1471 51.44 55.1471 51.7333 55.4404 52.24C56.0537 53.3333 56.2404 54.5866 55.8937 55.7866C55.5737 56.9866 54.8004 58 53.7071 58.64L51.2804 60.0533C50.5604 60.4533 49.8137 60.6666 49.0671 60.6666ZM44.5604 53.5466C46.1604 53.5466 47.6271 54.5066 48.6137 56.2133L48.7737 56.5066C48.8537 56.64 49.0671 56.72 49.2271 56.6133L51.6804 55.2C51.8937 55.0933 51.9737 54.88 52.0004 54.7733C52.0271 54.6666 52.0537 54.48 51.9471 54.2666C50.9604 52.5866 50.8804 50.8266 51.6804 49.44C52.4804 48.0533 54.0537 47.2533 56.0004 47.2533C56.3737 47.2533 56.6937 46.9333 56.6937 46.5866V44.1066C56.6937 43.7333 56.3737 43.44 56.0271 43.44C54.0804 43.44 52.4804 42.64 51.7071 41.2533C50.9071 39.8666 51.0137 38.1066 51.9737 36.4266C52.1071 36.2133 52.0804 36 52.0271 35.92C52.0004 35.8133 51.9204 35.6266 51.7071 35.4933L49.2804 34.08C49.0937 33.9733 48.8804 34.0533 48.7737 34.2133L48.6404 34.4533C47.6537 36.16 46.1871 37.12 44.5871 37.12C42.9871 37.12 41.5204 36.16 40.5337 34.4533L40.3737 34.1866C40.2937 34.0266 40.0537 33.9733 39.9204 34.0533L37.4671 35.4666C37.2537 35.5733 37.1737 35.7866 37.1471 35.8933C37.1204 36 37.0937 36.1866 37.2004 36.4C38.1871 38.08 38.2671 39.84 37.4671 41.2266C36.6671 42.6133 35.0937 43.4133 33.1471 43.4133C32.7737 43.4133 32.4537 43.7333 32.4537 44.08V46.56C32.4537 46.9333 32.7737 47.2266 33.1204 47.2266C35.0671 47.2266 36.6671 48.0266 37.4404 49.4133C38.2404 50.8 38.1337 52.56 37.1737 54.24C37.0671 54.4533 37.0937 54.64 37.1204 54.7466C37.1471 54.8533 37.2271 55.04 37.4404 55.1733L39.8671 56.5866C40.0537 56.6933 40.2671 56.6133 40.3737 56.4533L40.5071 56.1866C41.4671 54.5066 42.9604 53.5466 44.5604 53.5466Z" fill="#EE2523"/>
</svg>
