<svg width="32" height="32" viewBox="0 0 32 32" fill="none" xmlns="http://www.w3.org/2000/svg">
<path d="M23.6535 30.3334H8.34683C5.02683 30.3334 2.3335 27.64 2.3335 24.32V15.3467C2.3335 12.0267 5.02683 9.33337 8.34683 9.33337H23.6535C26.9735 9.33337 29.6668 12.0267 29.6668 15.3467V17.2667C29.6668 17.8134 29.2135 18.2667 28.6668 18.2667H25.9735C25.5068 18.2667 25.0802 18.4401 24.7735 18.7601L24.7602 18.7734C24.3868 19.1334 24.2135 19.6267 24.2535 20.1333C24.3335 21.0133 25.1735 21.72 26.1335 21.72H28.6668C29.2135 21.72 29.6668 22.1733 29.6668 22.72V24.3067C29.6668 27.64 26.9735 30.3334 23.6535 30.3334ZM8.34683 11.3334C6.1335 11.3334 4.3335 13.1334 4.3335 15.3467V24.32C4.3335 26.5334 6.1335 28.3334 8.34683 28.3334H23.6535C25.8668 28.3334 27.6668 26.5334 27.6668 24.32V23.7334H26.1335C24.1202 23.7334 22.4135 22.24 22.2535 20.32C22.1468 19.2267 22.5468 18.1467 23.3468 17.3601C24.0402 16.6534 24.9735 16.2667 25.9735 16.2667H27.6668V15.3467C27.6668 13.1334 25.8668 11.3334 23.6535 11.3334H8.34683Z" fill="#EE2523"/>
<path d="M3.3335 17.5466C2.78683 17.5466 2.3335 17.0933 2.3335 16.5466V10.4534C2.3335 8.46671 3.58683 6.66663 5.44016 5.95997L16.0268 1.95997C17.1202 1.54663 18.3335 1.69336 19.2802 2.36003C20.2402 3.0267 20.8002 4.10669 20.8002 5.26669V10.3333C20.8002 10.88 20.3468 11.3333 19.8002 11.3333C19.2535 11.3333 18.8002 10.88 18.8002 10.3333V5.26669C18.8002 4.76002 18.5602 4.29334 18.1335 4.00001C17.7068 3.70667 17.2002 3.64 16.7202 3.82667L6.1335 7.82666C5.0535 8.24 4.32016 9.29337 4.32016 10.4534V16.5466C4.3335 17.1066 3.88016 17.5466 3.3335 17.5466Z" fill="#EE2523"/>
<path d="M26.1333 23.7332C24.12 23.7332 22.4133 22.2399 22.2533 20.3199C22.1466 19.2132 22.5466 18.1333 23.3466 17.3466C24.0266 16.6533 24.96 16.2666 25.96 16.2666H28.7333C30.0533 16.3066 31.0666 17.3465 31.0666 18.6265V21.3733C31.0666 22.6533 30.0533 23.6932 28.7733 23.7332H26.1333ZM28.7066 18.2666H25.9733C25.5066 18.2666 25.08 18.4399 24.7733 18.7599C24.3866 19.1333 24.2 19.6399 24.2533 20.1466C24.3333 21.0266 25.1733 21.7332 26.1333 21.7332H28.7466C28.92 21.7332 29.08 21.5733 29.08 21.3733V18.6265C29.08 18.4265 28.92 18.2799 28.7066 18.2666Z" fill="#EE2523"/>
<path d="M18.6668 17H9.3335C8.78683 17 8.3335 16.5467 8.3335 16C8.3335 15.4533 8.78683 15 9.3335 15H18.6668C19.2135 15 19.6668 15.4533 19.6668 16C19.6668 16.5467 19.2135 17 18.6668 17Z" fill="#EE2523"/>
</svg>
