<svg width="30" height="37" viewBox="0 0 30 37" fill="none" xmlns="http://www.w3.org/2000/svg">
<path d="M13.9102 36.9196L11.6634 36.7802L12.2833 36.8238L13.9102 36.9196ZM13.281 36.8563L11.0556 36.7191L11.6634 36.7802L13.281 36.8563ZM12.6644 36.775L10.4598 36.6405L11.0556 36.7191L12.6644 36.775ZM12.0601 36.6756L9.87598 36.5444L10.4598 36.6405L12.0601 36.6756ZM11.4684 36.5581L9.30425 36.4309L9.87598 36.5444L11.4684 36.5581ZM10.8891 36.4225L8.74455 36.3L9.30425 36.4309L10.8891 36.4225ZM10.3222 36.2689L8.19689 36.1515L8.74455 36.3L10.3222 36.2689ZM9.76782 36.0972L7.66126 35.9856L8.19689 36.1515L9.76782 36.0972ZM9.22589 35.9074L7.13767 35.8023L7.66126 35.9856L9.22589 35.9074ZM8.69642 35.6995L6.62612 35.6014L7.13767 35.8023L8.69642 35.6995ZM8.18537 35.4756L6.13237 35.3851L6.62612 35.6014L8.18537 35.4756ZM7.69249 35.2374L5.65617 35.155L6.13237 35.3851L7.69249 35.2374ZM7.21778 34.9851L5.19753 34.9112L5.65617 35.155L7.21778 34.9851ZM6.76124 34.7186L4.75644 34.6537L5.19753 34.9112L6.76124 34.7186ZM6.32286 34.438L4.3329 34.3826L4.75644 34.6537L6.32286 34.438ZM5.90266 34.1432L3.92692 34.0978L4.3329 34.3826L5.90266 34.1432ZM5.50062 33.8342L3.53849 33.7993L3.92692 34.0978L5.50062 33.8342ZM5.11675 33.5111L3.16762 33.4871L3.53849 33.7993L5.11675 33.5111ZM4.75105 33.1738L2.81429 33.1612L3.16762 33.4871L4.75105 33.1738ZM4.40351 32.8223L2.47852 32.8216L2.81429 33.1612L4.40351 32.8223ZM4.07415 32.4566L2.16031 32.4683L2.47852 32.8216L4.07415 32.4566ZM3.76295 32.0768L1.85964 32.1014L2.16031 32.4683L3.76295 32.0768ZM3.47265 31.6849L1.57917 31.7227L1.85964 32.1014L3.47265 31.6849ZM3.20597 31.283L1.32151 31.3344L1.57917 31.7227L3.20597 31.283ZM2.9629 30.8711L1.08667 30.9364L1.32151 31.3344L2.9629 30.8711ZM2.74345 30.4491L0.874655 30.5288L1.08667 30.9364L2.74345 30.4491ZM2.54763 30.0172L0.685456 30.1114L0.874655 30.5288L2.54763 30.0172ZM2.37542 29.5752L0.519076 29.6844L0.685456 30.1114L2.37542 29.5752ZM2.22683 29.1232L0.375515 29.2477L0.519076 29.6844L2.22683 29.1232ZM2.10186 28.6612L0.254773 28.8014L0.375515 29.2477L2.10186 28.6612ZM2.0005 28.1892L0.156851 28.3453L0.254773 28.8014L2.0005 28.1892ZM1.92277 27.7072L0.0817479 27.8796L0.156851 28.3453L1.92277 27.7072ZM1.86865 27.2151L0.0294638 27.4042L0.0817479 27.8796L1.86865 27.2151ZM1.83816 26.7131L0 26.9192L0.0294638 27.4042L1.83816 26.7131ZM16.5259 31.5131L14.1906 31.5567L13.869 31.5702L16.5259 31.5131ZM16.8523 31.4899L14.5059 31.5343L14.1906 31.5567L16.8523 31.4899ZM17.1722 31.4574L14.815 31.5029L14.5059 31.5343L17.1722 31.4574ZM17.4856 31.4156L15.1178 31.4626L14.815 31.5029L17.4856 31.4156ZM17.7925 31.3646L15.4143 31.4132L15.1178 31.4626L17.7925 31.3646ZM18.0929 31.3043L15.7046 31.3549L15.4143 31.4132L18.0929 31.3043ZM18.3868 31.2346L15.9885 31.2877L15.7046 31.3549L18.3868 31.2346ZM18.6743 31.1558L16.2663 31.2115L15.9885 31.2877L18.6743 31.1558ZM18.9553 31.0676L16.5377 31.1263L16.2663 31.2115L18.9553 31.0676ZM19.2297 30.9701L16.8029 31.0321L16.5377 31.1263L19.2297 30.9701ZM19.4977 30.8634L17.0618 30.929L16.8029 31.0321L19.4977 30.8634ZM19.7576 30.7454L17.3129 30.815L17.0618 30.929L19.7576 30.7454ZM20.008 30.6201L17.5548 30.694L17.3129 30.815L20.008 30.6201ZM20.2487 30.4875L17.7874 30.5658L17.5548 30.694L20.2487 30.4875ZM20.4798 30.3475L18.0107 30.4306L17.7874 30.5658L20.4798 30.3475ZM20.7014 30.2003L18.2247 30.2883L18.0107 30.4306L20.7014 30.2003ZM20.9133 30.0456L18.4294 30.1389L18.2247 30.2883L20.9133 30.0456ZM21.1156 29.8837L18.6249 29.9825L18.4294 30.1389L21.1156 29.8837ZM21.3083 29.7144L18.8111 29.8189L18.6249 29.9825L21.3083 29.7144ZM21.4914 29.5378L18.988 29.6483L18.8111 29.8189L21.4914 29.5378ZM21.6649 29.3539L19.1557 29.4706L18.988 29.6483L21.6649 29.3539ZM21.8288 29.1627L19.314 29.2859L19.1557 29.4706L21.8288 29.1627ZM21.9831 28.9641L19.4631 29.094L19.314 29.2859L21.9831 28.9641ZM22.1263 28.7593L19.6014 28.8961L19.4631 29.094L22.1263 28.7593ZM22.2567 28.5494L19.7274 28.6933L19.6014 28.8961L22.2567 28.5494ZM22.3744 28.3343L19.8411 28.4855L19.7274 28.6933L22.3744 28.3343ZM22.4794 28.1141L19.9425 28.2728L19.8411 28.4855L22.4794 28.1141ZM22.5716 27.8888L20.0317 28.0551L19.9425 28.2728L22.5716 27.8888ZM22.6512 27.6583L20.1085 27.8324L20.0317 28.0551L22.6512 27.6583ZM22.718 27.4228L20.1731 27.6048L20.1085 27.8324L22.718 27.4228ZM22.7721 27.1821L20.2254 27.3723L20.1731 27.6048L22.7721 27.1821ZM22.8135 26.9362L20.2654 27.1348L20.2254 27.3723L22.8135 26.9362ZM22.8422 26.6852L20.2931 26.8923L20.2654 27.1348L22.8422 26.6852ZM22.8582 26.4292L20.3085 26.6448L20.2931 26.8923L22.8582 26.4292ZM22.8614 26.1679L20.3117 26.3925L20.3085 26.6448L22.8614 26.1679ZM22.8581 25.898L20.3084 26.1317L20.3117 26.3925L22.8581 25.898ZM22.8417 25.6335L20.2926 25.8761L20.3084 26.1317L22.8417 25.6335ZM22.8124 25.3744L20.2643 25.6258L20.2926 25.8761L22.8124 25.3744ZM22.7701 25.1206L20.2234 25.3806L20.2643 25.6258L22.7701 25.1206ZM22.7148 24.8722L20.17 25.1406L20.2234 25.3806L22.7148 24.8722ZM22.6465 24.6292L20.104 24.9058L20.17 25.1406L22.6465 24.6292ZM22.5653 24.3915L20.0255 24.6762L20.104 24.9058L22.5653 24.3915ZM22.4711 24.1592L19.9345 24.4517L20.0255 24.6762L22.4711 24.1592ZM21.9644 23.2838L19.445 23.606L19.5862 23.8096L21.9644 23.2838ZM21.8061 23.0795L19.2921 23.4086L19.445 23.606L21.8061 23.0795ZM21.6364 22.8828L19.1281 23.2185L19.2921 23.4086L21.6364 22.8828ZM21.4552 22.6936L18.953 23.0357L19.1281 23.2185L21.4552 22.6936ZM21.2626 22.512L18.767 22.8603L18.953 23.0357L21.2626 22.512ZM21.0586 22.338L18.5699 22.6921L18.767 22.8603L21.0586 22.338ZM20.8432 22.1715L18.3617 22.5313L18.5699 22.6921L20.8432 22.1715ZM20.6164 22.0126L18.1426 22.3778L18.3617 22.5313L20.6164 22.0126ZM20.3781 21.8613L17.9124 22.2316L18.1426 22.3778L20.3781 21.8613ZM20.1284 21.7176L17.6711 22.0928L17.9124 22.2316L20.1284 21.7176ZM19.8673 21.5814L17.4189 21.9612L17.6711 22.0928L19.8673 21.5814ZM19.5948 21.4528L17.1556 21.8369L17.4189 21.9612L19.5948 21.4528ZM19.3108 21.3318L16.8812 21.72L17.1556 21.8369L19.3108 21.3318ZM19.0194 21.2194L16.5996 21.6115L16.8812 21.72L19.0194 21.2194ZM18.718 21.1168L16.3085 21.5124L16.5996 21.6115L18.718 21.1168ZM18.4068 21.024L16.0078 21.4227L16.3085 21.5124L18.4068 21.024ZM18.0858 20.941L15.6977 21.3424L16.0078 21.4227L18.0858 20.941ZM17.7549 20.8677L15.3779 21.2716L15.6977 21.3424L17.7549 20.8677ZM17.4141 20.8042L15.0487 21.2103L15.3779 21.2716L17.4141 20.8042ZM17.0634 20.7505L14.7099 21.1584L15.0487 21.2103L17.0634 20.7505ZM16.7029 20.7065L14.3616 21.1159L14.7099 21.1584L16.7029 20.7065ZM16.3325 20.6723L14.0038 21.0829L14.3616 21.1159L16.3325 20.6723ZM15.9523 20.6479L13.6364 21.0593L14.0038 21.0829L15.9523 20.6479ZM15.5622 20.6332L13.2595 21.0451L13.6364 21.0593L15.5622 20.6332ZM15.1622 20.6283L12.8731 21.0404L13.2595 21.0451L15.1622 20.6283ZM11.7798 20.6283L9.60516 21.0404H12.8731L11.7798 20.6283ZM11.7798 15.5987L9.60516 16.181V21.0404L11.7798 15.5987ZM17.8777 15.2327L15.4967 15.8274L15.2322 15.9016L17.8777 15.2327ZM18.1444 15.1469L15.7543 15.7445L15.4967 15.8274L18.1444 15.1469ZM18.4041 15.052L16.0052 15.6528L15.7543 15.7445L18.4041 15.052ZM18.6568 14.9481L16.2493 15.5524L16.0052 15.6528L18.6568 14.9481ZM18.9045 14.8359L16.4887 15.4441L16.2493 15.5524L18.9045 14.8359ZM19.1432 14.7165L16.7193 15.3287L16.4887 15.4441L19.1432 14.7165ZM19.3727 14.5897L16.9411 15.2062L16.7193 15.3287L19.3727 14.5897ZM19.5932 14.4556L17.1541 15.0766L16.9411 15.2062L19.5932 14.4556ZM19.8046 14.3142L17.3583 14.94L17.1541 15.0766L19.8046 14.3142ZM20.0069 14.1655L17.5538 14.7963L17.3583 14.94L20.0069 14.1655ZM20.2002 14.0094L17.7405 14.6455L17.5538 14.7963L20.2002 14.0094ZM20.3843 13.846L17.9184 14.4876L17.7405 14.6455L20.3843 13.846ZM20.5594 13.6753L18.0875 14.3227L17.9184 14.4876L20.5594 13.6753ZM20.7254 13.4972L18.2479 14.1506L18.0875 14.3227L20.7254 13.4972ZM20.8823 13.3118L18.3995 13.9715L18.2479 14.1506L20.8823 13.3118ZM21.0301 13.1191L18.5423 13.7853L18.3995 13.9715L21.0301 13.1191ZM21.1672 12.9172L18.6748 13.5903L18.5423 13.7853L21.1672 12.9172ZM21.2922 12.7102L18.7956 13.3903L18.6748 13.5903L21.2922 12.7102ZM21.405 12.4981L18.9045 13.1854L18.7956 13.3903L21.405 12.4981ZM21.5056 12.2808L19.0017 12.9754L18.9045 13.1854L21.5056 12.2808ZM21.5939 12.0585L19.0871 12.7606L19.0017 12.9754L21.5939 12.0585ZM21.6701 11.8309L19.1607 12.5408L19.0871 12.7606L21.6701 11.8309ZM21.7341 11.5983L19.2225 12.316L19.1607 12.5408L21.7341 11.5983ZM21.7859 11.3605L19.2725 12.0863L19.2225 12.316L21.7859 11.3605ZM21.8255 11.1176L19.3107 11.8516L19.2725 12.0863L21.8255 11.1176ZM21.8528 10.8696L19.3372 11.6119L19.3107 11.8516L21.8528 10.8696ZM21.868 10.6164L19.3519 11.3673L19.3372 11.6119L21.868 10.6164ZM21.871 10.3581L19.3548 11.1178L19.3519 11.3673L21.871 10.3581ZM21.8688 10.1059L19.3526 10.8741L19.3548 11.1178L21.8688 10.1059ZM21.8559 9.85935L19.3402 10.6359L19.3526 10.8741L21.8559 9.85935ZM21.8325 9.61839L19.3175 10.4031L19.3402 10.6359L21.8325 9.61839ZM21.7983 9.38306L19.2845 10.1757L19.3175 10.4031L21.7983 9.38306ZM21.7536 9.15334L19.2413 9.95381L19.2845 10.1757L21.7536 9.15334ZM21.6981 8.92924L19.1877 9.73729L19.2413 9.95381L21.6981 8.92924ZM21.6321 8.71076L19.1239 9.52621L19.1877 9.73729L21.6321 8.71076ZM21.5554 8.4979L19.0498 9.32055L19.1239 9.52621L21.5554 8.4979ZM21.4681 8.29065L18.9655 9.12032L19.0498 9.32055L21.4681 8.29065ZM21.3701 8.08902L18.8708 8.92551L18.9655 9.12032L21.3701 8.08902ZM21.2615 7.89301L18.7658 8.73614L18.8708 8.92551L21.2615 7.89301ZM21.1422 7.70262L18.6506 8.55219L18.7658 8.73614L21.1422 7.70262ZM21.0164 7.51564L18.5291 8.37154L18.6506 8.55219L21.0164 7.51564ZM20.8821 7.33575L18.3994 8.19774L18.5291 8.37154L20.8821 7.33575ZM20.7392 7.16295L18.2613 8.03079L18.3994 8.19774L20.7392 7.16295ZM20.5878 6.99722L18.115 7.87067L18.2613 8.03079L20.5878 6.99722ZM20.4278 6.83858L17.9604 7.7174L18.115 7.87067L20.4278 6.83858ZM20.2592 6.68702L17.7975 7.57097L17.9604 7.7174L20.2592 6.68702ZM20.0821 6.54255L17.6264 7.43139L17.7975 7.57097L20.0821 6.54255ZM19.8964 6.40516L17.447 7.29865L17.6264 7.43139L19.8964 6.40516ZM19.7021 6.27485L17.2593 7.17275L17.447 7.29865L19.7021 6.27485ZM19.4993 6.15163L17.0633 7.0537L17.2593 7.17275L19.4993 6.15163ZM19.2879 6.03549L16.8591 6.94149L17.0633 7.0537L19.2879 6.03549ZM19.0679 5.92643L16.6465 6.83612L16.8591 6.94149L19.0679 5.92643ZM18.8435 5.82531L16.4298 6.73843L16.6465 6.83612L18.8435 5.82531ZM18.6127 5.73298L16.2067 6.64922L16.4298 6.73843L18.6127 5.73298ZM18.3753 5.64945L15.9774 6.56852L16.2067 6.64922L18.3753 5.64945ZM18.1315 5.57471L15.7418 6.49631L15.9774 6.56852L18.1315 5.57471ZM17.8811 5.50876L15.4999 6.43259L15.7418 6.49631L17.8811 5.50876ZM17.6243 5.45161L15.2518 6.37737L15.4999 6.43259L17.6243 5.45161ZM17.361 5.40324L14.9974 6.33065L15.2518 6.37737L17.361 5.40324ZM17.0912 5.36368L14.7367 6.29242L14.9974 6.33065L17.0912 5.36368ZM16.8149 5.3329L14.4698 6.26268L14.7367 6.29242L16.8149 5.3329ZM16.5321 5.31092L14.1966 6.24145L14.4698 6.26268L16.5321 5.31092ZM16.2429 5.29773L13.9171 6.2287L14.1966 6.24145L16.2429 5.29773ZM15.9471 5.29333L13.6314 6.22446L13.9171 6.2287L15.9471 5.29333ZM15.6562 5.29748L13.3503 6.22847L13.6314 6.22446L15.6562 5.29748ZM15.3688 5.30994L13.0727 6.2405L13.3503 6.22847L15.3688 5.30994ZM15.0852 5.3307L12.7986 6.26056L13.0727 6.2405L15.0852 5.3307ZM14.8051 5.35977L12.528 6.28864L12.7986 6.26056L14.8051 5.35977ZM14.5287 5.39714L12.261 6.32475L12.528 6.28864L14.5287 5.39714ZM14.2559 5.44281L11.9974 6.36888L12.261 6.32475L14.2559 5.44281ZM13.9868 5.49679L11.7374 6.42103L11.9974 6.36888L13.9868 5.49679ZM13.7212 5.55908L11.4809 6.4812L11.7374 6.42103L13.7212 5.55908ZM13.4594 5.62966L11.2278 6.5494L11.4809 6.4812L13.4594 5.62966ZM13.2011 5.70856L10.9783 6.62563L11.2278 6.5494L13.2011 5.70856ZM12.9465 5.79575L10.7323 6.70987L10.9783 6.62563L12.9465 5.79575ZM12.6955 5.89126L10.4898 6.80214L10.7323 6.70987L12.6955 5.89126ZM2.64171 10.1998L0.776357 10.9649H7.22192L2.64171 10.1998ZM2.66598 9.70083L0.799803 10.4828L0.776357 10.9649L2.66598 9.70083ZM2.71387 9.21208L0.846068 10.0106L0.799803 10.4828L2.71387 9.21208ZM2.78537 8.7336L0.915153 9.54827L0.846068 10.0106L2.78537 8.7336ZM2.88049 8.26537L1.00706 9.09589L0.915153 9.54827L2.88049 8.26537ZM2.99924 7.8074L1.12178 8.65343L1.00706 9.09589L2.99924 7.8074ZM3.1416 7.35969L1.25932 8.22087L1.12178 8.65343L3.1416 7.35969ZM3.30758 6.92224L1.41968 7.79822L1.25932 8.22087L3.30758 6.92224ZM3.49718 6.49504L1.60287 7.38549L1.41968 7.79822L3.49718 6.49504ZM3.7104 6.07811L1.80887 6.98267L1.60287 7.38549L3.7104 6.07811ZM3.94723 5.67143L2.03769 6.58976L1.80887 6.98267L3.94723 5.67143ZM4.20769 5.27501L2.28932 6.20676L2.03769 6.58976L4.20769 5.27501ZM4.49176 4.88886L2.56378 5.83367L2.28932 6.20676L4.49176 4.88886ZM4.79906 4.51198L2.86068 5.46955L2.56378 5.83367L4.79906 4.51198ZM5.12298 4.14927L3.17363 5.11911L2.86068 5.46955L5.12298 4.14927ZM5.4635 3.80072L3.50263 4.78237L3.17363 5.11911L5.4635 3.80072ZM5.82064 3.46634L3.84768 4.45931L3.50263 4.78237L5.82064 3.46634ZM6.19439 3.14613L4.20878 4.14993L3.84768 4.45931L6.19439 3.14613ZM6.58474 2.84008L4.58592 3.85425L4.20878 4.14993L6.58474 2.84008ZM6.99171 2.54821L4.97912 3.57225L4.58592 3.85425L6.99171 2.54821ZM7.41529 2.27049L5.38836 3.30394L4.97912 3.57225L7.41529 2.27049ZM7.85548 2.00695L5.81365 3.04931L5.38836 3.30394L7.85548 2.00695ZM8.31229 1.75757L6.25499 2.80837L5.81365 3.04931L8.31229 1.75757ZM22.3639 23.9323L19.831 24.2325L19.9345 24.4517L22.3639 23.9323ZM22.2437 23.7108L19.7148 24.0185L19.831 24.2325L22.2437 23.7108ZM22.1106 23.4946L19.5862 23.8096L19.7148 24.0185L22.1106 23.4946ZM14.5518 36.9648L13.9102 36.9196L12.2833 36.8238L14.5518 36.9648ZM13.9102 36.9196L13.281 36.8563L11.6634 36.7802L13.9102 36.9196ZM13.281 36.8563L12.6644 36.775L11.0556 36.7191L13.281 36.8563ZM12.6644 36.775L12.0601 36.6756L10.4598 36.6405L12.6644 36.775ZM12.0601 36.6756L11.4684 36.5581L9.87598 36.5444L12.0601 36.6756ZM11.4684 36.5581L10.8891 36.4225L9.30425 36.4309L11.4684 36.5581ZM10.8891 36.4225L10.3222 36.2689L8.74455 36.3L10.8891 36.4225ZM10.3222 36.2689L9.76782 36.0972L8.19689 36.1515L10.3222 36.2689ZM9.76782 36.0972L9.22589 35.9074L7.66126 35.9856L9.76782 36.0972ZM9.22589 35.9074L8.69642 35.6995L7.13767 35.8023L9.22589 35.9074ZM8.69642 35.6995L8.18537 35.4756L6.62612 35.6014L8.69642 35.6995ZM8.18537 35.4756L7.69249 35.2374L6.13237 35.3851L8.18537 35.4756ZM7.69249 35.2374L7.21778 34.9851L5.65617 35.155L7.69249 35.2374ZM7.21778 34.9851L6.76124 34.7186L5.19753 34.9112L7.21778 34.9851ZM6.76124 34.7186L6.32286 34.438L4.75644 34.6537L6.76124 34.7186ZM6.32286 34.438L5.90266 34.1432L4.3329 34.3826L6.32286 34.438ZM5.90266 34.1432L5.50062 33.8342L3.92692 34.0978L5.90266 34.1432ZM5.50062 33.8342L5.11675 33.5111L3.53849 33.7993L5.50062 33.8342ZM5.11675 33.5111L4.75105 33.1738L3.16762 33.4871L5.11675 33.5111ZM4.75105 33.1738L4.40351 32.8223L2.81429 33.1612L4.75105 33.1738ZM4.40351 32.8223L4.07415 32.4566L2.47852 32.8216L4.40351 32.8223ZM4.07415 32.4566L3.76295 32.0768L2.16031 32.4683L4.07415 32.4566ZM3.76295 32.0768L3.47265 31.6849L1.85964 32.1014L3.76295 32.0768ZM3.47265 31.6849L3.20597 31.283L1.57917 31.7227L3.47265 31.6849ZM3.20597 31.283L2.9629 30.8711L1.32151 31.3344L3.20597 31.283ZM2.9629 30.8711L2.74345 30.4491L1.08667 30.9364L2.9629 30.8711ZM2.74345 30.4491L2.54763 30.0172L0.874655 30.5288L2.74345 30.4491ZM2.54763 30.0172L2.37542 29.5752L0.685456 30.1114L2.54763 30.0172ZM2.37542 29.5752L2.22683 29.1232L0.519076 29.6844L2.37542 29.5752ZM2.22683 29.1232L2.10186 28.6612L0.375515 29.2477L2.22683 29.1232ZM2.10186 28.6612L2.0005 28.1892L0.254773 28.8014L2.10186 28.6612ZM2.0005 28.1892L1.92277 27.7072L0.156851 28.3453L2.0005 28.1892ZM1.92277 27.7072L1.86865 27.2151L0.0817479 27.8796L1.92277 27.7072ZM1.86865 27.2151L1.83816 26.7131L0.0294638 27.4042L1.86865 27.2151ZM16.193 31.527L16.5259 31.5131L13.869 31.5702L16.193 31.527ZM16.5259 31.5131L16.8523 31.4899L14.1906 31.5567L16.5259 31.5131ZM16.8523 31.4899L17.1722 31.4574L14.5059 31.5343L16.8523 31.4899ZM17.1722 31.4574L17.4856 31.4156L14.815 31.5029L17.1722 31.4574ZM17.4856 31.4156L17.7925 31.3646L15.1178 31.4626L17.4856 31.4156ZM17.7925 31.3646L18.0929 31.3043L15.4143 31.4132L17.7925 31.3646ZM18.0929 31.3043L18.3868 31.2346L15.7046 31.3549L18.0929 31.3043ZM18.3868 31.2346L18.6743 31.1558L15.9885 31.2877L18.3868 31.2346ZM18.6743 31.1558L18.9553 31.0676L16.2663 31.2115L18.6743 31.1558ZM18.9553 31.0676L19.2297 30.9701L16.5377 31.1263L18.9553 31.0676ZM19.2297 30.9701L19.4977 30.8634L16.8029 31.0321L19.2297 30.9701ZM19.4977 30.8634L19.7576 30.7454L17.0618 30.929L19.4977 30.8634ZM19.7576 30.7454L20.008 30.6201L17.3129 30.815L19.7576 30.7454ZM20.008 30.6201L20.2487 30.4875L17.5548 30.694L20.008 30.6201ZM20.2487 30.4875L20.4798 30.3475L17.7874 30.5658L20.2487 30.4875ZM20.4798 30.3475L20.7014 30.2003L18.0107 30.4306L20.4798 30.3475ZM20.7014 30.2003L20.9133 30.0456L18.2247 30.2883L20.7014 30.2003ZM20.9133 30.0456L21.1156 29.8837L18.4294 30.1389L20.9133 30.0456ZM21.1156 29.8837L21.3083 29.7144L18.6249 29.9825L21.1156 29.8837ZM21.3083 29.7144L21.4914 29.5378L18.8111 29.8189L21.3083 29.7144ZM21.4914 29.5378L21.6649 29.3539L18.988 29.6483L21.4914 29.5378ZM21.6649 29.3539L21.8288 29.1627L19.1557 29.4706L21.6649 29.3539ZM21.8288 29.1627L21.9831 28.9641L19.314 29.2859L21.8288 29.1627ZM21.9831 28.9641L22.1263 28.7593L19.4631 29.094L21.9831 28.9641ZM22.1263 28.7593L22.2567 28.5494L19.6014 28.8961L22.1263 28.7593ZM22.2567 28.5494L22.3744 28.3343L19.7274 28.6933L22.2567 28.5494ZM22.3744 28.3343L22.4794 28.1141L19.8411 28.4855L22.3744 28.3343ZM22.4794 28.1141L22.5716 27.8888L19.9425 28.2728L22.4794 28.1141ZM22.5716 27.8888L22.6512 27.6583L20.0317 28.0551L22.5716 27.8888ZM22.6512 27.6583L22.718 27.4228L20.1085 27.8324L22.6512 27.6583ZM22.718 27.4228L22.7721 27.1821L20.1731 27.6048L22.718 27.4228ZM22.7721 27.1821L22.8135 26.9362L20.2254 27.3723L22.7721 27.1821ZM22.8135 26.9362L22.8422 26.6852L20.2654 27.1348L22.8135 26.9362ZM22.8422 26.6852L22.8582 26.4292L20.2931 26.8923L22.8422 26.6852ZM22.8582 26.4292L22.8614 26.1679L20.3085 26.6448L22.8582 26.4292ZM22.8614 26.1679L22.8581 25.898L20.3117 26.3925L22.8614 26.1679ZM22.8581 25.898L22.8417 25.6335L20.3084 26.1317L22.8581 25.898ZM22.8417 25.6335L22.8124 25.3744L20.2926 25.8761L22.8417 25.6335ZM22.8124 25.3744L22.7701 25.1206L20.2643 25.6258L22.8124 25.3744ZM22.7701 25.1206L22.7148 24.8722L20.2234 25.3806L22.7701 25.1206ZM22.7148 24.8722L22.6465 24.6292L20.17 25.1406L22.7148 24.8722ZM22.6465 24.6292L22.5653 24.3915L20.104 24.9058L22.6465 24.6292ZM22.5653 24.3915L22.4711 24.1592L20.0255 24.6762L22.5653 24.3915ZM22.4711 24.1592L22.3639 23.9323L19.9345 24.4517L22.4711 24.1592ZM22.1106 23.4946L21.9644 23.2838L19.5862 23.8096L22.1106 23.4946ZM21.9644 23.2838L21.8061 23.0795L19.445 23.606L21.9644 23.2838ZM21.8061 23.0795L21.6364 22.8828L19.2921 23.4086L21.8061 23.0795ZM21.6364 22.8828L21.4552 22.6936L19.1281 23.2185L21.6364 22.8828ZM21.4552 22.6936L21.2626 22.512L18.953 23.0357L21.4552 22.6936ZM21.2626 22.512L21.0586 22.338L18.767 22.8603L21.2626 22.512ZM21.0586 22.338L20.8432 22.1715L18.5699 22.6921L21.0586 22.338ZM20.8432 22.1715L20.6164 22.0126L18.3617 22.5313L20.8432 22.1715ZM20.6164 22.0126L20.3781 21.8613L18.1426 22.3778L20.6164 22.0126ZM20.3781 21.8613L20.1284 21.7176L17.9124 22.2316L20.3781 21.8613ZM20.1284 21.7176L19.8673 21.5814L17.6711 22.0928L20.1284 21.7176ZM19.8673 21.5814L19.5948 21.4528L17.4189 21.9612L19.8673 21.5814ZM19.5948 21.4528L19.3108 21.3318L17.1556 21.8369L19.5948 21.4528ZM19.3108 21.3318L19.0194 21.2194L16.8812 21.72L19.3108 21.3318ZM19.0194 21.2194L18.718 21.1168L16.5996 21.6115L19.0194 21.2194ZM18.718 21.1168L18.4068 21.024L16.3085 21.5124L18.718 21.1168ZM18.4068 21.024L18.0858 20.941L16.0078 21.4227L18.4068 21.024ZM18.0858 20.941L17.7549 20.8677L15.6977 21.3424L18.0858 20.941ZM17.7549 20.8677L17.4141 20.8042L15.3779 21.2716L17.7549 20.8677ZM17.4141 20.8042L17.0634 20.7505L15.0487 21.2103L17.4141 20.8042ZM17.0634 20.7505L16.7029 20.7065L14.7099 21.1584L17.0634 20.7505ZM16.7029 20.7065L16.3325 20.6723L14.3616 21.1159L16.7029 20.7065ZM16.3325 20.6723L15.9523 20.6479L14.0038 21.0829L16.3325 20.6723ZM15.9523 20.6479L15.5622 20.6332L13.6364 21.0593L15.9523 20.6479ZM15.5622 20.6332L15.1622 20.6283L13.2595 21.0451L15.5622 20.6332ZM15.1622 20.6283H11.7798L12.8731 21.0404L15.1622 20.6283ZM11.7798 20.6283V15.5987L9.60516 21.0404L11.7798 20.6283ZM17.6041 15.3095L17.8777 15.2327L15.2322 15.9016L17.6041 15.3095ZM17.8777 15.2327L18.1444 15.1469L15.4967 15.8274L17.8777 15.2327ZM18.1444 15.1469L18.4041 15.052L15.7543 15.7445L18.1444 15.1469ZM18.4041 15.052L18.6568 14.9481L16.0052 15.6528L18.4041 15.052ZM18.6568 14.9481L18.9045 14.8359L16.2493 15.5524L18.6568 14.9481ZM18.9045 14.8359L19.1432 14.7165L16.4887 15.4441L18.9045 14.8359ZM19.1432 14.7165L19.3727 14.5897L16.7193 15.3287L19.1432 14.7165ZM19.3727 14.5897L19.5932 14.4556L16.9411 15.2062L19.3727 14.5897ZM19.5932 14.4556L19.8046 14.3142L17.1541 15.0766L19.5932 14.4556ZM19.8046 14.3142L20.0069 14.1655L17.3583 14.94L19.8046 14.3142ZM20.0069 14.1655L20.2002 14.0094L17.5538 14.7963L20.0069 14.1655ZM20.2002 14.0094L20.3843 13.846L17.7405 14.6455L20.2002 14.0094ZM20.3843 13.846L20.5594 13.6753L17.9184 14.4876L20.3843 13.846ZM20.5594 13.6753L20.7254 13.4972L18.0875 14.3227L20.5594 13.6753ZM20.7254 13.4972L20.8823 13.3118L18.2479 14.1506L20.7254 13.4972ZM20.8823 13.3118L21.0301 13.1191L18.3995 13.9715L20.8823 13.3118ZM21.0301 13.1191L21.1672 12.9172L18.5423 13.7853L21.0301 13.1191ZM21.1672 12.9172L21.2922 12.7102L18.6748 13.5903L21.1672 12.9172ZM21.2922 12.7102L21.405 12.4981L18.7956 13.3903L21.2922 12.7102ZM21.405 12.4981L21.5056 12.2808L18.9045 13.1854L21.405 12.4981ZM21.5056 12.2808L21.5939 12.0585L19.0017 12.9754L21.5056 12.2808ZM21.5939 12.0585L21.6701 11.8309L19.0871 12.7606L21.5939 12.0585ZM21.6701 11.8309L21.7341 11.5983L19.1607 12.5408L21.6701 11.8309ZM21.7341 11.5983L21.7859 11.3605L19.2225 12.316L21.7341 11.5983ZM21.7859 11.3605L21.8255 11.1176L19.2725 12.0863L21.7859 11.3605ZM21.8255 11.1176L21.8528 10.8696L19.3107 11.8516L21.8255 11.1176ZM21.8528 10.8696L21.868 10.6164L19.3372 11.6119L21.8528 10.8696ZM21.868 10.6164L21.871 10.3581L19.3519 11.3673L21.868 10.6164ZM21.871 10.3581L21.8688 10.1059L19.3548 11.1178L21.871 10.3581ZM21.8688 10.1059L21.8559 9.85935L19.3526 10.8741L21.8688 10.1059ZM21.8559 9.85935L21.8325 9.61839L19.3402 10.6359L21.8559 9.85935ZM21.8325 9.61839L21.7983 9.38306L19.3175 10.4031L21.8325 9.61839ZM21.7983 9.38306L21.7536 9.15334L19.2845 10.1757L21.7983 9.38306ZM21.7536 9.15334L21.6981 8.92924L19.2413 9.95381L21.7536 9.15334ZM21.6981 8.92924L21.6321 8.71076L19.1877 9.73729L21.6981 8.92924ZM21.6321 8.71076L21.5554 8.4979L19.1239 9.52621L21.6321 8.71076ZM21.5554 8.4979L21.4681 8.29065L19.0498 9.32055L21.5554 8.4979ZM21.4681 8.29065L21.3701 8.08902L18.9655 9.12032L21.4681 8.29065ZM21.3701 8.08902L21.2615 7.89301L18.8708 8.92551L21.3701 8.08902ZM21.2615 7.89301L21.1422 7.70262L18.7658 8.73614L21.2615 7.89301ZM21.1422 7.70262L21.0164 7.51564L18.6506 8.55219L21.1422 7.70262ZM21.0164 7.51564L20.8821 7.33575L18.5291 8.37154L21.0164 7.51564ZM20.8821 7.33575L20.7392 7.16295L18.3994 8.19774L20.8821 7.33575ZM20.7392 7.16295L20.5878 6.99722L18.2613 8.03079L20.7392 7.16295ZM20.5878 6.99722L20.4278 6.83858L18.115 7.87067L20.5878 6.99722ZM20.4278 6.83858L20.2592 6.68702L17.9604 7.7174L20.4278 6.83858ZM20.2592 6.68702L20.0821 6.54255L17.7975 7.57097L20.2592 6.68702ZM20.0821 6.54255L19.8964 6.40516L17.6264 7.43139L20.0821 6.54255ZM19.8964 6.40516L19.7021 6.27485L17.447 7.29865L19.8964 6.40516ZM19.7021 6.27485L19.4993 6.15163L17.2593 7.17275L19.7021 6.27485ZM19.4993 6.15163L19.2879 6.03549L17.0633 7.0537L19.4993 6.15163ZM19.2879 6.03549L19.0679 5.92643L16.8591 6.94149L19.2879 6.03549ZM19.0679 5.92643L18.8435 5.82531L16.6465 6.83612L19.0679 5.92643ZM18.8435 5.82531L18.6127 5.73298L16.4298 6.73843L18.8435 5.82531ZM18.6127 5.73298L18.3753 5.64945L16.2067 6.64922L18.6127 5.73298ZM18.3753 5.64945L18.1315 5.57471L15.9774 6.56852L18.3753 5.64945ZM18.1315 5.57471L17.8811 5.50876L15.7418 6.49631L18.1315 5.57471ZM17.8811 5.50876L17.6243 5.45161L15.4999 6.43259L17.8811 5.50876ZM17.6243 5.45161L17.361 5.40324L15.2518 6.37737L17.6243 5.45161ZM17.361 5.40324L17.0912 5.36368L14.9974 6.33065L17.361 5.40324ZM17.0912 5.36368L16.8149 5.3329L14.7367 6.29242L17.0912 5.36368ZM16.8149 5.3329L16.5321 5.31092L14.4698 6.26268L16.8149 5.3329ZM16.5321 5.31092L16.2429 5.29773L14.1966 6.24145L16.5321 5.31092ZM16.2429 5.29773L15.9471 5.29333L13.9171 6.2287L16.2429 5.29773ZM15.9471 5.29333L15.6562 5.29748L13.6314 6.22446L15.9471 5.29333ZM15.6562 5.29748L15.3688 5.30994L13.3503 6.22847L15.6562 5.29748ZM15.3688 5.30994L15.0852 5.3307L13.0727 6.2405L15.3688 5.30994ZM15.0852 5.3307L14.8051 5.35977L12.7986 6.26056L15.0852 5.3307ZM14.8051 5.35977L14.5287 5.39714L12.528 6.28864L14.8051 5.35977ZM14.5287 5.39714L14.2559 5.44281L12.261 6.32475L14.5287 5.39714ZM14.2559 5.44281L13.9868 5.49679L11.9974 6.36888L14.2559 5.44281ZM13.9868 5.49679L13.7212 5.55908L11.7374 6.42103L13.9868 5.49679ZM13.7212 5.55908L13.4594 5.62966L11.4809 6.4812L13.7212 5.55908ZM13.4594 5.62966L13.2011 5.70856L11.2278 6.5494L13.4594 5.62966ZM13.2011 5.70856L12.9465 5.79575L10.9783 6.62563L13.2011 5.70856ZM12.9465 5.79575L12.6955 5.89126L10.7323 6.70987L12.9465 5.79575ZM9.3131 10.1998H2.64171L7.22192 10.9649L9.3131 10.1998ZM2.64171 10.1998L2.66598 9.70083L0.776357 10.9649L2.64171 10.1998ZM2.66598 9.70083L2.71387 9.21208L0.799803 10.4828L2.66598 9.70083ZM2.71387 9.21208L2.78537 8.7336L0.846068 10.0106L2.71387 9.21208ZM2.78537 8.7336L2.88049 8.26537L0.915153 9.54827L2.78537 8.7336ZM2.88049 8.26537L2.99924 7.8074L1.00706 9.09589L2.88049 8.26537ZM2.99924 7.8074L3.1416 7.35969L1.12178 8.65343L2.99924 7.8074ZM3.1416 7.35969L3.30758 6.92224L1.25932 8.22087L3.1416 7.35969ZM3.30758 6.92224L3.49718 6.49504L1.41968 7.79822L3.30758 6.92224ZM3.49718 6.49504L3.7104 6.07811L1.60287 7.38549L3.49718 6.49504ZM3.7104 6.07811L3.94723 5.67143L1.80887 6.98267L3.7104 6.07811ZM3.94723 5.67143L4.20769 5.27501L2.03769 6.58976L3.94723 5.67143ZM4.20769 5.27501L4.49176 4.88886L2.28932 6.20676L4.20769 5.27501ZM4.49176 4.88886L4.79906 4.51198L2.56378 5.83367L4.49176 4.88886ZM4.79906 4.51198L5.12298 4.14927L2.86068 5.46955L4.79906 4.51198ZM5.12298 4.14927L5.4635 3.80072L3.17363 5.11911L5.12298 4.14927ZM5.4635 3.80072L5.82064 3.46634L3.50263 4.78237L5.4635 3.80072ZM5.82064 3.46634L6.19439 3.14613L3.84768 4.45931L5.82064 3.46634ZM6.19439 3.14613L6.58474 2.84008L4.20878 4.14993L6.19439 3.14613ZM6.58474 2.84008L6.99171 2.54821L4.58592 3.85425L6.58474 2.84008ZM6.99171 2.54821L7.41529 2.27049L4.97912 3.57225L6.99171 2.54821ZM7.41529 2.27049L7.85548 2.00695L5.38836 3.30394L7.41529 2.27049ZM7.85548 2.00695L8.31229 1.75757L5.81365 3.04931L7.85548 2.00695ZM22.3639 23.9323L22.2437 23.7108L19.831 24.2325L22.3639 23.9323ZM22.2437 23.7108L22.1106 23.4946L19.7148 24.0185L22.2437 23.7108Z" fill="#D6211F"/>
<path d="M15.2058 36.9919L15.8723 37.001L16.5511 36.9916L15.2058 36.9919ZM13.9102 36.9196L14.5518 36.9648L15.2058 36.9919L13.9102 36.9196ZM12.6643 36.775L13.281 36.8564L13.9102 36.9196L12.6643 36.775ZM11.4684 36.5581L12.0601 36.6756L12.6643 36.775L11.4684 36.5581ZM10.3222 36.2689L10.889 36.4226L11.4684 36.5581L10.3222 36.2689ZM9.22587 35.9075L9.7678 36.0972L10.3222 36.2689L9.22587 35.9075ZM8.18535 35.4756L8.6964 35.6996L9.22587 35.9075L8.18535 35.4756ZM7.21776 34.9852L7.69247 35.2375L8.18535 35.4756L7.21776 34.9852ZM6.32284 34.438L6.76122 34.7187L7.21776 34.9852L6.32284 34.438ZM5.5006 33.8343L5.90264 34.1432L6.32284 34.438L5.5006 33.8343ZM4.75103 33.1738L5.11673 33.5111L5.5006 33.8343L4.75103 33.1738ZM4.07413 32.4567L4.40349 32.8223L4.75103 33.1738L4.07413 32.4567ZM3.47263 31.685L3.76293 32.0769L4.07413 32.4567L3.47263 31.685ZM2.96288 30.8711L3.20595 31.2831L3.47263 31.685L2.96288 30.8711ZM2.5476 30.0172L2.74343 30.4492L2.96288 30.8711L2.5476 30.0172ZM2.22681 29.1233L2.3754 29.5753L2.5476 30.0172L2.22681 29.1233ZM2.00048 28.1893L2.10183 28.6613L2.22681 29.1233L2.00048 28.1893ZM1.86863 27.2152L1.92275 27.7072L2.00048 28.1893L1.86863 27.2152ZM8.86458 26.7131H1.83813L1.86863 27.2152L8.86458 26.7131ZM11.7798 15.5988V20.6284H15.1622L11.7798 15.5988ZM2.64169 10.1999H9.31308L9.32839 9.95075L2.64169 10.1999ZM2.71385 9.21214L2.66596 9.70088L2.64169 10.1999L2.71385 9.21214ZM2.88047 8.26543L2.78535 8.73365L2.71385 9.21214L2.88047 8.26543ZM3.14158 7.35975L2.99922 7.80746L2.88047 8.26543L3.14158 7.35975ZM3.49716 6.4951L3.30756 6.92229L3.14158 7.35975L3.49716 6.4951ZM3.94721 5.67149L3.71037 6.07817L3.49716 6.4951L3.94721 5.67149ZM4.49174 4.88891L4.20767 5.27507L3.94721 5.67149L4.49174 4.88891ZM5.12296 4.14932L4.79904 4.51203L4.49174 4.88891L5.12296 4.14932ZM5.82062 3.4664L5.46348 3.80078L5.12296 4.14932L5.82062 3.4664ZM6.58472 2.84014L6.19437 3.14619L5.82062 3.4664L6.58472 2.84014ZM7.41527 2.27055L6.99169 2.54826L6.58472 2.84014L7.41527 2.27055ZM8.31227 1.75762L7.85546 2.007L7.41527 2.27055L8.31227 1.75762ZM9.2757 1.30137L8.78568 1.52241L8.31227 1.75762L9.2757 1.30137ZM10.2926 0.903726L9.77909 1.09351L9.2757 1.30137L10.2926 0.903726ZM11.35 0.578384L10.8162 0.732019L10.2926 0.903726L11.35 0.578384ZM12.4479 0.325341L11.8939 0.442826L11.35 0.578384L12.4479 0.325341ZM13.5863 0.144596L13.012 0.225932L12.4479 0.325341L13.5863 0.144596ZM14.7651 0.0361486L14.1706 0.0813356L13.5863 0.144596L14.7651 0.0361486ZM15.9845 0L15.3697 0.00903679L14.7651 0.0361486L15.9845 0ZM17.2334 0.0376142L16.6159 0.00940429L15.9845 0L17.2334 0.0376142ZM18.4263 0.150458L17.8368 0.0846327L17.2334 0.0376142L18.4263 0.150458ZM19.5631 0.338531L19.0017 0.235091L18.4263 0.150458L19.5631 0.338531ZM20.6438 0.601833L20.1105 0.460778L19.5631 0.338531L20.6438 0.601833ZM21.6685 0.940364L21.1632 0.761694L20.6438 0.601833L21.6685 0.940364ZM22.6372 1.35412L22.1599 1.13784L21.6685 0.940364L22.6372 1.35412ZM23.5482 1.82553L23.1016 1.58335L22.6372 1.35412L23.5482 1.82553ZM24.3875 2.34871L23.9768 2.08065L23.5482 1.82553L24.3875 2.34871ZM25.1553 2.92367L24.7804 2.62972L24.3875 2.34871L25.1553 2.92367ZM25.8514 3.55042L25.5123 3.23057L25.1553 2.92367L25.8514 3.55042ZM26.4759 4.22895L26.1726 3.88321L25.8514 3.55042L26.4759 4.22895ZM27.0287 4.95926L26.7612 4.58763L26.4759 4.22895L27.0287 4.95926ZM27.5026 5.72864L27.2764 5.34065L27.0287 4.95926L27.5026 5.72864ZM27.8904 6.52441L27.7073 6.12323L27.5026 5.72864L27.8904 6.52441ZM28.192 7.34656L28.052 6.93219L27.8904 6.52441L28.192 7.34656ZM28.4074 8.19508L28.3105 7.76752L28.192 7.34656L28.4074 8.19508ZM28.5367 9.06998L28.4828 8.62924L28.4074 8.19508L28.5367 9.06998ZM28.5797 9.97127L28.569 9.51733L28.5367 9.06998L28.5797 9.97127ZM28.532 10.958L28.5694 10.4715L28.5797 9.97127L28.532 10.958ZM28.3763 11.8901L28.4676 11.4309L28.532 10.958L28.3763 11.8901ZM28.1126 12.7674L28.2579 12.3356L28.3763 11.8901L28.1126 12.7674ZM27.7409 13.5901L27.9402 13.1856L28.1126 12.7674L27.7409 13.5901ZM27.2612 14.358L27.5146 13.9809L27.7409 13.5901L27.2612 14.358ZM26.6736 15.0712L26.9809 14.7214L27.2612 14.358L26.6736 15.0712ZM26.005 15.7175L26.3476 15.4042L26.6736 15.0712L26.005 15.7175ZM25.27 16.2846L25.6458 16.011L26.005 15.7175L25.27 16.2846ZM24.4685 16.7727L24.8776 16.5385L25.27 16.2846L24.4685 16.7727ZM23.6006 17.1815L24.0429 16.987L24.4685 16.7727L23.6006 17.1815ZM22.6662 17.5113L23.1417 17.3563L23.6006 17.1815L22.6662 17.5113ZM21.6654 17.7619L22.1741 17.6465L22.6662 17.5113L21.6654 17.7619ZM22.9585 18.268L22.3251 18.1434L21.6654 18.0432L22.9585 18.268ZM24.1467 18.5904L23.5657 18.4169L22.9585 18.268L24.1467 18.5904ZM25.23 19.0105L24.7015 18.7882L24.1467 18.5904L25.23 19.0105ZM26.2085 19.5283L25.7324 19.2572L25.23 19.0105L26.2085 19.5283ZM27.0822 20.1438L26.6584 19.8238L26.2085 19.5283L27.0822 20.1438ZM27.8509 20.857L27.4797 20.4882L27.0822 20.1438L27.8509 20.857ZM28.5128 21.644L28.197 21.2428L27.8509 20.857L28.5128 21.644ZM29.0532 22.4925L28.7982 22.0605L28.5128 21.644L29.0532 22.4925ZM29.9455 25.4074L29.8727 24.8831L29.7695 24.3742L29.9455 25.4074ZM30 26.5021L29.9879 25.9471L29.9455 25.4074L30 26.5021ZM29.9491 27.4928L29.9873 27.0019L30 26.5021L29.9491 27.4928ZM29.7965 28.4483L29.8855 27.9749L29.9491 27.4928L29.7965 28.4483ZM29.5421 29.3686L29.682 28.9129L29.7965 28.4483L29.5421 29.3686ZM29.186 30.2538L29.3768 29.8156L29.5421 29.3686L29.186 30.2538ZM28.7282 31.1038L28.9698 30.6832L29.186 30.2538L28.7282 31.1038ZM28.1686 31.9186L28.4611 31.5156L28.7282 31.1038L28.1686 31.9186ZM27.526 32.6816L27.8569 32.3072L28.1686 31.9186L27.526 32.6816ZM26.8065 33.388L27.1759 33.0419L27.526 32.6816L26.8065 33.388ZM26.0102 34.0377L26.418 33.72L26.8065 33.388L26.0102 34.0377ZM25.1371 34.6308L25.5833 34.3413L26.0102 34.0377L25.1371 34.6308ZM24.1872 35.1671L24.6717 34.906L25.1371 34.6308L24.1872 35.1671ZM23.1604 35.6468L23.6834 35.4141L24.1872 35.1671L23.1604 35.6468ZM22.0755 36.0606L22.6244 35.8631L23.1604 35.6468L22.0755 36.0606ZM20.9387 36.3991L21.5136 36.2393L22.0755 36.0606L20.9387 36.3991ZM19.75 36.6624L20.3508 36.5402L20.9387 36.3991L19.75 36.6624ZM18.5093 36.8505L19.1361 36.7659L19.75 36.6624L18.5093 36.8505ZM17.2168 36.9634L17.8696 36.9163L18.5093 36.8505L17.2168 36.9634ZM15.2058 36.9919L16.5511 36.9916L17.2168 36.9634L15.2058 36.9919ZM12.6643 36.775L13.9102 36.9196L15.2058 36.9919L12.6643 36.775ZM10.3222 36.2689L11.4684 36.5581L12.6643 36.775L10.3222 36.2689ZM8.18535 35.4756L9.22587 35.9075L10.3222 36.2689L8.18535 35.4756ZM6.32284 34.438L7.21776 34.9852L8.18535 35.4756L6.32284 34.438ZM4.75103 33.1738L5.5006 33.8343L6.32284 34.438L4.75103 33.1738ZM3.47263 31.685L4.07413 32.4567L4.75103 33.1738L3.47263 31.685ZM2.5476 30.0172L2.96288 30.8711L3.47263 31.685L2.5476 30.0172ZM2.00048 28.1893L2.22681 29.1233L2.5476 30.0172L2.00048 28.1893ZM8.86458 26.7131L1.86863 27.2152L2.00048 28.1893L8.86458 26.7131ZM11.7798 15.5988L15.1622 20.6284L15.5622 20.6333L11.7798 15.5988ZM2.64169 10.1999L9.32839 9.95075L9.35564 9.70748L2.64169 10.1999ZM2.88047 8.26543L2.71385 9.21214L2.64169 10.1999L2.88047 8.26543ZM3.49716 6.4951L3.14158 7.35975L2.88047 8.26543L3.49716 6.4951ZM4.49174 4.88891L3.94721 5.67149L3.49716 6.4951L4.49174 4.88891ZM5.82062 3.4664L5.12296 4.14932L4.49174 4.88891L5.82062 3.4664ZM7.41527 2.27055L6.58472 2.84014L5.82062 3.4664L7.41527 2.27055ZM9.2757 1.30137L8.31227 1.75762L7.41527 2.27055L9.2757 1.30137ZM11.35 0.578384L10.2926 0.903726L9.2757 1.30137L11.35 0.578384ZM13.5863 0.144596L12.4479 0.325341L11.35 0.578384L13.5863 0.144596ZM15.9845 0L14.7651 0.0361486L13.5863 0.144596L15.9845 0ZM18.4263 0.150458L17.2334 0.0376142L15.9845 0L18.4263 0.150458ZM20.6438 0.601833L19.5631 0.338531L18.4263 0.150458L20.6438 0.601833ZM22.6372 1.35412L21.6685 0.940364L20.6438 0.601833L22.6372 1.35412ZM24.3875 2.34871L23.5482 1.82553L22.6372 1.35412L24.3875 2.34871ZM25.8514 3.55042L25.1553 2.92367L24.3875 2.34871L25.8514 3.55042ZM27.0287 4.95926L26.4759 4.22895L25.8514 3.55042L27.0287 4.95926ZM27.8904 6.52441L27.5026 5.72864L27.0287 4.95926L27.8904 6.52441ZM28.4074 8.19508L28.192 7.34656L27.8904 6.52441L28.4074 8.19508ZM28.5797 9.97127L28.5367 9.06998L28.4074 8.19508L28.5797 9.97127ZM28.3763 11.8901L28.532 10.958L28.5797 9.97127L28.3763 11.8901ZM27.7409 13.5901L28.1126 12.7674L28.3763 11.8901L27.7409 13.5901ZM26.6736 15.0712L27.2612 14.358L27.7409 13.5901L26.6736 15.0712ZM25.27 16.2846L26.005 15.7175L26.6736 15.0712L25.27 16.2846ZM23.6006 17.1815L24.4685 16.7727L25.27 16.2846L23.6006 17.1815ZM21.6654 17.7619L22.6662 17.5113L23.6006 17.1815L21.6654 17.7619ZM24.1467 18.5904L22.9585 18.268L21.6654 18.0432L24.1467 18.5904ZM26.2085 19.5283L25.23 19.0105L24.1467 18.5904L26.2085 19.5283ZM27.8509 20.857L27.0822 20.1438L26.2085 19.5283L27.8509 20.857ZM29.0532 22.4925L28.5128 21.644L27.8509 20.857L29.0532 22.4925ZM30 26.5021L29.9455 25.4074L29.7695 24.3742L30 26.5021ZM29.7965 28.4483L29.9491 27.4928L30 26.5021L29.7965 28.4483ZM29.186 30.2538L29.5421 29.3686L29.7965 28.4483L29.186 30.2538ZM28.1686 31.9186L28.7282 31.1038L29.186 30.2538L28.1686 31.9186ZM26.8065 33.388L27.526 32.6816L28.1686 31.9186L26.8065 33.388ZM25.1371 34.6308L26.0102 34.0377L26.8065 33.388L25.1371 34.6308ZM23.1604 35.6468L24.1872 35.1671L25.1371 34.6308L23.1604 35.6468ZM20.9387 36.3991L22.0755 36.0606L23.1604 35.6468L20.9387 36.3991ZM18.5093 36.8505L19.75 36.6624L20.9387 36.3991L18.5093 36.8505ZM15.2058 36.9919L17.2168 36.9634L18.5093 36.8505L15.2058 36.9919ZM10.3222 36.2689L12.6643 36.775L15.2058 36.9919L10.3222 36.2689ZM6.32284 34.438L8.18535 35.4756L10.3222 36.2689L6.32284 34.438ZM3.47263 31.685L4.75103 33.1738L6.32284 34.438L3.47263 31.685ZM2.00048 28.1893L2.5476 30.0172L3.47263 31.685L2.00048 28.1893ZM8.88599 26.9539L8.86458 26.7131L2.00048 28.1893L8.88599 26.9539ZM11.7798 15.5988L15.5622 20.6333L15.9523 20.6479L11.7798 15.5988ZM2.64169 10.1999L9.35564 9.70748L9.39484 9.47007L2.64169 10.1999ZM3.49716 6.4951L2.88047 8.26543L2.64169 10.1999L3.49716 6.4951ZM5.82062 3.4664L4.49174 4.88891L3.49716 6.4951L5.82062 3.4664ZM9.2757 1.30137L7.41527 2.27055L5.82062 3.4664L9.2757 1.30137ZM13.5863 0.144596L11.35 0.578384L9.2757 1.30137L13.5863 0.144596ZM18.4263 0.150458L15.9845 0L13.5863 0.144596L18.4263 0.150458ZM22.6372 1.35412L20.6438 0.601833L18.4263 0.150458L22.6372 1.35412ZM25.8514 3.55042L24.3875 2.34871L22.6372 1.35412L25.8514 3.55042ZM27.8904 6.52441L27.0287 4.95926L25.8514 3.55042L27.8904 6.52441ZM28.5797 9.97127L28.4074 8.19508L27.8904 6.52441L28.5797 9.97127ZM27.7409 13.5901L28.3763 11.8901L28.5797 9.97127L27.7409 13.5901ZM25.27 16.2846L26.6736 15.0712L27.7409 13.5901L25.27 16.2846ZM21.6654 17.7619L23.6006 17.1815L25.27 16.2846L21.6654 17.7619ZM26.2085 19.5283L24.1467 18.5904L21.6654 18.0432L26.2085 19.5283ZM29.0532 22.4925L27.8509 20.857L26.2085 19.5283L29.0532 22.4925ZM30 26.5021L29.7695 24.3742L29.0532 22.4925L30 26.5021ZM29.186 30.2538L29.7965 28.4483L30 26.5021L29.186 30.2538ZM26.8065 33.388L28.1686 31.9186L29.186 30.2538L26.8065 33.388ZM23.1604 35.6468L25.1371 34.6308L26.8065 33.388L23.1604 35.6468ZM18.5093 36.8505L20.9387 36.3991L23.1604 35.6468L18.5093 36.8505ZM10.3222 36.2689L15.2058 36.9919L18.5093 36.8505L10.3222 36.2689ZM3.47263 31.685L6.32284 34.438L10.3222 36.2689L3.47263 31.685ZM8.88599 26.9539L2.00048 28.1893L3.47263 31.685L8.88599 26.9539ZM11.7798 15.5988L15.9523 20.6479L16.3325 20.6724L11.7798 15.5988ZM2.64169 10.1999L9.39484 9.47007L9.44597 9.23852L2.64169 10.1999ZM5.82062 3.4664L3.49716 6.4951L2.64169 10.1999L5.82062 3.4664ZM13.5863 0.144596L9.2757 1.30137L5.82062 3.4664L13.5863 0.144596ZM22.6372 1.35412L18.4263 0.150458L13.5863 0.144596L22.6372 1.35412ZM27.8904 6.52441L25.8514 3.55042L22.6372 1.35412L27.8904 6.52441ZM27.7409 13.5901L28.5797 9.97127L27.8904 6.52441L27.7409 13.5901ZM21.6654 17.7619L25.27 16.2846L27.7409 13.5901L21.6654 17.7619ZM29.0532 22.4925L26.2085 19.5283L21.6654 18.0432L29.0532 22.4925ZM29.186 30.2538L30 26.5021L29.0532 22.4925L29.186 30.2538ZM23.1604 35.6468L26.8065 33.388L29.186 30.2538L23.1604 35.6468ZM10.3222 36.2689L18.5093 36.8505L23.1604 35.6468L10.3222 36.2689ZM8.91909 27.1894L8.88599 26.9539L3.47263 31.685L8.91909 27.1894ZM11.7798 15.5988L16.3325 20.6724L16.7029 20.7065L11.7798 15.5988ZM2.64169 10.1999L9.44597 9.23852L9.50904 9.01283L2.64169 10.1999ZM13.5863 0.144596L5.82062 3.4664L2.64169 10.1999L13.5863 0.144596ZM27.8904 6.52441L22.6372 1.35412L13.5863 0.144596L27.8904 6.52441ZM21.6654 17.7619L27.7409 13.5901L27.8904 6.52441L21.6654 17.7619ZM29.186 30.2538L29.0532 22.4925L21.6654 18.0432L29.186 30.2538ZM10.3222 36.2689L23.1604 35.6468L29.186 30.2538L10.3222 36.2689ZM8.91909 27.1894L3.47263 31.685L10.3222 36.2689L8.91909 27.1894ZM11.7798 15.5988L16.7029 20.7065L17.0634 20.7505L11.7798 15.5988ZM2.64169 10.1999L9.50904 9.01283L9.58405 8.793L2.64169 10.1999ZM8.96386 27.4199L8.91909 27.1894L10.3222 36.2689L8.96386 27.4199ZM11.7798 15.5988L17.0634 20.7505L17.414 20.8043L11.7798 15.5988ZM2.64169 10.1999L9.58405 8.793L9.67099 8.57904L2.64169 10.1999ZM9.02031 27.6452L8.96386 27.4199L10.3222 36.2689L9.02031 27.6452ZM11.7798 15.5988L17.414 20.8043L17.7548 20.8678L11.7798 15.5988ZM2.64169 10.1999L9.67099 8.57904L9.76988 8.37094L2.64169 10.1999ZM9.08844 27.8654L9.02031 27.6452L10.3222 36.2689L9.08844 27.8654ZM11.7798 15.5988L17.7548 20.8678L18.0858 20.941L11.7798 15.5988ZM2.64169 10.1999L9.76988 8.37094L9.88071 8.1687L2.64169 10.1999ZM9.16825 28.0805L9.08844 27.8654L10.3222 36.2689L9.16825 28.0805ZM11.7798 15.5988L18.0858 20.941L18.4068 21.0241L11.7798 15.5988ZM2.64169 10.1999L9.88071 8.1687L10.0035 7.97233L2.64169 10.1999ZM9.25974 28.2904L9.16825 28.0805L10.3222 36.2689L9.25974 28.2904ZM11.7798 15.5988L18.4068 21.0241L18.718 21.1169L11.7798 15.5988ZM2.64169 10.1999L10.0035 7.97233L10.1382 7.78181L2.64169 10.1999ZM9.36291 28.4952L9.25974 28.2904L10.3222 36.2689L9.36291 28.4952ZM11.7798 15.5988L18.718 21.1169L19.0193 21.2195L11.7798 15.5988ZM2.64169 10.1999L10.1382 7.78181L10.2848 7.59716L2.64169 10.1999ZM9.47776 28.6949L9.36291 28.4952L10.3222 36.2689L9.47776 28.6949ZM11.7798 15.5988L19.0193 21.2195L19.3108 21.3318L11.7798 15.5988ZM2.64169 10.1999L10.2848 7.59716L10.4415 7.41605L2.64169 10.1999ZM9.60429 28.8894L9.47776 28.6949L10.3222 36.2689L9.60429 28.8894ZM11.7798 15.5988L19.3108 21.3318L19.5948 21.4529L11.7798 15.5988ZM2.64169 10.1999L10.4415 7.41605L10.6061 7.24202L2.64169 10.1999ZM9.7425 29.0788L9.60429 28.8894L10.3222 36.2689L9.7425 29.0788ZM11.7798 15.5988L19.5948 21.4529L19.8673 21.5815L11.7798 15.5988ZM2.64169 10.1999L10.6061 7.24202L10.7789 7.07507L2.64169 10.1999ZM9.89239 29.2631L9.7425 29.0788L10.3222 36.2689L9.89239 29.2631ZM11.7798 15.5988L19.8673 21.5815L20.1284 21.7176L11.7798 15.5988ZM2.64169 10.1999L10.7789 7.07507L10.9596 6.91521L2.64169 10.1999ZM10.0524 29.4386L9.89239 29.2631L10.3222 36.2689L10.0524 29.4386ZM11.7798 15.5988L20.1284 21.7176L20.3781 21.8614L11.7798 15.5988ZM2.64169 10.1999L10.9596 6.91521L11.1485 6.76243L2.64169 10.1999ZM10.221 29.6075L10.0524 29.4386L10.3222 36.2689L10.221 29.6075ZM11.7798 15.5988L20.3781 21.8614L20.6163 22.0127L11.7798 15.5988ZM2.64169 10.1999L11.1485 6.76243L11.3453 6.61674L2.64169 10.1999ZM10.3981 29.7698L10.221 29.6075L10.3222 36.2689L10.3981 29.7698ZM11.7798 15.5988L20.6163 22.0127L20.8432 22.1716L11.7798 15.5988ZM2.64169 10.1999L11.3453 6.61674L11.5502 6.47812L2.64169 10.1999ZM10.5838 29.9255L10.3981 29.7698L10.3222 36.2689L10.5838 29.9255ZM15.1622 15.5988H11.7798L20.8432 22.1716L15.1622 15.5988ZM2.64169 10.1999L11.5502 6.47812L11.7632 6.3466L2.64169 10.1999ZM10.7781 30.0746L10.5838 29.9255L10.3222 36.2689L10.7781 30.0746ZM15.1622 15.5988L20.8432 22.1716L21.0586 22.338L15.1622 15.5988ZM2.64169 10.1999L11.7632 6.3466L11.9842 6.22215L2.64169 10.1999ZM10.9809 30.2172L10.7781 30.0746L10.3222 36.2689L10.9809 30.2172ZM15.1622 15.5988L21.0586 22.338L21.2626 22.512L15.1622 15.5988ZM2.64169 10.1999L11.9842 6.22215L12.2133 6.10479L2.64169 10.1999ZM11.1923 30.3531L10.9809 30.2172L10.3222 36.2689L11.1923 30.3531ZM15.1622 15.5988L21.2626 22.512L21.4552 22.6936L15.1622 15.5988ZM2.64169 10.1999L12.2133 6.10479L12.4503 5.99451L2.64169 10.1999ZM11.4123 30.4824L11.1923 30.3531L10.3222 36.2689L11.4123 30.4824ZM15.1622 15.5988L21.4552 22.6936L21.6364 22.8828L15.1622 15.5988ZM13.5863 0.144596L2.64169 10.1999L12.4503 5.99451L13.5863 0.144596ZM11.6408 30.6052L11.4123 30.4824L10.3222 36.2689L11.6408 30.6052ZM15.492 15.5943L15.1622 15.5988L21.6364 22.8828L15.492 15.5943ZM13.5863 0.144596L12.4503 5.99451L12.6955 5.89131L13.5863 0.144596ZM11.8779 30.7213L11.6408 30.6052L10.3222 36.2689L11.8779 30.7213ZM15.492 15.5943L21.6364 22.8828L21.8061 23.0796L15.492 15.5943ZM13.5863 0.144596L12.6955 5.89131L12.9465 5.79581L13.5863 0.144596ZM12.1236 30.8308L11.8779 30.7213L10.3222 36.2689L12.1236 30.8308ZM15.8147 15.5807L15.492 15.5943L21.8061 23.0796L15.8147 15.5807ZM13.5863 0.144596L12.9465 5.79581L13.2011 5.70861L13.5863 0.144596ZM12.3778 30.9338L12.1236 30.8308L10.3222 36.2689L12.3778 30.9338ZM16.1305 15.5581L15.8147 15.5807L21.8061 23.0796L16.1305 15.5581ZM13.5863 0.144596L13.2011 5.70861L13.4593 5.62972L13.5863 0.144596ZM12.6389 31.0293L12.3778 30.9338L10.3222 36.2689L12.6389 31.0293ZM16.1305 15.5581L21.8061 23.0796L21.9644 23.2839L16.1305 15.5581ZM13.5863 0.144596L13.4593 5.62972L13.7212 5.55913L13.5863 0.144596ZM12.9052 31.1165L12.6389 31.0293L10.3222 36.2689L12.9052 31.1165ZM16.4392 15.5265L16.1305 15.5581L21.9644 23.2839L16.4392 15.5265ZM13.5863 0.144596L13.7212 5.55913L13.9867 5.49685L13.5863 0.144596ZM13.1767 31.1954L12.9052 31.1165L10.3222 36.2689L13.1767 31.1954ZM16.7409 15.4858L16.4392 15.5265L21.9644 23.2839L16.7409 15.4858ZM13.5863 0.144596L13.9867 5.49685L14.2559 5.44287L13.5863 0.144596ZM13.4534 31.266L13.1767 31.1954L10.3222 36.2689L13.4534 31.266ZM13.5863 0.144596L14.2559 5.44287L14.5287 5.39719L13.5863 0.144596ZM13.7352 31.3283L13.4534 31.266L10.3222 36.2689L13.7352 31.3283ZM13.5863 0.144596L14.5287 5.39719L14.8051 5.35982L13.5863 0.144596ZM14.0223 31.3822L13.7352 31.3283L10.3222 36.2689L14.0223 31.3822ZM13.5863 0.144596L14.8051 5.35982L15.0851 5.33076L13.5863 0.144596ZM14.3145 31.4279L14.0223 31.3822L10.3222 36.2689L14.3145 31.4279ZM13.5863 0.144596L15.0851 5.33076L15.3688 5.31L13.5863 0.144596ZM14.612 31.4653L14.3145 31.4279L10.3222 36.2689L14.612 31.4653ZM13.5863 0.144596L15.3688 5.31L15.6561 5.29754L13.5863 0.144596ZM14.9146 31.4943L14.612 31.4653L10.3222 36.2689L14.9146 31.4943ZM13.5863 0.144596L15.6561 5.29754L15.9471 5.29339L13.5863 0.144596ZM15.2224 31.5151L14.9146 31.4943L10.3222 36.2689L15.2224 31.5151ZM13.5863 0.144596L15.9471 5.29339L16.2428 5.29778L13.5863 0.144596ZM15.5354 31.5276L15.2224 31.5151L10.3222 36.2689L15.5354 31.5276ZM13.5863 0.144596L16.2428 5.29778L16.5321 5.31097L13.5863 0.144596ZM15.8537 31.5317L15.5354 31.5276L10.3222 36.2689L15.8537 31.5317ZM13.5863 0.144596L16.5321 5.31097L16.8149 5.33296L13.5863 0.144596ZM16.193 31.5271L15.8537 31.5317L10.3222 36.2689L16.193 31.5271ZM13.5863 0.144596L16.8149 5.33296L17.0912 5.36373L13.5863 0.144596ZM16.5259 31.5132L16.193 31.5271L10.3222 36.2689L16.5259 31.5132ZM18.6568 14.9481L18.4041 15.052L22.4711 24.1593L18.6568 14.9481ZM13.5863 0.144596L17.0912 5.36373L17.361 5.4033L13.5863 0.144596ZM16.8523 31.4899L16.5259 31.5132L10.3222 36.2689L16.8523 31.4899ZM18.9045 14.836L18.6568 14.9481L22.4711 24.1593L18.9045 14.836ZM13.5863 0.144596L17.361 5.4033L17.6243 5.45166L13.5863 0.144596ZM16.8523 31.4899L10.3222 36.2689L29.186 30.2538L16.8523 31.4899ZM18.9045 14.836L22.4711 24.1593L22.5653 24.3916L18.9045 14.836ZM13.5863 0.144596L17.6243 5.45166L17.8811 5.50882L13.5863 0.144596ZM17.1721 31.4575L16.8523 31.4899L29.186 30.2538L17.1721 31.4575ZM19.1431 14.7166L18.9045 14.836L22.5653 24.3916L19.1431 14.7166ZM13.5863 0.144596L17.8811 5.50882L18.1314 5.57477L13.5863 0.144596ZM17.4855 31.4157L17.1721 31.4575L29.186 30.2538L17.4855 31.4157ZM19.3727 14.5898L19.1431 14.7166L22.5653 24.3916L19.3727 14.5898ZM13.5863 0.144596L18.1314 5.57477L18.3753 5.64951L13.5863 0.144596ZM17.7925 31.3646L17.4855 31.4157L29.186 30.2538L17.7925 31.3646ZM19.3727 14.5898L22.5653 24.3916L22.6465 24.6292L19.3727 14.5898ZM13.5863 0.144596L18.3753 5.64951L18.6126 5.73304L13.5863 0.144596ZM18.0929 31.3043L17.7925 31.3646L29.186 30.2538L18.0929 31.3043ZM19.5932 14.4557L19.3727 14.5898L22.6465 24.6292L19.5932 14.4557ZM13.5863 0.144596L18.6126 5.73304L18.8435 5.82537L13.5863 0.144596ZM18.3868 31.2347L18.0929 31.3043L29.186 30.2538L18.3868 31.2347ZM19.8046 14.3143L19.5932 14.4557L22.6465 24.6292L19.8046 14.3143ZM13.5863 0.144596L18.8435 5.82537L19.0679 5.92649L13.5863 0.144596ZM18.6743 31.1558L18.3868 31.2347L29.186 30.2538L18.6743 31.1558ZM19.8046 14.3143L22.6465 24.6292L22.7148 24.8722L19.8046 14.3143ZM13.5863 0.144596L19.0679 5.92649L19.2878 6.03554L13.5863 0.144596ZM18.9552 31.0676L18.6743 31.1558L29.186 30.2538L18.9552 31.0676ZM20.0069 14.1655L19.8046 14.3143L22.7148 24.8722L20.0069 14.1655ZM13.5863 0.144596L19.2878 6.03554L19.4992 6.15168L13.5863 0.144596ZM19.2297 30.9702L18.9552 31.0676L29.186 30.2538L19.2297 30.9702ZM20.2002 14.0095L20.0069 14.1655L22.7148 24.8722L20.2002 14.0095ZM13.5863 0.144596L19.4992 6.15168L19.7021 6.27491L13.5863 0.144596ZM19.4977 30.8634L19.2297 30.9702L29.186 30.2538L19.4977 30.8634ZM20.3843 13.8461L20.2002 14.0095L22.7148 24.8722L20.3843 13.8461ZM13.5863 0.144596L19.7021 6.27491L19.8964 6.40522L13.5863 0.144596ZM19.7576 30.7455L19.4977 30.8634L29.186 30.2538L19.7576 30.7455ZM20.3843 13.8461L22.7148 24.8722L22.7701 25.1206L20.3843 13.8461ZM13.5863 0.144596L19.8964 6.40522L20.0821 6.54261L13.5863 0.144596ZM20.008 30.6202L19.7576 30.7455L29.186 30.2538L20.008 30.6202ZM20.5594 13.6753L20.3843 13.8461L22.7701 25.1206L20.5594 13.6753ZM13.5863 0.144596L20.0821 6.54261L20.2592 6.68708L13.5863 0.144596ZM20.2487 30.4875L20.008 30.6202L29.186 30.2538L20.2487 30.4875ZM20.7253 13.4973L20.5594 13.6753L22.7701 25.1206L20.7253 13.4973ZM13.5863 0.144596L20.2592 6.68708L20.4278 6.83864L13.5863 0.144596ZM20.4798 30.3476L20.2487 30.4875L29.186 30.2538L20.4798 30.3476ZM20.8822 13.3119L20.7253 13.4973L22.7701 25.1206L20.8822 13.3119ZM27.8904 6.52441L13.5863 0.144596L20.4278 6.83864L27.8904 6.52441ZM20.7013 30.2003L20.4798 30.3476L29.186 30.2538L20.7013 30.2003ZM20.8822 13.3119L22.7701 25.1206L22.8124 25.3744L20.8822 13.3119ZM27.8904 6.52441L20.4278 6.83864L20.5878 6.99728L27.8904 6.52441ZM20.9133 30.0457L20.7013 30.2003L29.186 30.2538L20.9133 30.0457ZM27.8904 6.52441L20.5878 6.99728L20.7392 7.163L27.8904 6.52441ZM21.1156 29.8838L20.9133 30.0457L29.186 30.2538L21.1156 29.8838ZM27.8904 6.52441L20.7392 7.163L20.8821 7.33581L27.8904 6.52441ZM21.3083 29.7145L21.1156 29.8838L29.186 30.2538L21.3083 29.7145ZM27.8904 6.52441L20.8821 7.33581L21.0164 7.5157L27.8904 6.52441ZM21.4914 29.5379L21.3083 29.7145L29.186 30.2538L21.4914 29.5379ZM27.8904 6.52441L21.0164 7.5157L21.1422 7.70267L27.8904 6.52441ZM21.6649 29.354L21.4914 29.5379L29.186 30.2538L21.6649 29.354ZM27.8904 6.52441L21.1422 7.70267L21.2614 7.89307L27.8904 6.52441ZM21.8288 29.1627L21.6649 29.354L29.186 30.2538L21.8288 29.1627ZM27.8904 6.52441L21.2614 7.89307L21.3701 8.08908L27.8904 6.52441ZM21.9831 28.9642L21.8288 29.1627L29.186 30.2538L21.9831 28.9642ZM27.8904 6.52441L21.3701 8.08908L21.468 8.2907L27.8904 6.52441ZM22.1262 28.7594L21.9831 28.9642L29.186 30.2538L22.1262 28.7594ZM27.8904 6.52441L21.468 8.2907L21.5554 8.49795L27.8904 6.52441ZM22.2567 28.5494L22.1262 28.7594L29.186 30.2538L22.2567 28.5494ZM27.8904 6.52441L21.5554 8.49795L21.6321 8.71082L27.8904 6.52441ZM22.3744 28.3344L22.2567 28.5494L29.186 30.2538L22.3744 28.3344ZM27.8904 6.52441L21.6321 8.71082L21.6981 8.9293L27.8904 6.52441ZM22.4794 28.1142L22.3744 28.3344L29.186 30.2538L22.4794 28.1142ZM27.8904 6.52441L21.6981 8.9293L21.7535 9.1534L27.8904 6.52441ZM22.5716 27.8888L22.4794 28.1142L29.186 30.2538L22.5716 27.8888ZM27.8904 6.52441L21.7535 9.1534L21.7983 9.38311L27.8904 6.52441ZM22.6512 27.6584L22.5716 27.8888L29.186 30.2538L22.6512 27.6584ZM27.8904 6.52441L21.7983 9.38311L21.8324 9.61845L27.8904 6.52441ZM22.718 27.4228L22.6512 27.6584L29.186 30.2538L22.718 27.4228ZM27.8904 6.52441L21.8324 9.61845L21.8559 9.8594L27.8904 6.52441ZM22.7721 27.1821L22.718 27.4228L29.186 30.2538L22.7721 27.1821ZM27.8904 6.52441L21.8559 9.8594L21.8688 10.106L27.8904 6.52441ZM22.8135 26.9363L22.7721 27.1821L29.186 30.2538L22.8135 26.9363ZM27.8904 6.52441L21.8688 10.106L21.871 10.3582L27.8904 6.52441ZM22.8422 26.6853L22.8135 26.9363L29.186 30.2538L22.8422 26.6853ZM27.8904 6.52441L21.871 10.3582L21.868 10.6165L27.8904 6.52441ZM22.8582 26.4292L22.8422 26.6853L29.186 30.2538L22.8582 26.4292ZM27.8904 6.52441L21.868 10.6165L21.8528 10.8696L27.8904 6.52441ZM22.8614 26.168L22.8582 26.4292L29.186 30.2538L22.8614 26.168ZM27.8904 6.52441L21.8528 10.8696L21.8254 11.1177L27.8904 6.52441ZM22.858 25.8981L22.8614 26.168L29.186 30.2538L22.858 25.8981ZM27.8904 6.52441L21.8254 11.1177L21.7859 11.3606L27.8904 6.52441ZM22.8417 25.6336L22.858 25.8981L29.186 30.2538L22.8417 25.6336ZM27.8904 6.52441L21.7859 11.3606L21.7341 11.5983L27.8904 6.52441ZM22.8124 25.3744L22.8417 25.6336L29.186 30.2538L22.8124 25.3744ZM27.8904 6.52441L21.7341 11.5983L21.6701 11.831L27.8904 6.52441ZM22.8124 25.3744L29.186 30.2538L21.6654 18.0432L22.8124 25.3744ZM27.8904 6.52441L21.6701 11.831L21.5939 12.0585L27.8904 6.52441ZM20.8822 13.3119L22.8124 25.3744L21.6654 18.0432L20.8822 13.3119ZM27.8904 6.52441L21.5939 12.0585L21.5055 12.2809L27.8904 6.52441ZM20.8822 13.3119L21.6654 18.0432V17.7619L20.8822 13.3119ZM27.8904 6.52441L21.5055 12.2809L21.405 12.4982L27.8904 6.52441ZM20.8822 13.3119L21.6654 17.7619L27.8904 6.52441L20.8822 13.3119ZM27.8904 6.52441L21.405 12.4982L21.2922 12.7103L27.8904 6.52441ZM21.0301 13.1192L20.8822 13.3119L27.8904 6.52441L21.0301 13.1192ZM27.8904 6.52441L21.2922 12.7103L21.1672 12.9173L27.8904 6.52441ZM21.1672 12.9173L21.0301 13.1192L27.8904 6.52441L21.1672 12.9173ZM29.4721 23.4026L29.2778 22.9398L29.0532 22.4925L29.4721 23.4026ZM29.7695 24.3742L29.4721 23.4026L29.0532 22.4925L29.7695 24.3742ZM16.7409 15.4858L21.9644 23.2839L22.1105 23.4947L16.7409 15.4858ZM17.0356 15.4361L16.7409 15.4858L22.1105 23.4947L17.0356 15.4361ZM17.3233 15.3774L17.0356 15.4361L22.1105 23.4947L17.3233 15.3774ZM17.604 15.3096L17.3233 15.3774L22.2437 23.7108L17.604 15.3096ZM17.8777 15.2328L17.604 15.3096L22.2437 23.7108L17.8777 15.2328ZM18.1444 15.1469L17.8777 15.2328L22.3639 23.9324L18.1444 15.1469ZM18.4041 15.052L18.1444 15.1469L22.3639 23.9324L18.4041 15.052ZM18.4041 15.052L22.3639 23.9324L22.4711 24.1593L18.4041 15.052ZM29.7695 24.3742L29.636 23.8807L29.4721 23.4026L29.7695 24.3742ZM17.3233 15.3774L22.1105 23.4947L22.2437 23.7108L17.3233 15.3774ZM17.8777 15.2328L22.2437 23.7108L22.3639 23.9324L17.8777 15.2328Z" fill="#EE2523"/>
</svg>
