<svg width="64" height="64" viewBox="0 0 64 64" fill="none" xmlns="http://www.w3.org/2000/svg">
<path d="M32.0006 60.6666C16.1873 60.6666 3.33398 47.8133 3.33398 32C3.33398 16.1866 16.1873 3.33331 32.0006 3.33331C47.814 3.33331 60.6673 16.1866 60.6673 32C60.6673 47.8133 47.814 60.6666 32.0006 60.6666ZM32.0006 7.33331C18.4007 7.33331 7.33398 18.4 7.33398 32C7.33398 45.6 18.4007 56.6666 32.0006 56.6666C45.6006 56.6666 56.6673 45.6 56.6673 32C56.6673 18.4 45.6006 7.33331 32.0006 7.33331Z" fill="#EE2523"/>
<path d="M41.8924 42.48C41.5457 42.48 41.1991 42.4 40.8791 42.1867L32.6124 37.2533C30.5591 36.0267 29.0391 33.3333 29.0391 30.96V20.0267C29.0391 18.9333 29.9457 18.0267 31.0391 18.0267C32.1324 18.0267 33.0391 18.9333 33.0391 20.0267V30.96C33.0391 31.92 33.8391 33.3333 34.6657 33.8133L42.9324 38.7467C43.8924 39.3067 44.1857 40.5333 43.6257 41.4933C43.2257 42.1333 42.5591 42.48 41.8924 42.48Z" fill="#EE2523"/>
</svg>
