<svg width="24" height="24" viewBox="0 0 24 24" fill="none" xmlns="http://www.w3.org/2000/svg">
<path d="M1.25 15.24L1.25 8.76001C1.25 6.87001 2.04 5.49001 3.4 4.96001C4.82 4.41001 6.58 4.92 7.77 6.24001L12 10.88L16.23 6.24001C17.42 4.92001 19.18 4.41001 20.6 4.96001C21.97 5.49001 22.75 6.87001 22.75 8.76001L22.75 15.24C22.75 17.13 21.96 18.51 20.6 19.04C19.18 19.59 17.42 19.08 16.23 17.76L12 13.12L7.77 17.77C6.58 19.08 4.82 19.6 3.4 19.05C2.04 18.51 1.25 17.13 1.25 15.24ZM10.99 12L6.67 7.25001C5.9 6.41001 4.78 6.04001 3.95 6.36001C3.18 6.66001 2.75 7.51001 2.75 8.76001L2.75 15.24C2.75 16.49 3.17 17.34 3.95 17.64C4.78 17.96 5.9 17.6 6.67 16.75L10.99 12ZM21.25 8.76001C21.25 7.51001 20.83 6.66001 20.05 6.36001C19.22 6.04001 18.1 6.40001 17.33 7.25001L13.01 12L17.33 16.75C18.1 17.59 19.22 17.96 20.05 17.64C20.82 17.34 21.25 16.49 21.25 15.24L21.25 8.76001Z" fill="#292D32"/>
</svg>
