<svg width="23" height="22" viewBox="0 0 23 22" fill="none" xmlns="http://www.w3.org/2000/svg">
<path d="M5.48901 5.86761C5.48901 8.79838 8.26481 11.0499 11.4994 11.0499C14.734 11.0499 17.5098 8.79838 17.5098 5.86761C17.5098 2.93684 14.734 0.685303 11.4994 0.685303C8.26481 0.685303 5.48901 2.93684 5.48901 5.86761ZM7.92651 5.86761C7.92651 4.31151 9.45363 2.90677 11.4994 2.90677C13.5452 2.90677 15.0723 4.31151 15.0723 5.86761C15.0723 7.42372 13.5452 8.82845 11.4994 8.82845C9.45363 8.82845 7.92651 7.42372 7.92651 5.86761Z" fill="#EE2523" stroke="#EE2523"/>
<path d="M18.513 20.1862C18.513 20.8694 19.1421 21.2969 19.7317 21.2969C20.3214 21.2969 20.9505 20.8694 20.9505 20.1862C20.9505 18.2407 19.8267 16.5261 18.114 15.3182C16.3997 14.1091 14.0586 13.3752 11.4997 13.3752C8.94071 13.3752 6.59966 14.1091 4.88529 15.3182C3.1726 16.5261 2.04883 18.2407 2.04883 20.1862C2.04883 20.8694 2.67796 21.2969 3.26758 21.2969C3.85719 21.2969 4.48633 20.8694 4.48633 20.1862C4.48633 18.9975 5.19988 17.8623 6.47078 17.002C7.73864 16.1437 9.51647 15.5967 11.4997 15.5967C13.4828 15.5967 15.2607 16.1437 16.5285 17.002C17.7994 17.8623 18.513 18.9975 18.513 20.1862Z" fill="#EE2523" stroke="#EE2523"/>
</svg>
