<svg width="70" height="69" viewBox="0 0 70 69" fill="none" xmlns="http://www.w3.org/2000/svg">
<path d="M37.28 59.9725H19.8287C9.6225 59.9725 6 52.8137 6 46.1437V22.8562C6 12.9087 9.88125 9.02747 19.8287 9.02747H37.28C47.2275 9.02747 51.1088 12.9087 51.1088 22.8562V46.1437C51.1088 56.0912 47.2275 59.9725 37.28 59.9725ZM19.8287 13.3975C12.325 13.3975 10.37 15.3525 10.37 22.8562V46.1437C10.37 49.68 11.6063 55.6025 19.8287 55.6025H37.28C44.7837 55.6025 46.7388 53.6475 46.7388 46.1437V22.8562C46.7388 15.3525 44.7837 13.3975 37.28 13.3975H19.8287Z" fill="#EE2523"/>
<path d="M59.9926 52.0663C58.7563 52.0663 57.1751 51.6638 55.3638 50.3988L47.6876 45.0225C47.1126 44.62 46.7676 43.9588 46.7676 43.24V25.76C46.7676 25.0413 47.1126 24.38 47.6876 23.9775L55.3638 18.6013C58.7851 16.215 61.2863 16.905 62.4651 17.5088C63.6438 18.1413 65.6563 19.78 65.6563 23.9488V45.0225C65.6563 49.1913 63.6438 50.8588 62.4651 51.4625C61.9188 51.7788 61.0563 52.0663 59.9926 52.0663ZM51.1088 42.09L57.8651 46.805C59.1588 47.6963 60.0788 47.7825 60.4526 47.5813C60.8551 47.38 61.2863 46.575 61.2863 45.0225V23.9775C61.2863 22.3963 60.8263 21.62 60.4526 21.4188C60.0788 21.2175 59.1588 21.3038 57.8651 22.195L51.1088 26.91V42.09Z" fill="#EE2523"/>
<path d="M33.3125 33.7812C29.7475 33.7812 26.8438 30.8775 26.8438 27.3125C26.8438 23.7475 29.7475 20.8438 33.3125 20.8438C36.8775 20.8438 39.7812 23.7475 39.7812 27.3125C39.7812 30.8775 36.8775 33.7812 33.3125 33.7812ZM33.3125 25.1562C32.1337 25.1562 31.1562 26.1337 31.1562 27.3125C31.1562 28.4913 32.1337 29.4688 33.3125 29.4688C34.4913 29.4688 35.4688 28.4913 35.4688 27.3125C35.4688 26.1337 34.4913 25.1562 33.3125 25.1562Z" fill="#EE2523"/>
</svg>
