<svg width="65" height="64" viewBox="0 0 65 64" fill="none" xmlns="http://www.w3.org/2000/svg">
<path d="M32.6992 60.6667C30.8326 60.6667 28.9392 59.9467 27.5259 58.5334L22.9658 54.0267C21.8458 52.9067 20.2992 52.2933 18.7259 52.2933H16.6992C11.1792 52.2933 6.69922 47.8401 6.69922 42.3734V13.28C6.69922 7.8133 11.1792 3.36005 16.6992 3.36005H48.6992C54.2192 3.36005 58.6992 7.8133 58.6992 13.28V42.3734C58.6992 47.8401 54.2192 52.2933 48.6992 52.2933H46.6725C45.0992 52.2933 43.5526 52.9334 42.4326 54.0267L37.8726 58.5334C36.4592 59.9467 34.5659 60.6667 32.6992 60.6667ZM16.6992 7.33335C13.3926 7.33335 10.6992 9.99994 10.6992 13.2533V42.3467C10.6992 45.6267 13.3926 48.2666 16.6992 48.2666H18.7259C21.3659 48.2666 23.9258 49.3334 25.7925 51.1734L30.3525 55.68C31.6592 56.96 33.7659 56.96 35.0726 55.68L39.6325 51.1734C41.4992 49.3334 44.0592 48.2666 46.6992 48.2666H48.6992C52.0059 48.2666 54.6992 45.6 54.6992 42.3467V13.2533C54.6992 9.97328 52.0059 7.33335 48.6992 7.33335H16.6992Z" fill="#EE2523"/>
<path d="M32.6997 28.6668C28.1664 28.6668 24.4863 24.9868 24.4863 20.4535C24.4863 15.9201 28.1664 12.2402 32.6997 12.2402C37.233 12.2402 40.9131 15.9201 40.9131 20.4535C40.9131 24.9868 37.233 28.6668 32.6997 28.6668ZM32.6997 16.2402C30.3797 16.2402 28.4863 18.1335 28.4863 20.4535C28.4863 22.7735 30.3797 24.6668 32.6997 24.6668C35.0197 24.6668 36.9131 22.7735 36.9131 20.4535C36.9131 18.1335 35.0197 16.2402 32.6997 16.2402Z" fill="#EE2523"/>
<path d="M43.3665 43.7602C42.2732 43.7602 41.3665 42.8535 41.3665 41.7602C41.3665 38.0802 37.4732 35.067 32.6999 35.067C27.9265 35.067 24.0332 38.0802 24.0332 41.7602C24.0332 42.8535 23.1265 43.7602 22.0332 43.7602C20.9399 43.7602 20.0332 42.8535 20.0332 41.7602C20.0332 35.8669 25.7132 31.067 32.6999 31.067C39.6865 31.067 45.3665 35.8669 45.3665 41.7602C45.3665 42.8535 44.4599 43.7602 43.3665 43.7602Z" fill="#EE2523"/>
</svg>
