<svg width="18" height="38" viewBox="0 0 18 38" fill="none" xmlns="http://www.w3.org/2000/svg">
<path d="M10.915 6.66509L9.14262 7.34518V37.7148L10.915 6.66509ZM10.6859 6.66509L8.91918 7.34518H9.14262L10.6859 6.66509ZM1.53844 6.03736L0 6.73311V12.8538L1.53844 6.03736ZM11.2588 0L9.47779 0.846406L0 6.73311L11.2588 0ZM10.915 37.8119V6.66509L9.14262 37.7148L10.915 37.8119ZM10.915 6.66509H10.6859L9.14262 7.34518L10.915 6.66509ZM1.53844 12.3147V6.03736L0 12.8538L1.53844 12.3147ZM1.53844 6.03736L11.2588 0L0 6.73311L1.53844 6.03736Z" fill="#D6211F"/>
<path d="M17.9999 37.8119V0H11.2587L17.9999 37.8119ZM10.9149 6.66509V37.8119H17.9999L10.9149 6.66509ZM1.53833 6.03736V12.3147L10.6858 6.66509L1.53833 6.03736ZM10.9149 6.66509L17.9999 37.8119L11.2587 0L10.9149 6.66509ZM1.53833 6.03736L10.6858 6.66509H10.9149L1.53833 6.03736ZM10.9149 6.66509L11.2587 0L1.53833 6.03736L10.9149 6.66509Z" fill="#EE2523"/>
</svg>
