<svg width="40" height="40" viewBox="0 0 40 40" fill="none" xmlns="http://www.w3.org/2000/svg">
<path d="M24.0505 31.3666C23.7339 31.3666 23.4172 31.25 23.1672 31C22.6839 30.5166 22.6839 29.7166 23.1672 29.2333L32.4005 20L23.1672 10.7666C22.6839 10.2833 22.6839 9.48328 23.1672 8.99995C23.6505 8.51662 24.4505 8.51662 24.9339 8.99995L35.0505 19.1166C35.5339 19.6 35.5339 20.4 35.0505 20.8833L24.9339 31C24.6839 31.25 24.3672 31.3666 24.0505 31.3666Z" fill="#EE2523"/>
<path d="M33.882 21.25H5.83203C5.1487 21.25 4.58203 20.6833 4.58203 20C4.58203 19.3167 5.1487 18.75 5.83203 18.75H33.882C34.5654 18.75 35.132 19.3167 35.132 20C35.132 20.6833 34.5654 21.25 33.882 21.25Z" fill="#EE2523"/>
</svg>
