<svg width="79" height="78" viewBox="0 0 79 78" fill="none" xmlns="http://www.w3.org/2000/svg">
<path d="M44.125 54.4375H34.375C25.4375 54.4375 18.9375 47.9375 18.9375 39V22.49C18.9375 17.7125 22.8375 13.8125 27.615 13.8125H50.9175C55.695 13.8125 59.595 17.7125 59.595 22.49V39C59.5625 47.9375 53.0625 54.4375 44.125 54.4375ZM27.615 18.6875C25.535 18.6875 23.8125 20.3775 23.8125 22.49V39C23.8125 44.265 27.0625 49.5625 34.375 49.5625H44.125C51.4375 49.5625 54.6875 44.265 54.6875 39V22.49C54.6875 20.41 52.9975 18.6875 50.885 18.6875H27.615Z" fill="currentColor"/>
<path d="M31.125 18.6875C29.7925 18.6875 28.6875 17.5825 28.6875 16.25V6.5C28.6875 5.1675 29.7925 4.0625 31.125 4.0625C32.4575 4.0625 33.5625 5.1675 33.5625 6.5V16.25C33.5625 17.5825 32.4575 18.6875 31.125 18.6875Z" fill="currentColor"/>
<path d="M47.375 18.6875C46.0425 18.6875 44.9375 17.5825 44.9375 16.25V6.5C44.9375 5.1675 46.0425 4.0625 47.375 4.0625C48.7075 4.0625 49.8125 5.1675 49.8125 6.5V16.25C49.8125 17.5825 48.7075 18.6875 47.375 18.6875Z" fill="currentColor"/>
<path d="M39.25 73.9375C37.9175 73.9375 36.8125 72.8325 36.8125 71.5V52C36.8125 50.6675 37.9175 49.5625 39.25 49.5625C40.5825 49.5625 41.6875 50.6675 41.6875 52V71.5C41.6875 72.8325 40.5825 73.9375 39.25 73.9375Z" fill="currentColor"/>
</svg>
