<svg width="25" height="24" viewBox="0 0 25 24" fill="none" xmlns="http://www.w3.org/2000/svg">
<path d="M13.05 20.59C12.26 20.59 11.39 20.31 10.52 19.76L7.6 17.93C7.4 17.81 7.17 17.74 6.94 17.74H5.5C3.08 17.74 1.75 16.41 1.75 13.99V9.98998C1.75 7.56998 3.08 6.23998 5.5 6.23998H6.93C7.16 6.23998 7.39 6.16998 7.59 6.04998L10.51 4.21998C11.97 3.30998 13.39 3.13998 14.51 3.75998C15.63 4.37998 16.24 5.66998 16.24 7.39998V16.57C16.24 18.29 15.62 19.59 14.51 20.21C14.07 20.47 13.57 20.59 13.05 20.59ZM5.5 7.74998C3.92 7.74998 3.25 8.41998 3.25 9.99998V14C3.25 15.58 3.92 16.25 5.5 16.25H6.93C7.45 16.25 7.95 16.39 8.39 16.67L11.31 18.5C12.27 19.1 13.18 19.26 13.79 18.92C14.4 18.58 14.75 17.73 14.75 16.6V7.40998C14.75 6.26998 14.4 5.41998 13.79 5.08998C13.18 4.74998 12.27 4.89998 11.31 5.50998L8.38 7.32998C7.95 7.60998 7.44 7.74998 6.93 7.74998H5.5Z" fill="#1F1F1F"/>
<path d="M13.05 20.59C12.26 20.59 11.39 20.31 10.52 19.76L7.6 17.93C7.4 17.81 7.17 17.74 6.94 17.74H5.5C3.08 17.74 1.75 16.41 1.75 13.99V9.98998C1.75 7.56998 3.08 6.23998 5.5 6.23998H6.93C7.16 6.23998 7.39 6.16998 7.59 6.04998L10.51 4.21998C11.97 3.30998 13.39 3.13998 14.51 3.75998C15.63 4.37998 16.24 5.66998 16.24 7.39998V16.57C16.24 18.29 15.62 19.59 14.51 20.21C14.07 20.47 13.57 20.59 13.05 20.59ZM5.5 7.74998C3.92 7.74998 3.25 8.41998 3.25 9.99998V14C3.25 15.58 3.92 16.25 5.5 16.25H6.93C7.45 16.25 7.95 16.39 8.39 16.67L11.31 18.5C12.27 19.1 13.18 19.26 13.79 18.92C14.4 18.58 14.75 17.73 14.75 16.6V7.40998C14.75 6.26998 14.4 5.41998 13.79 5.08998C13.18 4.74998 12.27 4.89998 11.31 5.50998L8.38 7.32998C7.95 7.60998 7.44 7.74998 6.93 7.74998H5.5Z" fill="black" fill-opacity="0.2"/>
<path d="M18.5003 16.75C18.3403 16.75 18.1903 16.7 18.0503 16.6C17.7203 16.35 17.6503 15.88 17.9003 15.55C19.4703 13.46 19.4703 10.54 17.9003 8.45003C17.6503 8.12003 17.7203 7.65003 18.0503 7.40003C18.3803 7.15003 18.8503 7.22003 19.1003 7.55003C21.0603 10.17 21.0603 13.83 19.1003 16.45C18.9503 16.65 18.7303 16.75 18.5003 16.75Z" fill="#1F1F1F"/>
<path d="M18.5003 16.75C18.3403 16.75 18.1903 16.7 18.0503 16.6C17.7203 16.35 17.6503 15.88 17.9003 15.55C19.4703 13.46 19.4703 10.54 17.9003 8.45003C17.6503 8.12003 17.7203 7.65003 18.0503 7.40003C18.3803 7.15003 18.8503 7.22003 19.1003 7.55003C21.0603 10.17 21.0603 13.83 19.1003 16.45C18.9503 16.65 18.7303 16.75 18.5003 16.75Z" fill="black" fill-opacity="0.2"/>
<path d="M20.3304 19.25C20.1704 19.25 20.0204 19.2 19.8804 19.1C19.5504 18.85 19.4804 18.38 19.7304 18.05C22.4004 14.49 22.4004 9.51003 19.7304 5.95003C19.4804 5.62003 19.5504 5.15003 19.8804 4.90003C20.2104 4.65003 20.6804 4.72003 20.9304 5.05003C24.0004 9.14003 24.0004 14.86 20.9304 18.95C20.7904 19.15 20.5604 19.25 20.3304 19.25Z" fill="#1F1F1F"/>
<path d="M20.3304 19.25C20.1704 19.25 20.0204 19.2 19.8804 19.1C19.5504 18.85 19.4804 18.38 19.7304 18.05C22.4004 14.49 22.4004 9.51003 19.7304 5.95003C19.4804 5.62003 19.5504 5.15003 19.8804 4.90003C20.2104 4.65003 20.6804 4.72003 20.9304 5.05003C24.0004 9.14003 24.0004 14.86 20.9304 18.95C20.7904 19.15 20.5604 19.25 20.3304 19.25Z" fill="black" fill-opacity="0.2"/>
</svg>
