<svg width="30" height="61" viewBox="0 0 30 61" fill="none" xmlns="http://www.w3.org/2000/svg">
<path d="M0 61V46.848V0H30V46.848V61L15.4839 46.848L0 61Z" fill="#EE2523"/>
<path d="M16.1406 29.2727V28.5057C16.1406 27.9233 16.2637 27.3883 16.5099 26.9006C16.7609 26.4081 17.1231 26.0152 17.5966 25.7216C18.0748 25.4233 18.6572 25.2741 19.3438 25.2741C20.0398 25.2741 20.6245 25.4209 21.098 25.7145C21.5762 26.008 21.9361 26.401 22.1776 26.8935C22.4238 27.3812 22.5469 27.9186 22.5469 28.5057V29.2727C22.5469 29.8551 22.4238 30.3925 22.1776 30.8849C21.9313 31.3726 21.5691 31.7633 21.0909 32.0568C20.6127 32.3551 20.0303 32.5043 19.3438 32.5043C18.6477 32.5043 18.063 32.3551 17.5895 32.0568C17.116 31.7633 16.7562 31.3726 16.5099 30.8849C16.2637 30.3925 16.1406 29.8551 16.1406 29.2727ZM18.2074 28.5057V29.2727C18.2074 29.6089 18.2879 29.9261 18.4489 30.2244C18.6146 30.5227 18.9129 30.6719 19.3438 30.6719C19.7746 30.6719 20.0682 30.5251 20.2244 30.2315C20.3854 29.938 20.4659 29.6184 20.4659 29.2727V28.5057C20.4659 28.16 20.3902 27.8381 20.2386 27.5398C20.0871 27.2415 19.7888 27.0923 19.3438 27.0923C18.9176 27.0923 18.6217 27.2415 18.456 27.5398C18.2902 27.8381 18.2074 28.16 18.2074 28.5057ZM8.67614 20.9489V20.1818C8.67614 19.5947 8.80161 19.0573 9.05256 18.5696C9.3035 18.0772 9.66572 17.6842 10.1392 17.3906C10.6174 17.0971 11.1951 16.9503 11.8722 16.9503C12.5729 16.9503 13.16 17.0971 13.6335 17.3906C14.107 17.6842 14.4669 18.0772 14.7131 18.5696C14.9593 19.0573 15.0824 19.5947 15.0824 20.1818V20.9489C15.0824 21.536 14.9569 22.0734 14.706 22.5611C14.4598 23.0488 14.0975 23.4394 13.6193 23.733C13.1458 24.0218 12.5634 24.1662 11.8722 24.1662C11.1809 24.1662 10.5961 24.0194 10.1179 23.7259C9.64441 23.4276 9.28456 23.0369 9.03835 22.554C8.79688 22.0663 8.67614 21.5312 8.67614 20.9489ZM10.7571 20.1818V20.9489C10.7571 21.2945 10.8376 21.6141 10.9986 21.9077C11.1643 22.2012 11.4555 22.348 11.8722 22.348C12.3078 22.348 12.6037 22.2012 12.7599 21.9077C12.9209 21.6141 13.0014 21.2945 13.0014 20.9489V20.1818C13.0014 19.8362 12.9257 19.5142 12.7741 19.2159C12.6226 18.9176 12.322 18.7685 11.8722 18.7685C11.4508 18.7685 11.1596 18.92 10.9986 19.223C10.8376 19.526 10.7571 19.8456 10.7571 20.1818ZM9.61364 32L19.6136 17.4545H21.4744L11.4744 32H9.61364Z" fill="white"/>
</svg>
