<svg width="91" height="75" viewBox="0 0 91 75" fill="none" xmlns="http://www.w3.org/2000/svg">
<path d="M49.9362 51.1022H18.3138C6.99563 51.1022 3.55469 47.6613 3.55469 36.3431V18.3138C3.55469 6.99563 6.99563 3.55469 18.3138 3.55469H49.9078C61.2259 3.55469 64.6669 6.99563 64.6669 18.3138V36.3147C64.6953 47.6613 61.2544 51.1022 49.9362 51.1022ZM18.3138 7.82031C9.38438 7.82031 7.82031 9.38438 7.82031 18.3138V36.3147C7.82031 45.2441 9.38438 46.8081 18.3138 46.8081H49.9078C58.8372 46.8081 60.4012 45.2441 60.4012 36.3147V18.3138C60.4012 9.38438 58.8372 7.82031 49.9078 7.82031H18.3138Z" fill="#EE2523"/>
<path d="M34.125 64.6953C32.9591 64.6953 31.9922 63.7284 31.9922 62.5625V48.9694C31.9922 47.8034 32.9591 46.8365 34.125 46.8365C35.2909 46.8365 36.2578 47.8034 36.2578 48.9694V62.5625C36.2578 63.7284 35.2909 64.6953 34.125 64.6953Z" fill="#EE2523"/>
<path d="M62.5625 39.1016H5.6875C4.52156 39.1016 3.55469 38.1347 3.55469 36.9688C3.55469 35.8028 4.52156 34.8359 5.6875 34.8359H62.5625C63.7284 34.8359 64.6953 35.8028 64.6953 36.9688C64.6953 38.1347 63.7284 39.1016 62.5625 39.1016Z" fill="#EE2523"/>
<path d="M46.9219 64.6953H21.3281C20.1622 64.6953 19.1953 63.7284 19.1953 62.5625C19.1953 61.3966 20.1622 60.4297 21.3281 60.4297H46.9219C48.0878 60.4297 49.0547 61.3966 49.0547 62.5625C49.0547 63.7284 48.0878 64.6953 46.9219 64.6953Z" fill="#EE2523"/>
<path d="M49.3861 60.7477H75.7382C80.4575 60.7477 83.5693 60.032 85.4926 58.1026C87.4159 56.1733 88.1256 53.0557 88.1137 48.3245V33.324C88.1137 28.6047 87.398 25.493 85.4718 23.5668C83.5455 21.6405 80.4339 20.9248 75.7145 20.9248H49.3861C44.6668 20.9248 41.5551 21.6405 39.6289 23.5668C37.7027 25.493 36.9869 28.6047 36.9869 33.324V48.3485C36.9869 53.0678 37.7027 56.1795 39.6289 58.1057C41.5551 60.032 44.6668 60.7477 49.3861 60.7477ZM40.7416 33.324C40.7416 31.4652 40.8231 29.9968 41.0595 28.8384C41.2957 27.6812 41.6848 26.8414 42.2941 26.232C42.9035 25.6226 43.7433 25.2335 44.9006 24.9974C46.0589 24.761 47.5273 24.6795 49.3861 24.6795H75.7145C77.5733 24.6795 79.0417 24.761 80.2001 24.9974C81.3573 25.2335 82.1971 25.6226 82.8065 26.232C83.4159 26.8414 83.805 27.6812 84.0411 28.8384C84.2775 29.9968 84.3591 31.4652 84.3591 33.324V48.3248C84.3591 50.1836 84.2775 51.652 84.0411 52.8104C83.805 53.9676 83.4159 54.8074 82.8065 55.4168C82.1971 56.0261 81.3573 56.4153 80.2001 56.6514C79.0417 56.8878 77.5733 56.9693 75.7145 56.9693H49.3861C47.5273 56.9693 46.0589 56.8878 44.9006 56.6514C43.7433 56.4153 42.9035 56.0261 42.2941 55.4168C41.6848 54.8074 41.2957 53.9676 41.0595 52.8104C40.8231 51.652 40.7416 50.1836 40.7416 48.3248V33.324Z" fill="#EE2523" stroke="#EE2523" stroke-width="0.2"/>
<path d="M60.6852 70.198C60.6852 71.2248 61.5357 72.0753 62.5625 72.0753C63.5893 72.0753 64.4398 71.2248 64.4398 70.198V58.8704C64.4398 57.8435 63.5893 56.993 62.5625 56.993C61.5357 56.993 60.6852 57.8435 60.6852 58.8704V70.198Z" fill="#EE2523" stroke="#EE2523" stroke-width="0.2"/>
<path d="M38.8643 50.7471H86.2601C87.2869 50.7471 88.1374 49.8966 88.1374 48.8698C88.1374 47.8429 87.2869 46.9924 86.2601 46.9924H38.8643C37.8374 46.9924 36.9869 47.8429 36.9869 48.8698C36.9869 49.8966 37.8374 50.7471 38.8643 50.7471Z" fill="#EE2523" stroke="#EE2523" stroke-width="0.2"/>
<path d="M51.8984 72.0752H73.2266C74.2534 72.0752 75.1039 71.2247 75.1039 70.1979C75.1039 69.171 74.2534 68.3205 73.2266 68.3205H51.8984C50.8716 68.3205 50.0211 69.171 50.0211 70.1979C50.0211 71.2247 50.8716 72.0752 51.8984 72.0752Z" fill="#EE2523" stroke="#EE2523" stroke-width="0.2"/>
<rect x="40" y="24" width="45" height="33" rx="6" fill="#F5F5F5"/>
</svg>
