<svg width="24" height="24" viewBox="0 0 24 24" fill="none" xmlns="http://www.w3.org/2000/svg">
<path d="M15 22.75H9C3.57 22.75 1.25 20.43 1.25 15V9C1.25 3.57 3.57 1.25 9 1.25H15C20.43 1.25 22.75 3.57 22.75 9V15C22.75 20.43 20.43 22.75 15 22.75ZM9 2.75C4.39 2.75 2.75 4.39 2.75 9V15C2.75 19.61 4.39 21.25 9 21.25H15C19.61 21.25 21.25 19.61 21.25 15V9C21.25 4.39 19.61 2.75 15 2.75H9Z" fill="#292D32"/>
<path d="M8.81023 18.25C8.74023 18.25 8.66023 18.25 8.59023 18.23L7.40023 18.07C6.68023 17.97 6.05023 17.35 5.94023 16.61L5.77023 15.4C5.70023 14.92 5.90023 14.31 6.25023 13.95L8.53023 11.67C8.19023 10.05 8.68023 8.37001 9.87023 7.19001C11.7802 5.28001 14.9002 5.28001 16.8102 7.19001C17.7402 8.12001 18.2502 9.35001 18.2502 10.66C18.2502 11.97 17.7402 13.21 16.8102 14.13C15.6202 15.31 13.9402 15.8 12.3302 15.46L10.0402 17.74C9.75023 18.05 9.26023 18.25 8.81023 18.25ZM13.3402 7.25001C12.4702 7.25001 11.5902 7.58001 10.9302 8.25001C10.0302 9.15001 9.71023 10.46 10.0802 11.68C10.1602 11.95 10.0902 12.23 9.89023 12.43L7.31023 15.01C7.29023 15.04 7.25023 15.15 7.25023 15.19L7.42023 16.39C7.43023 16.45 7.54023 16.56 7.60023 16.57L8.80023 16.74C8.85023 16.73 8.95023 16.71 8.98023 16.68L11.5702 14.09C11.7702 13.89 12.0602 13.83 12.3202 13.91C13.5302 14.29 14.8402 13.97 15.7402 13.07C16.3802 12.43 16.7402 11.57 16.7402 10.66C16.7402 9.75001 16.3902 8.89001 15.7402 8.25001C15.0902 7.59001 14.2102 7.25001 13.3402 7.25001Z" fill="#292D32"/>
<path d="M10.4498 17.03C10.2598 17.03 10.0698 16.96 9.91978 16.81L9.05979 15.95C8.76979 15.66 8.76979 15.18 9.05979 14.89C9.34979 14.6 9.82978 14.6 10.1198 14.89L10.9798 15.75C11.2698 16.04 11.2698 16.52 10.9798 16.81C10.8398 16.96 10.6498 17.03 10.4498 17.03Z" fill="#292D32"/>
<path d="M13.3801 11.8C13.2401 11.8 13.1101 11.78 12.9901 11.73C12.8701 11.68 12.7601 11.6 12.6701 11.51C12.4801 11.32 12.3701 11.07 12.3701 10.8C12.3701 10.54 12.4801 10.28 12.6701 10.1C12.9001 9.85999 13.2501 9.74999 13.5701 9.81999C13.6301 9.83999 13.7001 9.84999 13.7601 9.87999C13.8201 9.90999 13.8801 9.93999 13.9301 9.96999C13.9801 10.01 14.0401 10.05 14.0801 10.1C14.2701 10.28 14.3801 10.54 14.3801 10.8C14.3801 10.94 14.3501 11.06 14.3001 11.19C14.2501 11.31 14.1801 11.42 14.0801 11.51C13.8901 11.7 13.6401 11.8 13.3801 11.8Z" fill="#292D32"/>
</svg>
