<svg width="32" height="32" viewBox="0 0 32 32" fill="none" xmlns="http://www.w3.org/2000/svg">
<path d="M16.0002 30.3333C9.0135 30.3333 3.3335 24.6533 3.3335 17.6667C3.3335 10.68 9.0135 5 16.0002 5C22.9868 5 28.6668 10.68 28.6668 17.6667C28.6668 24.6533 22.9868 30.3333 16.0002 30.3333ZM16.0002 7C10.1202 7 5.3335 11.7867 5.3335 17.6667C5.3335 23.5467 10.1202 28.3333 16.0002 28.3333C21.8802 28.3333 26.6668 23.5467 26.6668 17.6667C26.6668 11.7867 21.8802 7 16.0002 7Z" fill="#EE2523"/>
<path d="M16 18.3333C15.4533 18.3333 15 17.88 15 17.3333V10.6666C15 10.12 15.4533 9.66663 16 9.66663C16.5467 9.66663 17 10.12 17 10.6666V17.3333C17 17.88 16.5467 18.3333 16 18.3333Z" fill="#EE2523"/>
<path d="M20 3.66663H12C11.4533 3.66663 11 3.21329 11 2.66663C11 2.11996 11.4533 1.66663 12 1.66663H20C20.5467 1.66663 21 2.11996 21 2.66663C21 3.21329 20.5467 3.66663 20 3.66663Z" fill="#EE2523"/>
</svg>
