<svg width="64" height="64" viewBox="0 0 64 64" fill="none" xmlns="http://www.w3.org/2000/svg">
<path d="M32.0006 60.6666C16.1873 60.6666 3.33398 47.8133 3.33398 32C3.33398 16.1866 16.1873 3.33331 32.0006 3.33331C47.814 3.33331 60.6673 16.1866 60.6673 32C60.6673 33.0933 59.7606 34 58.6673 34C57.574 34 56.6673 33.0933 56.6673 32C56.6673 18.4 45.6006 7.33331 32.0006 7.33331C18.4007 7.33331 7.33398 18.4 7.33398 32C7.33398 45.6 18.4007 56.6666 32.0006 56.6666C33.094 56.6666 34.0006 57.5733 34.0006 58.6666C34.0006 59.76 33.094 60.6666 32.0006 60.6666Z" fill="#EE2523"/>
<path d="M24.0006 58H21.3339C20.2406 58 19.3339 57.0933 19.3339 56C19.3339 54.9067 20.1873 54.0267 21.2806 54C17.094 39.7067 17.094 24.2933 21.2806 10C20.214 9.97333 19.3339 9.09333 19.3339 8C19.3339 6.90667 20.2406 6 21.3339 6H24.0006C24.6406 6 25.2539 6.31999 25.6272 6.82666C26.0006 7.35999 26.1072 8.02664 25.8939 8.63997C20.8806 23.7066 20.8806 40.3201 25.8939 55.3867C26.1072 56.0001 26.0006 56.6667 25.6272 57.2C25.2539 57.7334 24.6406 58 24.0006 58Z" fill="#EE2523"/>
<path d="M43.8931 34.0001C42.7998 34.0001 41.8931 33.0934 41.8931 32.0001C41.8931 24.0534 40.6132 16.1867 38.1065 8.64006C37.7599 7.60006 38.3199 6.45336 39.3599 6.10669C40.3999 5.76003 41.5465 6.32011 41.8931 7.36011C44.5331 15.3068 45.8931 23.6001 45.8931 32.0001C45.8931 33.0934 44.9865 34.0001 43.8931 34.0001Z" fill="#EE2523"/>
<path d="M32 45.8934C24.5333 45.8934 17.1467 44.8267 10 42.72C9.97333 43.7867 9.09333 44.6666 8 44.6666C6.90667 44.6666 6 43.76 6 42.6666V40C6 39.36 6.31999 38.7467 6.82666 38.3733C7.33333 38 8.02664 37.8932 8.63997 38.1066C16.1866 40.6132 24.0533 41.8934 32 41.8934C33.0933 41.8934 34 42.8 34 43.8934C34 44.9867 33.0933 45.8934 32 45.8934Z" fill="#EE2523"/>
<path d="M56.0011 26C55.7878 26 55.5745 25.9734 55.3612 25.8934C40.2945 20.8801 23.6812 20.8801 8.6145 25.8934C7.5745 26.2401 6.4278 25.68 6.08113 24.64C5.73446 23.6 6.29447 22.4533 7.33447 22.1066C23.2278 16.8 40.7211 16.8 56.5878 22.1066C57.6278 22.4533 58.1878 23.6 57.8411 24.64C57.6278 25.4667 56.8278 26 56.0011 26Z" fill="#EE2523"/>
<path d="M48.6941 60.6667C42.0808 60.6667 36.7207 55.28 36.7207 48.6934C36.7207 42.1067 42.1074 36.6934 48.6941 36.6934C50.0274 36.6934 51.3608 36.8799 52.6141 37.2799C53.6808 37.5999 54.2674 38.72 53.9474 39.7866C53.6274 40.8533 52.5074 41.44 51.4408 41.12C50.5608 40.8533 49.6274 40.7201 48.6941 40.7201C44.2941 40.7201 40.7207 44.2934 40.7207 48.7201C40.7207 53.1467 44.2941 56.6934 48.6941 56.6934C53.0941 56.6934 56.6674 53.1201 56.6674 48.7201C56.6674 47.1201 56.2141 45.6 55.3341 44.2933C54.7207 43.3866 54.9607 42.1334 55.894 41.52C56.8007 40.9067 58.0541 41.1467 58.6674 42.0801C60.0007 44.0534 60.6941 46.3734 60.6941 48.7467C60.6674 55.2801 55.2808 60.6667 48.6941 60.6667Z" fill="#EE2523"/>
<path d="M53.44 41.4668C52.88 41.4668 52.32 41.2267 51.92 40.7734L48.5867 36.9601C47.8667 36.1334 47.9467 34.8534 48.7734 34.1334C49.6 33.4134 50.8533 33.4934 51.6 34.3201L54.9333 38.1334C55.6533 38.9601 55.5733 40.2401 54.7467 40.9601C54.3733 41.3067 53.92 41.4668 53.44 41.4668Z" fill="#EE2523"/>
<path d="M49.5474 44.2933C48.934 44.2933 48.3207 44 47.9207 43.4666C47.2807 42.5866 47.4674 41.3333 48.3474 40.6667L52.2407 37.84C53.1207 37.1734 54.3741 37.3866 55.0408 38.2666C55.6808 39.1466 55.4941 40.4001 54.6141 41.0667L50.7207 43.8934C50.374 44.1601 49.974 44.2933 49.5474 44.2933Z" fill="#EE2523"/>
</svg>
