<svg width="25" height="24" viewBox="0 0 25 24" fill="none" xmlns="http://www.w3.org/2000/svg">
<path d="M15.5 22.75H9.5C5.09 22.75 3.75 21.41 3.75 17V7C3.75 2.59 5.09 1.25 9.5 1.25H15.5C19.91 1.25 21.25 2.59 21.25 7V17C21.25 21.41 19.91 22.75 15.5 22.75ZM9.5 2.75C5.92 2.75 5.25 3.43 5.25 7V17C5.25 20.57 5.92 21.25 9.5 21.25H15.5C19.08 21.25 19.75 20.57 19.75 17V7C19.75 3.43 19.08 2.75 15.5 2.75H9.5Z" fill="#1F1F1F"/>
<path d="M15.5 22.75H9.5C5.09 22.75 3.75 21.41 3.75 17V7C3.75 2.59 5.09 1.25 9.5 1.25H15.5C19.91 1.25 21.25 2.59 21.25 7V17C21.25 21.41 19.91 22.75 15.5 22.75ZM9.5 2.75C5.92 2.75 5.25 3.43 5.25 7V17C5.25 20.57 5.92 21.25 9.5 21.25H15.5C19.08 21.25 19.75 20.57 19.75 17V7C19.75 3.43 19.08 2.75 15.5 2.75H9.5Z" fill="black" fill-opacity="0.2"/>
<path d="M14.5 6.25H10.5C10.09 6.25 9.75 5.91 9.75 5.5C9.75 5.09 10.09 4.75 10.5 4.75H14.5C14.91 4.75 15.25 5.09 15.25 5.5C15.25 5.91 14.91 6.25 14.5 6.25Z" fill="#1F1F1F"/>
<path d="M14.5 6.25H10.5C10.09 6.25 9.75 5.91 9.75 5.5C9.75 5.09 10.09 4.75 10.5 4.75H14.5C14.91 4.75 15.25 5.09 15.25 5.5C15.25 5.91 14.91 6.25 14.5 6.25Z" fill="black" fill-opacity="0.2"/>
<path d="M12.4992 19.86C11.2292 19.86 10.1992 18.83 10.1992 17.56C10.1992 16.29 11.2292 15.26 12.4992 15.26C13.7692 15.26 14.7992 16.29 14.7992 17.56C14.7992 18.83 13.7692 19.86 12.4992 19.86ZM12.4992 16.75C12.0592 16.75 11.6992 17.11 11.6992 17.55C11.6992 17.99 12.0592 18.35 12.4992 18.35C12.9392 18.35 13.2992 17.99 13.2992 17.55C13.2992 17.11 12.9392 16.75 12.4992 16.75Z" fill="#1F1F1F"/>
<path d="M12.4992 19.86C11.2292 19.86 10.1992 18.83 10.1992 17.56C10.1992 16.29 11.2292 15.26 12.4992 15.26C13.7692 15.26 14.7992 16.29 14.7992 17.56C14.7992 18.83 13.7692 19.86 12.4992 19.86ZM12.4992 16.75C12.0592 16.75 11.6992 17.11 11.6992 17.55C11.6992 17.99 12.0592 18.35 12.4992 18.35C12.9392 18.35 13.2992 17.99 13.2992 17.55C13.2992 17.11 12.9392 16.75 12.4992 16.75Z" fill="black" fill-opacity="0.2"/>
</svg>
