<svg width="64" height="64" viewBox="0 0 64 64" fill="none" xmlns="http://www.w3.org/2000/svg">
<path d="M16.4804 60.6667C16.2137 60.6667 15.9204 60.64 15.6804 60.6133L9.8937 59.8133C7.12037 59.44 4.6137 56.96 4.18703 54.1333L3.38703 48.2933C3.12036 46.4267 3.92036 44 5.2537 42.64L16.9604 30.9333C15.067 23.36 17.2537 15.36 22.827 9.84C31.467 1.22667 45.5204 1.2 54.187 9.84C58.3737 14.0267 60.667 19.6 60.667 25.52C60.667 31.44 58.3737 37.0133 54.187 41.2C48.587 46.7467 40.6137 48.9333 33.0937 47.0133L21.3604 58.72C20.2404 59.8933 18.2404 60.6667 16.4804 60.6667ZM38.4804 7.36C33.8137 7.36 29.1737 9.12 25.627 12.6667C20.827 17.44 19.0937 24.4267 21.0937 30.9333C21.307 31.6533 21.1204 32.4 20.587 32.9333L8.0537 45.4667C7.60036 45.92 7.22703 47.0933 7.30703 47.7067L8.10703 53.5467C8.26703 54.56 9.36037 55.7067 10.3737 55.84L16.187 56.64C16.827 56.7467 18.0004 56.3733 18.4537 55.92L31.0404 43.36C31.5737 42.8267 32.347 42.6667 33.0404 42.88C39.467 44.9067 46.4804 43.1733 51.2804 38.3733C54.6937 34.96 56.587 30.3733 56.587 25.52C56.587 20.64 54.6937 16.08 51.2804 12.6667C47.8137 9.14667 43.147 7.36 38.4804 7.36Z" fill="#EE2523"/>
<path d="M24.5075 54.7733C24.0009 54.7733 23.4942 54.5867 23.0942 54.1867L16.9609 48.0533C16.1875 47.28 16.1875 46 16.9609 45.2267C17.7342 44.4533 19.0142 44.4533 19.7875 45.2267L25.9209 51.36C26.6942 52.1333 26.6942 53.4133 25.9209 54.1867C25.5209 54.5867 25.0142 54.7733 24.5075 54.7733Z" fill="#EE2523"/>
<path d="M38.666 31.3333C35.3593 31.3333 32.666 28.64 32.666 25.3333C32.666 22.0266 35.3593 19.3333 38.666 19.3333C41.9727 19.3333 44.666 22.0266 44.666 25.3333C44.666 28.64 41.9727 31.3333 38.666 31.3333ZM38.666 23.3333C37.5727 23.3333 36.666 24.24 36.666 25.3333C36.666 26.4266 37.5727 27.3333 38.666 27.3333C39.7593 27.3333 40.666 26.4266 40.666 25.3333C40.666 24.24 39.7593 23.3333 38.666 23.3333Z" fill="#EE2523"/>
</svg>
