<svg width="24" height="23" viewBox="0 0 24 23" fill="none" xmlns="http://www.w3.org/2000/svg">
<path d="M17.56 16.97H6.44C2.46 16.97 1.25 15.76 1.25 11.78V5.44C1.25 1.46 2.46 0.25 6.44 0.25H8C8.41 0.25 8.75 0.59 8.75 1C8.75 1.41 8.41 1.75 8 1.75H6.44C3.3 1.75 2.75 2.3 2.75 5.44V11.77C2.75 14.91 3.3 15.46 6.44 15.46H17.55C20.69 15.46 21.24 14.91 21.24 11.77V10.88C21.24 10.47 21.58 10.13 21.99 10.13C22.4 10.13 22.74 10.47 22.74 10.88V11.77C22.75 15.76 21.54 16.97 17.56 16.97Z" fill="#292D32"/>
<path d="M12 21.75C11.59 21.75 11.25 21.41 11.25 21V16.22C11.25 15.81 11.59 15.47 12 15.47C12.41 15.47 12.75 15.81 12.75 16.22V21C12.75 21.41 12.41 21.75 12 21.75Z" fill="#292D32"/>
<path d="M22 12.75H2C1.59 12.75 1.25 12.41 1.25 12C1.25 11.59 1.59 11.25 2 11.25H22C22.41 11.25 22.75 11.59 22.75 12C22.75 12.41 22.41 12.75 22 12.75Z" fill="#292D32"/>
<path d="M16.5 21.75H7.5C7.09 21.75 6.75 21.41 6.75 21C6.75 20.59 7.09 20.25 7.5 20.25H16.5C16.91 20.25 17.25 20.59 17.25 21C17.25 21.41 16.91 21.75 16.5 21.75Z" fill="#292D32"/>
<path d="M13.2649 0.677312L13.2649 0.677311L13.2644 0.677559C12.708 0.947661 12.3549 1.44028 12.3549 2.00416V5.99166C12.3549 6.55932 12.7026 7.04819 13.2649 7.31852C13.5455 7.45341 13.8477 7.52083 14.1549 7.52083C14.4618 7.52083 14.7644 7.45352 15.0457 7.31395L19.1898 5.3227L19.1904 5.32244C19.7468 5.05234 20.0999 4.55971 20.0999 3.99583C20.0999 3.43195 19.7468 2.93933 19.1904 2.66922L19.1898 2.66896L15.0454 0.677559C15.0453 0.677515 15.0452 0.677471 15.0451 0.677427C14.4886 0.407384 13.8257 0.407703 13.2649 0.677312ZM14.5399 6.50646L14.5399 6.50646L14.5388 6.50702C14.302 6.62328 14.0106 6.62078 13.7702 6.50663C13.531 6.38886 13.4049 6.19368 13.4049 5.99166V2.00416C13.4049 1.80216 13.531 1.60698 13.7702 1.4892C13.8889 1.43285 14.0214 1.40417 14.1549 1.40417C14.2859 1.40417 14.4189 1.43595 14.5402 1.49366C14.5402 1.49369 14.5403 1.49373 14.5404 1.49376L18.6838 3.48464C18.6839 3.48473 18.6841 3.48482 18.6843 3.48491C18.9237 3.60267 19.0499 3.79792 19.0499 4C19.0499 4.20208 18.9237 4.39732 18.6843 4.51508C18.6841 4.51517 18.6839 4.51526 18.6838 4.51535L14.5399 6.50646Z" fill="#292D32" stroke="black" stroke-width="0.3"/>
<path d="M20.5951 6.57504C20.5951 6.85316 20.859 7.03754 21.1201 7.03754C21.3876 7.03754 21.6451 6.852 21.6451 6.57504V1.42505C21.6451 1.14693 21.3812 0.962549 21.1201 0.962549C20.859 0.962549 20.5951 1.14693 20.5951 1.42505V6.57504Z" fill="#292D32" stroke="black" stroke-width="0.3"/>
</svg>
