<svg width="73" height="72" viewBox="0 0 73 72" fill="none" xmlns="http://www.w3.org/2000/svg">
<path d="M30.75 53.1H19.38C7.98 53.1 4.5 49.62 4.5 38.22V20.22C4.5 8.81997 7.98 5.33997 19.38 5.33997H50.97C62.37 5.33997 65.85 8.81997 65.85 20.22C65.85 21.45 64.83 22.47 63.6 22.47C62.37 22.47 61.35 21.45 61.35 20.22C61.35 11.4 59.79 9.83997 50.97 9.83997H19.38C10.56 9.83997 9 11.4 9 20.22V38.22C9 47.04 10.56 48.6 19.38 48.6H30.75C31.98 48.6 33 49.62 33 50.85C33 52.08 31.98 53.1 30.75 53.1Z" fill="#EE2523"/>
<path d="M30.75 66.6599C29.52 66.6599 28.5 65.6399 28.5 64.4099V50.8199C28.5 49.5899 29.52 48.5699 30.75 48.5699C31.98 48.5699 33 49.5899 33 50.8199V64.4099C33 65.6699 31.98 66.6599 30.75 66.6599Z" fill="#EE2523"/>
<path d="M30.75 41.1H6.75C5.52 41.1 4.5 40.08 4.5 38.85C4.5 37.62 5.52 36.6 6.75 36.6H30.75C31.98 36.6 33 37.62 33 38.85C33 40.08 31.98 41.1 30.75 41.1Z" fill="#EE2523"/>
<path d="M30.7497 66.66H20.9697C19.7397 66.66 18.7197 65.64 18.7197 64.41C18.7197 63.18 19.7397 62.16 20.9697 62.16H30.7497C31.9797 62.16 32.9997 63.18 32.9997 64.41C32.9997 65.64 31.9797 66.66 30.7497 66.66Z" fill="#EE2523"/>
<path d="M57.8698 66.66H47.2198C38.9098 66.66 36.0898 63.84 36.0898 55.53V38.4C36.0898 30.09 38.9098 27.27 47.2198 27.27H57.8698C66.1798 27.27 68.9998 30.09 68.9998 38.4V55.53C68.9998 63.87 66.1798 66.66 57.8698 66.66ZM47.2198 31.77C41.3398 31.77 40.5898 32.52 40.5898 38.4V55.53C40.5898 61.41 41.3398 62.16 47.2198 62.16H57.8698C63.7498 62.16 64.4998 61.41 64.4998 55.53V38.4C64.4998 32.52 63.7498 31.77 57.8698 31.77H47.2198Z" fill="#EE2523"/>
<path d="M52.6504 56.91C51.8704 56.91 51.0904 56.61 50.5204 56.04C50.2504 55.77 50.0404 55.44 49.8904 55.08C49.7404 54.69 49.6504 54.3 49.6504 53.91C49.6504 53.13 49.9804 52.35 50.5204 51.81C51.2104 51.12 52.2604 50.79 53.2504 50.97C53.4304 51.03 53.6104 51.09 53.7904 51.15C53.9704 51.24 54.1504 51.33 54.3004 51.42C54.4804 51.54 54.6304 51.66 54.7804 51.81C55.3204 52.35 55.6504 53.13 55.6504 53.91C55.6504 54.3 55.5604 54.69 55.4104 55.08C55.2604 55.44 55.0504 55.77 54.7804 56.04C54.6304 56.19 54.4804 56.31 54.3004 56.4C54.1504 56.52 53.9704 56.61 53.7904 56.7C53.6104 56.76 53.4304 56.82 53.2504 56.85C53.0404 56.91 52.8604 56.91 52.6504 56.91Z" fill="#EE2523"/>
</svg>
