<svg width="32" height="32" viewBox="0 0 32 32" fill="none" xmlns="http://www.w3.org/2000/svg">
<path d="M23.4932 12.8267H16.4932C15.9465 12.8267 15.4932 12.3733 15.4932 11.8267C15.4932 11.28 15.9465 10.8267 16.4932 10.8267H23.4932C24.0398 10.8267 24.4932 11.28 24.4932 11.8267C24.4932 12.3733 24.0532 12.8267 23.4932 12.8267Z" fill="#EE2523"/>
<path d="M9.49325 13.8401C9.23991 13.8401 8.98658 13.7467 8.78658 13.5467L7.78658 12.5467C7.39992 12.1601 7.39992 11.5201 7.78658 11.1334C8.17325 10.7467 8.81325 10.7467 9.19992 11.1334L9.49325 11.4267L11.7866 9.13338C12.1732 8.74672 12.8132 8.74672 13.1999 9.13338C13.5866 9.52005 13.5866 10.1601 13.1999 10.5467L10.1999 13.5467C10.0132 13.7334 9.75991 13.8401 9.49325 13.8401Z" fill="#EE2523"/>
<path d="M23.4932 22.16H16.4932C15.9465 22.16 15.4932 21.7067 15.4932 21.16C15.4932 20.6134 15.9465 20.16 16.4932 20.16H23.4932C24.0398 20.16 24.4932 20.6134 24.4932 21.16C24.4932 21.7067 24.0532 22.16 23.4932 22.16Z" fill="#EE2523"/>
<path d="M9.49325 23.1733C9.23991 23.1733 8.98658 23.08 8.78658 22.88L7.78658 21.88C7.39992 21.4933 7.39992 20.8533 7.78658 20.4666C8.17325 20.08 8.81325 20.08 9.19992 20.4666L9.49325 20.76L11.7866 18.4666C12.1732 18.08 12.8132 18.08 13.1999 18.4666C13.5866 18.8533 13.5866 19.4933 13.1999 19.88L10.1999 22.88C10.0132 23.0666 9.75991 23.1733 9.49325 23.1733Z" fill="#EE2523"/>
<path d="M19.9998 30.3333H11.9998C4.75984 30.3333 1.6665 27.24 1.6665 20V12C1.6665 4.75996 4.75984 1.66663 11.9998 1.66663H19.9998C27.2398 1.66663 30.3332 4.75996 30.3332 12V20C30.3332 27.24 27.2398 30.3333 19.9998 30.3333ZM11.9998 3.66663C5.85317 3.66663 3.6665 5.85329 3.6665 12V20C3.6665 26.1466 5.85317 28.3333 11.9998 28.3333H19.9998C26.1465 28.3333 28.3332 26.1466 28.3332 20V12C28.3332 5.85329 26.1465 3.66663 19.9998 3.66663H11.9998Z" fill="#EE2523"/>
</svg>
