<svg width="247" height="54" viewBox="0 0 247 54" fill="none" xmlns="http://www.w3.org/2000/svg">
<path fill-rule="evenodd" clip-rule="evenodd" d="M69.8101 17.3856C61.5568 17.3856 59.5322 24.8753 59.5322 28.821C59.5322 32.7919 61.7597 35.9858 66.975 35.9858C72.8739 35.9858 75.2785 31.9627 75.9876 29.2754H71.8365C70.6203 32.4421 68.4426 32.567 67.4052 32.567C66.6456 32.567 64.0385 32.3672 64.0385 28.1943C64.0385 25.4774 65.4559 20.8046 69.6323 20.8046C71.5573 20.8046 72.8485 21.5816 72.8485 23.3422C72.8485 23.5191 72.8485 23.6942 72.822 23.8689H76.9501C77.0253 23.4443 77.0253 23.015 77.0253 22.5877C77.0253 18.0379 72.646 17.3856 69.8101 17.3856Z" fill="white"/>
<path fill-rule="evenodd" clip-rule="evenodd" d="M92.1395 32.0649H82.0895L82.8986 28.2169H91.6079L92.2907 24.8004H83.6316L84.3676 21.3065H94.2401L94.9495 17.8878H80.9238L77.1768 35.4812H91.4304L92.1395 32.0649Z" fill="white"/>
<path fill-rule="evenodd" clip-rule="evenodd" d="M99.5058 28.1419H103.33C104.772 28.1419 105.734 28.4691 105.734 29.9774C105.734 31.6129 104.063 32.0649 102.975 32.0649H98.6706L99.5058 28.1419ZM100.95 21.3065H104.696C105.835 21.3065 106.569 21.8836 106.569 22.79C106.569 24.3735 104.899 24.7256 104.063 24.7256L100.215 24.7254L100.95 21.3065ZM102.215 35.4812C107.632 35.4812 110.165 33.1191 110.165 29.8773C110.165 27.5398 108.695 26.586 107.228 26.2338L107.252 26.1814C110.266 25.5297 111.127 23.1649 111.127 21.6087C111.127 19.8234 110.29 17.8878 106.417 17.8878H97.506L93.7593 35.4812H102.215Z" fill="white"/>
<path fill-rule="evenodd" clip-rule="evenodd" d="M127.152 32.0649H117.101L117.913 28.2169H126.621L127.303 24.8004H118.645L119.38 21.3065H129.252L129.961 17.8878H115.938L112.191 35.4812H126.442L127.152 32.0649Z" fill="white"/>
<path fill-rule="evenodd" clip-rule="evenodd" d="M135.961 21.3065H139.253C140.873 21.3065 141.86 21.8088 141.86 23.4444C141.86 24.6754 141.127 26.0317 138.24 26.0317L134.948 26.0316L135.961 21.3065ZM132.95 35.4812L134.241 29.4504H138.214C145.532 29.4504 146.291 24.4983 146.291 22.6902C146.291 18.3899 142.823 17.8878 140.798 17.8878H132.52L128.772 35.4812H132.95Z" fill="white"/>
<path fill-rule="evenodd" clip-rule="evenodd" d="M155.304 27.1878H148.011L147.355 30.3296H154.645L155.304 27.1878Z" fill="white"/>
<path fill-rule="evenodd" clip-rule="evenodd" d="M175.733 23.8689C175.808 23.4443 175.808 23.015 175.808 22.5877C175.808 18.0379 171.43 17.3856 168.595 17.3856C160.342 17.3856 158.317 24.8753 158.317 28.821C158.317 32.7919 160.543 35.9858 165.76 35.9858C171.656 35.9858 174.063 31.9627 174.772 29.2754H170.619C169.405 32.4421 167.228 32.567 166.19 32.567C165.428 32.567 162.822 32.3672 162.822 28.1943C162.822 25.4774 164.24 20.8046 168.416 20.8046C170.34 20.8046 171.633 21.5816 171.633 23.3422C171.633 23.5191 171.633 23.6942 171.608 23.8689H175.733Z" fill="white"/>
<path fill-rule="evenodd" clip-rule="evenodd" d="M186.265 24.7254H182.416L183.151 21.3065H186.899C188.038 21.3065 188.77 21.8836 188.77 22.79C188.77 24.3735 187.1 24.7256 186.265 24.7254ZM185.176 32.0649H180.873L181.707 28.1419H185.531C186.974 28.1419 187.935 28.4691 187.935 29.9774C187.935 31.6129 186.265 32.0649 185.176 32.0649ZM188.619 17.8878H179.708L175.962 35.4812H184.416C189.835 35.4812 192.367 33.1191 192.367 29.8773C192.367 27.5398 190.898 26.586 189.432 26.2338L189.455 26.1814C192.467 25.5297 193.328 23.1649 193.328 21.6087C193.328 19.8234 192.493 17.8878 188.619 17.8878Z" fill="white"/>
<path fill-rule="evenodd" clip-rule="evenodd" d="M203.809 21.3065H207.505L206.518 25.9817H202.949C202.215 25.9817 200.366 25.8066 200.366 24.0462C200.366 21.6838 202.821 21.3065 203.809 21.3065ZM198.645 35.4812L203.303 29.4002H205.784L204.494 35.4812H208.669L212.417 17.8878H203.48C199.43 17.8878 195.861 19.9731 195.861 24.0961C195.861 27.3877 197.581 28.6962 199.377 28.9985L193.783 35.4812H198.645Z" fill="white"/>
<path fill-rule="evenodd" clip-rule="evenodd" d="M220.036 35.9858C227.912 35.9858 228.872 31.6607 228.872 29.9774C228.872 27.44 226.898 26.6608 225.759 26.4336V26.3837C228.063 25.9066 229.682 24.2234 229.682 21.8087C229.683 19.5213 228.113 17.3856 223.127 17.3856C217.152 17.3856 214.822 20.2525 214.087 23.5941H218.316C218.545 22.5126 219.327 20.8046 222.189 20.8046C223.532 20.8046 225.175 21.1295 225.175 22.6152C225.175 23.5941 224.644 24.8753 221.988 24.8753H219.913L219.229 28.117H221.734C222.747 28.117 224.368 28.2168 224.368 29.8773C224.368 31.2338 223.253 32.567 220.368 32.567C218.746 32.567 216.645 32.265 216.645 29.9272C216.645 29.7503 216.671 29.6004 216.721 29.4254H212.644C212.593 29.7026 212.568 30.0047 212.545 30.2795C212.493 30.7836 212.468 31.3111 212.545 31.8128C212.973 35.1816 216.29 35.9858 220.036 35.9858Z" fill="white"/>
<path fill-rule="evenodd" clip-rule="evenodd" d="M239.605 32.0649H235.631L236.569 27.6898H239.963C241.658 27.6898 242.568 28.294 242.568 29.8024C242.568 31.738 240.264 32.0649 239.605 32.0649ZM240.949 24.2711H237.278L238.644 17.8878H234.467L230.721 35.4812H239.127C244.593 35.4812 247 32.4898 247 29.3506C247.001 24.3735 242.568 24.2711 240.949 24.2711Z" fill="white"/>
<path fill-rule="evenodd" clip-rule="evenodd" d="M1.80085 33.0905C1.70543 33.2947 1.80324 33.163 2.01207 32.8365C1.91566 32.9132 1.84104 32.9997 1.80085 33.0905Z" fill="white"/>
<path fill-rule="evenodd" clip-rule="evenodd" d="M22.8702 35.7121C22.7328 35.6665 21.0224 34.0177 20.597 33.6087C20.1681 33.1953 19.579 33.1677 19.579 33.1677C19.579 33.1677 19.7104 32.7909 20.0466 32.668C20.3819 32.5456 20.2915 32.0141 20.2915 32.0141C20.9654 30.0604 22.8014 29.3967 22.4228 29.2696C22.0922 29.1562 20.6985 27.7774 20.4871 27.5726C20.732 27.8045 21.1793 27.5093 21.1793 27.5093C20.6474 27.0549 19.756 24.4973 20.0958 24.7606C20.4333 25.0242 20.7685 24.9058 20.6575 24.6332C20.5467 24.3606 20.5659 23.7111 20.5659 23.7111C20.5659 23.7111 21.6862 25.1378 21.812 25.1148C21.7134 25.1332 20.9916 25.2561 20.9916 25.2561C20.9916 25.2561 21.9617 26.5736 22.6996 26.7097C22.6996 26.7097 21.7593 26.7054 21.542 26.5779C21.3932 26.4961 21.5877 26.9232 21.606 26.9642C22.0234 27.9636 22.751 28.7155 23.7646 29.138C23.1536 29.179 21.4046 32.4407 21.4046 32.4407C21.0991 32.9863 24.196 35.4849 24.196 35.4849C24.196 35.4849 23.0075 35.7485 22.8702 35.7121ZM18.2049 33.6858C17.5012 33.7403 14.1264 36.0481 14.1264 36.0481C14.1264 36.0481 13.5029 35.0535 13.2616 35.1625C13.0189 35.2667 10.9688 36.5801 10.9688 36.5801L10.6806 34.885C10.413 32.9319 11.6794 29.6877 11.6794 29.6877C11.4392 30.569 12.8134 32.5275 12.8134 32.5275C12.6701 30.1647 17.0207 22.9206 17.0207 22.9206C17.0207 22.9206 15.4491 26.2826 16.1732 28.997L18.5423 27.0821C17.6775 27.9092 19.4231 32.2546 19.4231 32.2546C19.4231 32.2546 18.9108 33.6313 18.2049 33.6858ZM17.7049 12.33C18.2013 12.0168 18.7916 11.8122 19.357 11.6624C19.357 11.6624 16.8581 12.6301 17.0153 14.5063C17.1739 16.383 17.7003 18.132 17.7003 18.132C18.9245 17.7005 20.0891 18.2456 20.0891 18.2456C20.0891 18.2456 18.2574 18.1684 17.4498 19.3361C17.1707 18.5499 16.9097 17.7592 16.682 16.9599C16.1971 15.2559 15.998 13.3935 17.7049 12.33ZM21.9593 14.1615C21.4961 14.1067 21.2489 14.5704 21.2489 14.5704C21.2489 14.5704 21.5637 14.3248 22.3334 15.0334C23.1047 15.742 21.6665 17.0144 21.6665 17.0144C21.6665 17.0144 21.4171 14.7971 19.651 15.6787C19.651 15.6787 20.6415 14.9879 20.4712 14.6384C19.9884 13.6387 18.6018 15.0786 18.6018 15.0786C19.7356 12.4393 22.4214 14.2113 21.9593 14.1615ZM24.8651 14.2519C24.0563 13.7116 23.6595 15.0018 23.6595 15.0018C23.6595 15.0018 23.5532 13.2799 22.6068 12.4393C22.4079 12.2624 24.8651 14.2519 24.8651 14.2519ZM32.4132 21.7167C28.7192 17.9504 23.5381 18.0457 23.5381 18.0457C24.9052 17.3005 24.96 15.7103 24.96 15.7103C29.0694 16.9371 32.4132 21.7168 32.4132 21.7167ZM33.9943 25.3286L36.2493 26.3691L32.9017 26.9275C32.9017 26.9275 33.1032 26.5736 32.6776 26.546C32.2498 26.5234 31.4113 25.9873 31.3679 25.7374C31.3256 25.4829 31.8357 23.5293 32.7841 23.3706C32.7841 23.3704 32.5757 24.6289 33.9943 25.3286ZM39.554 26.0279C40.2573 26.55 40.4472 26.9799 40.391 27.382C40.3329 27.7957 40.0357 28.3738 39.6905 28.8565L38.233 28.9571C38.2889 28.7455 38.4033 28.5065 38.6083 28.2457C39.5665 27.0286 39.3278 26.4328 38.9109 26.0735C38.6201 25.8234 37.5286 25.4012 37.5286 25.4012C37.5286 25.4012 39.1285 25.7127 39.554 26.0279ZM31.6788 23.3613L30.9638 23.9337L30.6986 25.0424C30.6986 25.0424 29.1447 24.8832 28.8736 24.8198C28.6014 24.7516 29.5877 23.1023 31.6788 23.3613ZM36.7447 32.7001C35.8349 33.2725 32.7865 32.9133 31.9168 32.5771C31.0485 32.2367 28.7844 32.8681 28.7844 32.8681C28.7844 32.8681 30.1631 32.0002 30.7946 31.8958C31.426 31.7871 32.9465 31.955 34.6179 32.2186C36.2873 32.4865 37.5867 31.9141 37.5867 31.9141C37.5867 31.9141 37.653 32.1318 36.7447 32.7001ZM24.5106 36.7616C23.3539 36.8299 24.2133 35.7757 24.2133 35.7757C25.6693 36.6937 27.414 36.2663 27.414 36.2663C27.095 35.1625 27.938 34.7627 27.938 34.7627C30.3554 33.7085 31.9266 34.1001 31.9266 34.1001C35.108 34.4637 37.4505 32.6457 37.4505 32.6457C38.6495 32.0594 39.5955 30.1081 40.2429 29.2106C40.5756 28.7495 42.2181 26.55 39.8784 25.6128C38.7822 25.1736 34.4373 23.3477 34.4373 23.3477L33.9886 20.717L29.9778 17.0051L26.3946 15.0292C26.3946 15.0292 27.9242 12.5752 26.954 12.2257C25.9853 11.8713 24.6992 11.1855 23.4581 11.5218C22.2146 11.8624 21.497 10.6904 20.3382 10.7584C19.1794 10.8217 18.4451 11.0766 18.4451 11.0766L11.343 9.04545L7.95014 8.19592C7.95014 8.19592 7.76335 9.38605 8.46153 10.4313C8.46153 10.4313 4.44475 12.0079 3.66802 13.5572C2.89355 15.1064 3.89895 13.3892 5.39428 13.7842C5.39428 13.7842 1.34207 18.2048 1.70361 19.5631L2.11417 23.4931C2.11417 23.4931 -1.29924 30.9009 0.548402 29.556C2.39926 28.2156 5.13676 29.0426 4.6324 29.1291C4.25361 29.1925 2.6359 31.8638 2.01139 32.8365C2.80659 32.2002 5.25018 31.9913 5.25018 31.9913C4.0751 33.4816 3.87708 38.4155 4.40022 36.9114C4.92391 35.403 5.99582 35.6074 5.99582 35.6074C5.36683 36.4888 6.6654 41.818 6.6654 41.818C6.6654 41.818 9.14093 38.0474 8.65782 39.0285C8.17755 40.0147 9.06644 42.1861 9.14892 41.1413C9.23126 40.0964 11.6829 37.7155 11.6829 37.7155C11.6829 37.7155 11.653 38.497 11.6335 38.9652C11.6829 37.7155 13.6642 36.3847 13.6642 36.3847C13.6656 37.1612 14.109 37.4705 14.109 37.4705C14.3576 35.88 18.166 34.5989 18.166 34.5989C18.2128 34.7535 18.3158 34.9171 18.4369 35.0805L18.4245 35.0712C16.8949 37.1612 16.236 38.5426 16.236 38.5426C16.236 38.5426 17.5538 37.5974 17.9931 37.4522C18.4326 37.307 18.9448 37.234 18.9448 37.234C18.9448 37.234 16.4556 39.4878 15.5769 42.25C14.6984 45.012 14.2591 46.8293 14.2591 46.8293C14.2591 46.8293 17.1878 43.4128 17.8466 42.9043C18.5057 42.395 18.9448 42.1043 18.9448 42.1043C18.9448 42.1043 17.6272 44.0673 17.4075 45.1577C17.1878 46.2482 17.0413 48.2108 17.0413 48.2108L17.92 47.411C17.92 47.411 18.1395 50.1006 18.9448 51.1183C19.7504 52.1362 21.3611 53.3718 21.3611 53.3718C21.3611 53.3718 20.0432 51.4091 20.263 49.5918C20.4824 47.7745 21.3611 46.5384 21.3611 46.5384L19.677 47.7745C19.677 47.7745 19.4691 44.7216 20.7811 43.0494C22.0931 41.3774 22.0931 41.3774 22.0931 41.3774L20.1163 41.818C20.1163 41.818 20.4824 39.8508 21.6542 38.9061C22.8253 37.9609 23.338 37.8883 23.338 37.8883C23.338 37.8883 22.0931 37.5248 21.3611 37.7431C20.6289 37.9609 19.677 38.47 19.677 38.47L20.1474 36.5526C20.2387 36.5842 20.2732 36.5707 20.1714 36.4525C19.6851 35.8895 20.3795 35.3848 20.3795 35.3848C21.7525 37.3474 25.6693 36.6937 24.5106 36.7616Z" fill="white"/>
<path fill-rule="evenodd" clip-rule="evenodd" d="M23.0256 -0.00012207C14.7509 -0.00012207 7.37325 3.78449 2.53174 9.69986C7.13186 5.14259 13.4777 2.32602 20.4869 2.32602C34.5284 2.32602 45.9123 13.6297 45.9123 27.5725C45.9123 39.7646 37.203 49.9412 25.6248 52.2993C38.9857 51.0047 49.4281 39.8237 49.4281 26.2144C49.4281 11.7395 37.607 -0.00012207 23.0256 -0.00012207Z" fill="white"/>
</svg>
