<svg xmlns="http://www.w3.org/2000/svg" xmlns:xlink="http://www.w3.org/1999/xlink"><symbol id="icon-chevron-right" viewBox="0 0 24 24"><g fill="none">
<path d="M10.7399 16.2321C10.5499 16.2321 10.3599 16.1623 10.2099 16.0128C9.91993 15.7236 9.91993 15.245 10.2099 14.9559L13.2099 11.9647L10.2099 8.97346C9.91993 8.68431 9.91993 8.20572 10.2099 7.91657C10.4999 7.62742 10.9799 7.62742 11.2699 7.91657L14.7999 11.4362C15.0899 11.7254 15.0899 12.204 14.7999 12.4931L11.2699 16.0128C11.1199 16.1623 10.9299 16.2321 10.7399 16.2321Z" fill="#EE2523"/>
</g></symbol><symbol id="icon-cpu-charge" viewBox="0 0 24 24"><g fill="none">
<path d="M14.4 20.75H9.6C5.21 20.75 3.25 18.79 3.25 14.4V9.6C3.25 5.21 5.21 3.25 9.6 3.25H14.4C18.79 3.25 20.75 5.21 20.75 9.6V14.4C20.75 18.79 18.79 20.75 14.4 20.75ZM9.6 4.75C6.02 4.75 4.75 6.02 4.75 9.6V14.4C4.75 17.98 6.02 19.25 9.6 19.25H14.4C17.98 19.25 19.25 17.98 19.25 14.4V9.6C19.25 6.02 17.98 4.75 14.4 4.75H9.6Z" fill="#292D32"/>
<path d="M13.5 17.75H10.5C7.6 17.75 6.25 16.4 6.25 13.5V10.5C6.25 7.6 7.6 6.25 10.5 6.25H13.5C16.4 6.25 17.75 7.6 17.75 10.5V13.5C17.75 16.4 16.4 17.75 13.5 17.75ZM10.5 7.75C8.42 7.75 7.75 8.42 7.75 10.5V13.5C7.75 15.58 8.42 16.25 10.5 16.25H13.5C15.58 16.25 16.25 15.58 16.25 13.5V10.5C16.25 8.42 15.58 7.75 13.5 7.75H10.5Z" fill="#292D32"/>
<path d="M8.00977 4.75C7.58977 4.75 7.25977 4.41 7.25977 4V2C7.25977 1.59 7.59977 1.25 8.00977 1.25C8.41977 1.25 8.75977 1.59 8.75977 2V4C8.75977 4.41 8.41977 4.75 8.00977 4.75Z" fill="#292D32"/>
<path d="M12 4.75C11.59 4.75 11.25 4.41 11.25 4V2C11.25 1.59 11.59 1.25 12 1.25C12.41 1.25 12.75 1.59 12.75 2V4C12.75 4.41 12.41 4.75 12 4.75Z" fill="#292D32"/>
<path d="M16 4.75C15.59 4.75 15.25 4.41 15.25 4V2C15.25 1.59 15.59 1.25 16 1.25C16.41 1.25 16.75 1.59 16.75 2V4C16.75 4.41 16.41 4.75 16 4.75Z" fill="#292D32"/>
<path d="M22 8.75H20C19.59 8.75 19.25 8.41 19.25 8C19.25 7.59 19.59 7.25 20 7.25H22C22.41 7.25 22.75 7.59 22.75 8C22.75 8.41 22.42 8.75 22 8.75Z" fill="#292D32"/>
<path d="M22 12.75H20C19.59 12.75 19.25 12.41 19.25 12C19.25 11.59 19.59 11.25 20 11.25H22C22.41 11.25 22.75 11.59 22.75 12C22.75 12.41 22.42 12.75 22 12.75Z" fill="#292D32"/>
<path d="M22 16.75H20C19.59 16.75 19.25 16.41 19.25 16C19.25 15.59 19.59 15.25 20 15.25H22C22.41 15.25 22.75 15.59 22.75 16C22.75 16.41 22.42 16.75 22 16.75Z" fill="#292D32"/>
<path d="M16 22.75C15.59 22.75 15.25 22.41 15.25 22V20C15.25 19.59 15.59 19.25 16 19.25C16.41 19.25 16.75 19.59 16.75 20V22C16.75 22.41 16.41 22.75 16 22.75Z" fill="#292D32"/>
<path d="M12.0098 22.75C11.5998 22.75 11.2598 22.41 11.2598 22V20C11.2598 19.59 11.5998 19.25 12.0098 19.25C12.4198 19.25 12.7598 19.59 12.7598 20V22C12.7598 22.41 12.4198 22.75 12.0098 22.75Z" fill="#292D32"/>
<path d="M8.00977 22.75C7.59977 22.75 7.25977 22.41 7.25977 22V20C7.25977 19.59 7.59977 19.25 8.00977 19.25C8.41977 19.25 8.75977 19.59 8.75977 20V22C8.75977 22.41 8.41977 22.75 8.00977 22.75Z" fill="#292D32"/>
<path d="M4 8.75H2C1.59 8.75 1.25 8.42 1.25 8C1.25 7.58 1.59 7.25 2 7.25H4C4.41 7.25 4.75 7.59 4.75 8C4.75 8.41 4.42 8.75 4 8.75Z" fill="#292D32"/>
<path d="M4 12.75H2C1.59 12.75 1.25 12.41 1.25 12C1.25 11.59 1.59 11.25 2 11.25H4C4.41 11.25 4.75 11.59 4.75 12C4.75 12.41 4.42 12.75 4 12.75Z" fill="#292D32"/>
<path d="M4 16.75H2C1.59 16.75 1.25 16.41 1.25 16C1.25 15.59 1.59 15.25 2 15.25H4C4.41 15.25 4.75 15.59 4.75 16C4.75 16.41 4.42 16.75 4 16.75Z" fill="#292D32"/>
<path d="M12.0001 15.05C11.8701 15.05 11.7401 15.02 11.6301 14.95C11.2701 14.74 11.1501 14.28 11.3501 13.93L12.0301 12.75H11.4401C10.9601 12.75 10.5701 12.54 10.3601 12.18C10.1501 11.82 10.1701 11.37 10.4001 10.96L11.3401 9.32001C11.5501 8.96001 12.0101 8.84001 12.3601 9.04001C12.7201 9.25001 12.8401 9.71001 12.6401 10.06L11.9601 11.24H12.5501C13.0301 11.24 13.4201 11.45 13.6301 11.81C13.8401 12.17 13.8201 12.62 13.5901 13.03L12.6501 14.67C12.5101 14.92 12.2601 15.05 12.0001 15.05Z" fill="#292D32"/>
</g></symbol><symbol id="icon-devices" viewBox="0 0 24 24"><g fill="none">
<path d="M17.0099 13.48C16.0099 13.48 15.1899 12.66 15.1899 11.66C15.1899 10.66 16.0099 9.84009 17.0099 9.84009C18.0099 9.84009 18.8299 10.66 18.8299 11.66C18.8299 12.66 18.0099 13.48 17.0099 13.48ZM17.0099 11.3401C16.8299 11.3401 16.6899 11.48 16.6899 11.66C16.6899 11.84 16.8299 11.98 17.0099 11.98C17.1899 11.98 17.3299 11.84 17.3299 11.66C17.3299 11.48 17.1899 11.3401 17.0099 11.3401Z" fill="#292D32"/>
<path d="M12.02 16.45H6C2.4 16.45 1.25 15.3 1.25 11.7V6C1.25 2.4 2.4 1.25 6 1.25H16C19.6 1.25 20.75 2.4 20.75 6V7.78998C20.75 7.99998 20.66 8.20998 20.5 8.34998C20.34 8.48998 20.13 8.56003 19.91 8.53003C19.69 8.50003 19.43 8.48999 19.15 8.48999H14.87C13.14 8.48999 12.77 8.86003 12.77 10.59V15.7C12.77 16.11 12.43 16.45 12.02 16.45ZM6 2.75C3.21 2.75 2.75 3.21 2.75 6V11.7C2.75 14.49 3.21 14.95 6 14.95H11.27V10.59C11.27 8.03003 12.31 6.98999 14.87 6.98999H19.15C19.18 6.98999 19.22 6.98999 19.25 6.98999V6C19.25 3.21 18.79 2.75 16 2.75H6Z" fill="#292D32"/>
<path d="M9 20.7499C8.59 20.7499 8.25 20.4099 8.25 19.9999V15.7C8.25 15.29 8.59 14.95 9 14.95C9.41 14.95 9.75 15.29 9.75 15.7V19.9999C9.75 20.4099 9.41 20.7499 9 20.7499Z" fill="#292D32"/>
<path d="M12 12.65H2C1.59 12.65 1.25 12.31 1.25 11.9C1.25 11.49 1.59 11.15 2 11.15H12C12.41 11.15 12.75 11.49 12.75 11.9C12.75 12.31 12.41 12.65 12 12.65Z" fill="#292D32"/>
<path d="M12.0002 20.75H5.9502C5.5402 20.75 5.2002 20.41 5.2002 20C5.2002 19.59 5.5402 19.25 5.9502 19.25H12.0002C12.4102 19.25 12.7502 19.59 12.7502 20C12.7502 20.41 12.4102 20.75 12.0002 20.75Z" fill="#292D32"/>
<path d="M17.0099 13.48C16.0099 13.48 15.1899 12.66 15.1899 11.66C15.1899 10.66 16.0099 9.84009 17.0099 9.84009C18.0099 9.84009 18.8299 10.66 18.8299 11.66C18.8299 12.66 18.0099 13.48 17.0099 13.48ZM17.0099 11.3401C16.8299 11.3401 16.6899 11.48 16.6899 11.66C16.6899 11.84 16.8299 11.98 17.0099 11.98C17.1899 11.98 17.3299 11.84 17.3299 11.66C17.3299 11.48 17.1899 11.3401 17.0099 11.3401Z" fill="#292D32"/>
<path d="M20 7.78998C19.75 7.75998 19.46 7.73999 19.15 7.73999H14.87C12.73 7.73999 12.02 8.45003 12.02 10.59V19.15C12.02 21.29 12.73 22 14.87 22H19.15C21.29 22 22 21.29 22 19.15V10.59C22 8.76003 21.48 7.97998 20 7.78998ZM17.01 10.59C17.6 10.59 18.08 11.07 18.08 11.66C18.08 12.25 17.6 12.73 17.01 12.73C16.42 12.73 15.94 12.25 15.94 11.66C15.94 11.07 16.42 10.59 17.01 10.59ZM17.01 19.15C15.83 19.15 14.87 18.19 14.87 17.01C14.87 16.52 15.04 16.06 15.32 15.7C15.71 15.2 16.32 14.87 17.01 14.87C17.55 14.87 18.04 15.07 18.41 15.39C18.86 15.79 19.15 16.37 19.15 17.01C19.15 18.19 18.19 19.15 17.01 19.15Z" stroke="#292D32" stroke-width="1.5" stroke-miterlimit="10" stroke-linecap="round" stroke-linejoin="round"/>
<path d="M17.0101 19.9C15.4201 19.9 14.1201 18.6 14.1201 17.01C14.1201 16.37 14.3401 15.74 14.7301 15.24C15.2801 14.53 16.1201 14.12 17.0101 14.12C17.7001 14.12 18.3801 14.37 18.9001 14.82C19.5401 15.39 19.9001 16.18 19.9001 17.01C19.9001 18.6 18.6001 19.9 17.0101 19.9ZM17.0101 15.62C16.5801 15.62 16.1801 15.82 15.9101 16.16C15.7201 16.4 15.6201 16.7 15.6201 17.01C15.6201 17.78 16.2401 18.4 17.0101 18.4C17.7801 18.4 18.4001 17.78 18.4001 17.01C18.4001 16.61 18.2201 16.23 17.9101 15.95C17.6701 15.74 17.3401 15.62 17.0101 15.62Z" fill="#292D32"/>
<path d="M17.0099 13.48C16.0099 13.48 15.1899 12.66 15.1899 11.66C15.1899 10.66 16.0099 9.84009 17.0099 9.84009C18.0099 9.84009 18.8299 10.66 18.8299 11.66C18.8299 12.66 18.0099 13.48 17.0099 13.48ZM17.0099 11.3401C16.8299 11.3401 16.6899 11.48 16.6899 11.66C16.6899 11.84 16.8299 11.98 17.0099 11.98C17.1899 11.98 17.3299 11.84 17.3299 11.66C17.3299 11.48 17.1899 11.3401 17.0099 11.3401Z" fill="#292D32"/>
</g></symbol><symbol id="icon-empty-wallet-red" viewBox="0 0 32 32"><g fill="none">
<path d="M23.6535 30.3334H8.34683C5.02683 30.3334 2.3335 27.64 2.3335 24.32V15.3467C2.3335 12.0267 5.02683 9.33337 8.34683 9.33337H23.6535C26.9735 9.33337 29.6668 12.0267 29.6668 15.3467V17.2667C29.6668 17.8134 29.2135 18.2667 28.6668 18.2667H25.9735C25.5068 18.2667 25.0802 18.4401 24.7735 18.7601L24.7602 18.7734C24.3868 19.1334 24.2135 19.6267 24.2535 20.1333C24.3335 21.0133 25.1735 21.72 26.1335 21.72H28.6668C29.2135 21.72 29.6668 22.1733 29.6668 22.72V24.3067C29.6668 27.64 26.9735 30.3334 23.6535 30.3334ZM8.34683 11.3334C6.1335 11.3334 4.3335 13.1334 4.3335 15.3467V24.32C4.3335 26.5334 6.1335 28.3334 8.34683 28.3334H23.6535C25.8668 28.3334 27.6668 26.5334 27.6668 24.32V23.7334H26.1335C24.1202 23.7334 22.4135 22.24 22.2535 20.32C22.1468 19.2267 22.5468 18.1467 23.3468 17.3601C24.0402 16.6534 24.9735 16.2667 25.9735 16.2667H27.6668V15.3467C27.6668 13.1334 25.8668 11.3334 23.6535 11.3334H8.34683Z" fill="#EE2523"/>
<path d="M3.3335 17.5466C2.78683 17.5466 2.3335 17.0933 2.3335 16.5466V10.4534C2.3335 8.46671 3.58683 6.66663 5.44016 5.95997L16.0268 1.95997C17.1202 1.54663 18.3335 1.69336 19.2802 2.36003C20.2402 3.0267 20.8002 4.10669 20.8002 5.26669V10.3333C20.8002 10.88 20.3468 11.3333 19.8002 11.3333C19.2535 11.3333 18.8002 10.88 18.8002 10.3333V5.26669C18.8002 4.76002 18.5602 4.29334 18.1335 4.00001C17.7068 3.70667 17.2002 3.64 16.7202 3.82667L6.1335 7.82666C5.0535 8.24 4.32016 9.29337 4.32016 10.4534V16.5466C4.3335 17.1066 3.88016 17.5466 3.3335 17.5466Z" fill="#EE2523"/>
<path d="M26.1333 23.7332C24.12 23.7332 22.4133 22.2399 22.2533 20.3199C22.1466 19.2132 22.5466 18.1333 23.3466 17.3466C24.0266 16.6533 24.96 16.2666 25.96 16.2666H28.7333C30.0533 16.3066 31.0666 17.3465 31.0666 18.6265V21.3733C31.0666 22.6533 30.0533 23.6932 28.7733 23.7332H26.1333ZM28.7066 18.2666H25.9733C25.5066 18.2666 25.08 18.4399 24.7733 18.7599C24.3866 19.1333 24.2 19.6399 24.2533 20.1466C24.3333 21.0266 25.1733 21.7332 26.1333 21.7332H28.7466C28.92 21.7332 29.08 21.5733 29.08 21.3733V18.6265C29.08 18.4265 28.92 18.2799 28.7066 18.2666Z" fill="#EE2523"/>
<path d="M18.6668 17H9.3335C8.78683 17 8.3335 16.5467 8.3335 16C8.3335 15.4533 8.78683 15 9.3335 15H18.6668C19.2135 15 19.6668 15.4533 19.6668 16C19.6668 16.5467 19.2135 17 18.6668 17Z" fill="#EE2523"/>
</g></symbol><symbol id="icon-global" viewBox="0 0 24 24"><g fill="none">
<path d="M12 22.75C6.07 22.75 1.25 17.93 1.25 12C1.25 6.07 6.07 1.25 12 1.25C17.93 1.25 22.75 6.07 22.75 12C22.75 17.93 17.93 22.75 12 22.75ZM12 2.75C6.9 2.75 2.75 6.9 2.75 12C2.75 17.1 6.9 21.25 12 21.25C17.1 21.25 21.25 17.1 21.25 12C21.25 6.9 17.1 2.75 12 2.75Z" fill="#292D32"/>
<path d="M9.00023 21.75H8.00023C7.59023 21.75 7.25023 21.41 7.25023 21C7.25023 20.59 7.57023 20.26 7.98023 20.25C6.41023 14.89 6.41023 9.11 7.98023 3.75C7.57023 3.74 7.25023 3.41 7.25023 3C7.25023 2.59 7.59023 2.25 8.00023 2.25H9.00023C9.24023 2.25 9.47023 2.37 9.61023 2.56C9.75023 2.76 9.79023 3.01 9.71023 3.24C7.83023 8.89 7.83023 15.11 9.71023 20.77C9.79023 21 9.75023 21.25 9.61023 21.45C9.47023 21.63 9.24023 21.75 9.00023 21.75Z" fill="#292D32"/>
<path d="M14.9999 21.75C14.9199 21.75 14.8399 21.74 14.7599 21.71C14.3699 21.58 14.1499 21.15 14.2899 20.76C16.1699 15.11 16.1699 8.89 14.2899 3.23C14.1599 2.84 14.3699 2.41 14.7599 2.28C15.1599 2.15 15.5799 2.36 15.7099 2.75C17.6999 8.71 17.6999 15.27 15.7099 21.22C15.6099 21.55 15.3099 21.75 14.9999 21.75Z" fill="#292D32"/>
<path d="M12 17.2C9.21 17.2 6.43 16.81 3.75 16.02C3.74 16.42 3.41 16.75 3 16.75C2.59 16.75 2.25 16.41 2.25 16V15C2.25 14.76 2.37 14.53 2.56 14.39C2.76 14.25 3.01 14.21 3.24 14.29C8.89 16.17 15.12 16.17 20.77 14.29C21 14.21 21.25 14.25 21.45 14.39C21.65 14.53 21.76 14.76 21.76 15V16C21.76 16.41 21.42 16.75 21.01 16.75C20.6 16.75 20.27 16.43 20.26 16.02C17.57 16.81 14.79 17.2 12 17.2Z" fill="#292D32"/>
<path d="M20.9998 9.74999C20.9198 9.74999 20.8398 9.73999 20.7598 9.70999C15.1098 7.82999 8.87978 7.82999 3.22978 9.70999C2.82978 9.83999 2.40978 9.62999 2.27978 9.23999C2.15978 8.83999 2.36978 8.41999 2.75978 8.28999C8.71978 6.29999 15.2798 6.29999 21.2298 8.28999C21.6198 8.41999 21.8398 8.84999 21.6998 9.23999C21.6098 9.54999 21.3098 9.74999 20.9998 9.74999Z" fill="#292D32"/>
</g></symbol><symbol id="icon-home-wifi" viewBox="0 0 24 24"><g fill="none">
<path d="M17.5998 22.56H6.39983C4.57983 22.56 2.91983 21.1599 2.61983 19.3599L1.28984 11.4C1.07984 10.16 1.67985 8.56999 2.66985 7.77999L9.59984 2.22994C10.9398 1.14994 13.0498 1.15995 14.3998 2.23995L21.3298 7.77999C22.3098 8.56999 22.9098 10.16 22.7098 11.4L21.3798 19.3599C21.0798 21.1299 19.3898 22.56 17.5998 22.56ZM11.9898 2.9399C11.4598 2.9399 10.9298 3.09999 10.5398 3.40999L3.60982 8.95992C3.03982 9.41992 2.64982 10.44 2.76982 11.16L4.09984 19.12C4.27984 20.17 5.32983 21.06 6.39983 21.06H17.5998C18.6698 21.06 19.7198 20.1699 19.8998 19.1099L21.2298 11.15C21.3498 10.43 20.9499 9.39991 20.3899 8.94991L13.4598 3.40999C13.0598 3.09999 12.5298 2.9399 11.9898 2.9399Z" fill="#292D32"/>
<path d="M14.12 15.13C13.93 15.13 13.7501 15.06 13.6001 14.92C12.6301 13.99 11.3701 13.99 10.3901 14.92C10.0901 15.21 9.62004 15.2 9.33004 14.9C9.04004 14.6 9.05006 14.1299 9.35006 13.8399C10.9001 12.3499 13.0701 12.3499 14.6301 13.8399C14.9301 14.1299 14.94 14.6 14.65 14.9C14.52 15.05 14.32 15.13 14.12 15.13Z" fill="#292D32"/>
<path d="M16.2399 13.01C16.0499 13.01 15.8599 12.9401 15.7199 12.8001C15.2499 12.3401 14.7199 11.97 14.1599 11.7C12.7599 11.03 11.2299 11.03 9.83988 11.7C9.27988 11.97 8.75988 12.3401 8.27988 12.8001C7.98988 13.0901 7.50988 13.0901 7.21988 12.7901C6.92988 12.4901 6.93989 12.02 7.22989 11.73C7.81989 11.15 8.47989 10.69 9.18989 10.35C10.9999 9.48001 12.9999 9.48001 14.7999 10.35C15.5099 10.69 16.1699 11.15 16.7599 11.73C17.0599 12.02 17.0599 12.4901 16.7699 12.7901C16.6299 12.9301 16.4399 13.01 16.2399 13.01Z" fill="#292D32"/>
<path d="M12.0001 17.5C11.7401 17.5 11.4901 17.4 11.2901 17.21C10.9001 16.82 10.9001 16.1901 11.2901 15.8001C11.6801 15.4101 12.32 15.4101 12.71 15.8001C13.1 16.1901 13.1 16.82 12.71 17.21C12.51 17.4 12.2601 17.5 12.0001 17.5Z" fill="#292D32"/>
</g></symbol><symbol id="icon-key-square" viewBox="0 0 24 24"><g fill="none">
<path d="M15 22.75H9C3.57 22.75 1.25 20.43 1.25 15V9C1.25 3.57 3.57 1.25 9 1.25H15C20.43 1.25 22.75 3.57 22.75 9V15C22.75 20.43 20.43 22.75 15 22.75ZM9 2.75C4.39 2.75 2.75 4.39 2.75 9V15C2.75 19.61 4.39 21.25 9 21.25H15C19.61 21.25 21.25 19.61 21.25 15V9C21.25 4.39 19.61 2.75 15 2.75H9Z" fill="#292D32"/>
<path d="M8.81023 18.25C8.74023 18.25 8.66023 18.25 8.59023 18.23L7.40023 18.07C6.68023 17.97 6.05023 17.35 5.94023 16.61L5.77023 15.4C5.70023 14.92 5.90023 14.31 6.25023 13.95L8.53023 11.67C8.19023 10.05 8.68023 8.37001 9.87023 7.19001C11.7802 5.28001 14.9002 5.28001 16.8102 7.19001C17.7402 8.12001 18.2502 9.35001 18.2502 10.66C18.2502 11.97 17.7402 13.21 16.8102 14.13C15.6202 15.31 13.9402 15.8 12.3302 15.46L10.0402 17.74C9.75023 18.05 9.26023 18.25 8.81023 18.25ZM13.3402 7.25001C12.4702 7.25001 11.5902 7.58001 10.9302 8.25001C10.0302 9.15001 9.71023 10.46 10.0802 11.68C10.1602 11.95 10.0902 12.23 9.89023 12.43L7.31023 15.01C7.29023 15.04 7.25023 15.15 7.25023 15.19L7.42023 16.39C7.43023 16.45 7.54023 16.56 7.60023 16.57L8.80023 16.74C8.85023 16.73 8.95023 16.71 8.98023 16.68L11.5702 14.09C11.7702 13.89 12.0602 13.83 12.3202 13.91C13.5302 14.29 14.8402 13.97 15.7402 13.07C16.3802 12.43 16.7402 11.57 16.7402 10.66C16.7402 9.75001 16.3902 8.89001 15.7402 8.25001C15.0902 7.59001 14.2102 7.25001 13.3402 7.25001Z" fill="#292D32"/>
<path d="M10.4498 17.03C10.2598 17.03 10.0698 16.96 9.91978 16.81L9.05979 15.95C8.76979 15.66 8.76979 15.18 9.05979 14.89C9.34979 14.6 9.82978 14.6 10.1198 14.89L10.9798 15.75C11.2698 16.04 11.2698 16.52 10.9798 16.81C10.8398 16.96 10.6498 17.03 10.4498 17.03Z" fill="#292D32"/>
<path d="M13.3801 11.8C13.2401 11.8 13.1101 11.78 12.9901 11.73C12.8701 11.68 12.7601 11.6 12.6701 11.51C12.4801 11.32 12.3701 11.07 12.3701 10.8C12.3701 10.54 12.4801 10.28 12.6701 10.1C12.9001 9.85999 13.2501 9.74999 13.5701 9.81999C13.6301 9.83999 13.7001 9.84999 13.7601 9.87999C13.8201 9.90999 13.8801 9.93999 13.9301 9.96999C13.9801 10.01 14.0401 10.05 14.0801 10.1C14.2701 10.28 14.3801 10.54 14.3801 10.8C14.3801 10.94 14.3501 11.06 14.3001 11.19C14.2501 11.31 14.1801 11.42 14.0801 11.51C13.8901 11.7 13.6401 11.8 13.3801 11.8Z" fill="#292D32"/>
</g></symbol><symbol id="icon-login" viewBox="0 0 20 12"><g fill="none">
<path d="M13 1H17C17.5304 1 18.0391 1.12218 18.4142 1.33965C18.7893 1.55713 19 1.85209 19 2.15965V10.2772C19 10.5848 18.7893 10.8797 18.4142 11.0972C18.0391 11.3147 17.5304 11.4368 17 11.4368H13M8 9.11755L13 6.21842M13 6.21842L8 3.3193M13 6.21842H1" stroke="#EE2523" stroke-linecap="round" stroke-linejoin="round"/>
</g></symbol><symbol id="icon-monitor-mobile" viewBox="0 0 24 24"><g fill="none">
<path d="M10 17.7H6.21C2.41 17.7 1.25 16.54 1.25 12.74V6.74C1.25 2.94 2.41 1.78 6.21 1.78H16.74C20.54 1.78 21.7 2.94 21.7 6.74C21.7 7.15 21.36 7.49 20.95 7.49C20.54 7.49 20.2 7.15 20.2 6.74C20.2 3.8 19.68 3.28 16.74 3.28H6.21C3.27 3.28 2.75 3.8 2.75 6.74V12.74C2.75 15.68 3.27 16.2 6.21 16.2H10C10.41 16.2 10.75 16.54 10.75 16.95C10.75 17.36 10.41 17.7 10 17.7Z" fill="#292D32"/>
<path d="M10 22.22C9.59 22.22 9.25 21.88 9.25 21.47V16.94C9.25 16.53 9.59 16.19 10 16.19C10.41 16.19 10.75 16.53 10.75 16.94V21.47C10.75 21.89 10.41 22.22 10 22.22Z" fill="#292D32"/>
<path d="M10 13.7H2C1.59 13.7 1.25 13.36 1.25 12.95C1.25 12.54 1.59 12.2 2 12.2H10C10.41 12.2 10.75 12.54 10.75 12.95C10.75 13.36 10.41 13.7 10 13.7Z" fill="#292D32"/>
<path d="M10.0002 22.22H6.74023C6.33023 22.22 5.99023 21.88 5.99023 21.47C5.99023 21.06 6.33023 20.72 6.74023 20.72H10.0002C10.4102 20.72 10.7502 21.06 10.7502 21.47C10.7502 21.88 10.4102 22.22 10.0002 22.22Z" fill="#292D32"/>
<path d="M19.0398 22.22H15.4898C12.7198 22.22 11.7798 21.28 11.7798 18.51V12.8C11.7798 10.03 12.7198 9.09 15.4898 9.09H19.0398C21.8098 9.09 22.7498 10.03 22.7498 12.8V18.51C22.7498 21.29 21.8098 22.22 19.0398 22.22ZM15.4898 10.59C13.5298 10.59 13.2798 10.84 13.2798 12.8V18.51C13.2798 20.47 13.5298 20.72 15.4898 20.72H19.0398C20.9998 20.72 21.2498 20.47 21.2498 18.51V12.8C21.2498 10.84 20.9998 10.59 19.0398 10.59H15.4898Z" fill="#292D32"/>
<path d="M17.2998 18.97C17.0398 18.97 16.7798 18.87 16.5898 18.68C16.4998 18.59 16.4298 18.48 16.3798 18.36C16.3298 18.23 16.2998 18.1 16.2998 17.97C16.2998 17.71 16.4098 17.45 16.5898 17.27C16.8198 17.04 17.1698 16.93 17.4998 16.99C17.5598 17.01 17.6198 17.03 17.6798 17.05C17.7398 17.08 17.7998 17.11 17.8498 17.14C17.9098 17.18 17.9598 17.22 18.0098 17.27C18.1898 17.45 18.2998 17.71 18.2998 17.97C18.2998 18.1 18.2698 18.23 18.2198 18.36C18.1698 18.48 18.0998 18.59 18.0098 18.68C17.9598 18.73 17.9098 18.77 17.8498 18.8C17.7998 18.84 17.7398 18.87 17.6798 18.9C17.6198 18.92 17.5598 18.94 17.4998 18.95C17.4298 18.97 17.3698 18.97 17.2998 18.97Z" fill="#292D32"/>
</g></symbol><symbol id="icon-monitor-recorder" viewBox="0 0 24 24"><g fill="none">
<path d="M17.56 17.97H6.44C2.46 17.97 1.25 16.76 1.25 12.78V6.44C1.25 2.46 2.46 1.25 6.44 1.25H8C8.41 1.25 8.75 1.59 8.75 2C8.75 2.41 8.41 2.75 8 2.75H6.44C3.3 2.75 2.75 3.3 2.75 6.44V12.77C2.75 15.91 3.3 16.46 6.44 16.46H17.55C20.69 16.46 21.24 15.91 21.24 12.77V11.88C21.24 11.47 21.58 11.13 21.99 11.13C22.4 11.13 22.74 11.47 22.74 11.88V12.77C22.75 16.76 21.54 17.97 17.56 17.97Z" fill="#292D32"/>
<path d="M12 22.75C11.59 22.75 11.25 22.41 11.25 22V17.22C11.25 16.81 11.59 16.47 12 16.47C12.41 16.47 12.75 16.81 12.75 17.22V22C12.75 22.41 12.41 22.75 12 22.75Z" fill="#292D32"/>
<path d="M22 13.75H2C1.59 13.75 1.25 13.41 1.25 13C1.25 12.59 1.59 12.25 2 12.25H22C22.41 12.25 22.75 12.59 22.75 13C22.75 13.41 22.41 13.75 22 13.75Z" fill="#292D32"/>
<path d="M16.5 22.75H7.5C7.09 22.75 6.75 22.41 6.75 22C6.75 21.59 7.09 21.25 7.5 21.25H16.5C16.91 21.25 17.25 21.59 17.25 22C17.25 22.41 16.91 22.75 16.5 22.75Z" fill="#292D32"/>
<path d="M17.8598 10.12H13.0998C11.5298 10.12 10.5098 9.1 10.5098 7.53V4.01C10.5098 2.49 11.7398 1.26 13.2598 1.26H17.8598C19.2898 1.26 20.4498 2.42 20.4498 3.85V7.53C20.4498 8.96 19.2898 10.12 17.8598 10.12ZM13.2598 2.76C12.5698 2.76 12.0098 3.32 12.0098 4.01V7.53C12.0098 8.51 12.6298 8.62 13.0998 8.62H17.8598C18.4598 8.62 18.9498 8.13 18.9498 7.53V3.85C18.9498 3.25 18.4598 2.76 17.8598 2.76H13.2598Z" fill="#292D32"/>
<path d="M21.4502 8.87C21.1302 8.87 20.8002 8.76 20.4802 8.53L19.2702 7.68C19.0702 7.54 18.9502 7.31 18.9502 7.07V4.31C18.9502 4.07 19.0702 3.84 19.2702 3.7L20.4802 2.85C21.0002 2.48 21.5602 2.41 22.0202 2.65C22.4802 2.89 22.7402 3.39 22.7402 4.03V7.36C22.7402 8 22.4802 8.5 22.0202 8.74C21.8502 8.83 21.6602 8.87 21.4502 8.87ZM20.4502 6.68L21.2502 7.24V4.14L20.4502 4.7V6.68Z" fill="#292D32"/>
</g></symbol><symbol id="icon-monitor" viewBox="0 0 24 24"><g fill="none">
<path d="M17.56 17.97H6.44C2.46 17.97 1.25 16.76 1.25 12.78V6.44C1.25 2.46 2.46 1.25 6.44 1.25H17.55C21.53 1.25 22.74 2.46 22.74 6.44V12.77C22.75 16.76 21.54 17.97 17.56 17.97ZM6.44 2.75C3.3 2.75 2.75 3.3 2.75 6.44V12.77C2.75 15.91 3.3 16.46 6.44 16.46H17.55C20.69 16.46 21.24 15.91 21.24 12.77V6.44C21.24 3.3 20.69 2.75 17.55 2.75H6.44Z" fill="#292D32"/>
<path d="M12 22.75C11.59 22.75 11.25 22.41 11.25 22V17.22C11.25 16.81 11.59 16.47 12 16.47C12.41 16.47 12.75 16.81 12.75 17.22V22C12.75 22.41 12.41 22.75 12 22.75Z" fill="#292D32"/>
<path d="M22 13.75H2C1.59 13.75 1.25 13.41 1.25 13C1.25 12.59 1.59 12.25 2 12.25H22C22.41 12.25 22.75 12.59 22.75 13C22.75 13.41 22.41 13.75 22 13.75Z" fill="#292D32"/>
<path d="M16.5 22.75H7.5C7.09 22.75 6.75 22.41 6.75 22C6.75 21.59 7.09 21.25 7.5 21.25H16.5C16.91 21.25 17.25 21.59 17.25 22C17.25 22.41 16.91 22.75 16.5 22.75Z" fill="#292D32"/>
</g></symbol><symbol id="icon-shuffle" viewBox="0 0 24 24"><g fill="none">
<path d="M5.56024 18.74C5.56024 18.74 5.55025 18.74 5.54025 18.74L2.99023 18.73C2.58023 18.73 2.24023 18.39 2.24023 17.98C2.24023 17.57 2.58023 17.23 2.99023 17.23L5.54025 17.24H5.55023C6.20023 17.24 6.81026 16.92 7.17026 16.37L13.5602 6.78998C14.2002 5.82998 15.2702 5.25 16.4302 5.25C16.4302 5.25 16.4403 5.25 16.4503 5.25L21.0002 5.27002C21.4102 5.27002 21.7502 5.61002 21.7502 6.02002C21.7502 6.43002 21.4102 6.77002 21.0002 6.77002L16.4503 6.75H16.4402C15.7902 6.75 15.1803 7.07 14.8203 7.62L8.43024 17.2C7.79024 18.17 6.72024 18.74 5.56024 18.74Z" fill="#292D32"/>
<path d="M18.9999 20.7299C18.8099 20.7299 18.6199 20.6599 18.4699 20.5099C18.1799 20.2199 18.1799 19.7399 18.4699 19.4499L20.4699 17.4499C20.7599 17.1599 21.2399 17.1599 21.5299 17.4499C21.8199 17.7399 21.8199 18.2199 21.5299 18.5099L19.5299 20.5099C19.3799 20.6599 19.1899 20.7299 18.9999 20.7299Z" fill="#292D32"/>
<path d="M8.89001 9.38C8.66001 9.38 8.43 9.27001 8.28 9.07001L7.20001 7.57001C6.83001 7.06001 6.21999 6.76001 5.60999 6.76001L3 6.77002C2.54 6.76002 2.25 6.44002 2.25 6.02002C2.25 5.61002 2.58 5.27002 3 5.27002L5.60999 5.26001C5.61999 5.26001 5.62 5.26001 5.63 5.26001C6.74001 5.26001 7.77999 5.8 8.42999 6.69L9.51001 8.19C9.75001 8.53 9.68 8.98999 9.34 9.23999C9.2 9.32999 9.05001 9.38 8.89001 9.38Z" fill="#292D32"/>
<path d="M16.32 18.7499C15.26 18.7499 14.24 18.2499 13.59 17.4099L12.37 15.84C12.12 15.51 12.18 15.0399 12.5 14.7899C12.83 14.5399 13.3 14.5999 13.55 14.9199L14.77 16.4899C15.14 16.9699 15.73 17.2099 16.32 17.2499L20.99 17.2299C21.4 17.2299 21.74 17.5599 21.74 17.9799C21.74 18.3899 21.41 18.7299 20.99 18.7299L16.32 18.7499C16.33 18.7499 16.32 18.7499 16.32 18.7499Z" fill="#292D32"/>
<path d="M20.9999 6.76999C20.8099 6.76999 20.6199 6.69996 20.4699 6.54996L18.4699 4.54996C18.1799 4.25996 18.1799 3.77996 18.4699 3.48996C18.7599 3.19996 19.2399 3.19996 19.5299 3.48996L21.5299 5.48996C21.8199 5.77996 21.8199 6.25996 21.5299 6.54996C21.3799 6.69996 21.1899 6.76999 20.9999 6.76999Z" fill="#292D32"/>
</g></symbol><symbol id="icon-task-square-red" viewBox="0 0 32 32"><g fill="none">
<path d="M23.4932 12.8267H16.4932C15.9465 12.8267 15.4932 12.3733 15.4932 11.8267C15.4932 11.28 15.9465 10.8267 16.4932 10.8267H23.4932C24.0398 10.8267 24.4932 11.28 24.4932 11.8267C24.4932 12.3733 24.0532 12.8267 23.4932 12.8267Z" fill="#EE2523"/>
<path d="M9.49325 13.8401C9.23991 13.8401 8.98658 13.7467 8.78658 13.5467L7.78658 12.5467C7.39992 12.1601 7.39992 11.5201 7.78658 11.1334C8.17325 10.7467 8.81325 10.7467 9.19992 11.1334L9.49325 11.4267L11.7866 9.13338C12.1732 8.74672 12.8132 8.74672 13.1999 9.13338C13.5866 9.52005 13.5866 10.1601 13.1999 10.5467L10.1999 13.5467C10.0132 13.7334 9.75991 13.8401 9.49325 13.8401Z" fill="#EE2523"/>
<path d="M23.4932 22.16H16.4932C15.9465 22.16 15.4932 21.7067 15.4932 21.16C15.4932 20.6134 15.9465 20.16 16.4932 20.16H23.4932C24.0398 20.16 24.4932 20.6134 24.4932 21.16C24.4932 21.7067 24.0532 22.16 23.4932 22.16Z" fill="#EE2523"/>
<path d="M9.49325 23.1733C9.23991 23.1733 8.98658 23.08 8.78658 22.88L7.78658 21.88C7.39992 21.4933 7.39992 20.8533 7.78658 20.4666C8.17325 20.08 8.81325 20.08 9.19992 20.4666L9.49325 20.76L11.7866 18.4666C12.1732 18.08 12.8132 18.08 13.1999 18.4666C13.5866 18.8533 13.5866 19.4933 13.1999 19.88L10.1999 22.88C10.0132 23.0666 9.75991 23.1733 9.49325 23.1733Z" fill="#EE2523"/>
<path d="M19.9998 30.3333H11.9998C4.75984 30.3333 1.6665 27.24 1.6665 20V12C1.6665 4.75996 4.75984 1.66663 11.9998 1.66663H19.9998C27.2398 1.66663 30.3332 4.75996 30.3332 12V20C30.3332 27.24 27.2398 30.3333 19.9998 30.3333ZM11.9998 3.66663C5.85317 3.66663 3.6665 5.85329 3.6665 12V20C3.6665 26.1466 5.85317 28.3333 11.9998 28.3333H19.9998C26.1465 28.3333 28.3332 26.1466 28.3332 20V12C28.3332 5.85329 26.1465 3.66663 19.9998 3.66663H11.9998Z" fill="#EE2523"/>
</g></symbol><symbol id="icon-timer-red" viewBox="0 0 32 32"><g fill="none">
<path d="M16.0002 30.3333C9.0135 30.3333 3.3335 24.6533 3.3335 17.6667C3.3335 10.68 9.0135 5 16.0002 5C22.9868 5 28.6668 10.68 28.6668 17.6667C28.6668 24.6533 22.9868 30.3333 16.0002 30.3333ZM16.0002 7C10.1202 7 5.3335 11.7867 5.3335 17.6667C5.3335 23.5467 10.1202 28.3333 16.0002 28.3333C21.8802 28.3333 26.6668 23.5467 26.6668 17.6667C26.6668 11.7867 21.8802 7 16.0002 7Z" fill="#EE2523"/>
<path d="M16 18.3333C15.4533 18.3333 15 17.88 15 17.3333V10.6666C15 10.12 15.4533 9.66663 16 9.66663C16.5467 9.66663 17 10.12 17 10.6666V17.3333C17 17.88 16.5467 18.3333 16 18.3333Z" fill="#EE2523"/>
<path d="M20 3.66663H12C11.4533 3.66663 11 3.21329 11 2.66663C11 2.11996 11.4533 1.66663 12 1.66663H20C20.5467 1.66663 21 2.11996 21 2.66663C21 3.21329 20.5467 3.66663 20 3.66663Z" fill="#EE2523"/>
</g></symbol><symbol id="icon-timer" viewBox="0 0 24 24"><g fill="none">
<path d="M1.25 15.24L1.25 8.76001C1.25 6.87001 2.04 5.49001 3.4 4.96001C4.82 4.41001 6.58 4.92 7.77 6.24001L12 10.88L16.23 6.24001C17.42 4.92001 19.18 4.41001 20.6 4.96001C21.97 5.49001 22.75 6.87001 22.75 8.76001L22.75 15.24C22.75 17.13 21.96 18.51 20.6 19.04C19.18 19.59 17.42 19.08 16.23 17.76L12 13.12L7.77 17.77C6.58 19.08 4.82 19.6 3.4 19.05C2.04 18.51 1.25 17.13 1.25 15.24ZM10.99 12L6.67 7.25001C5.9 6.41001 4.78 6.04001 3.95 6.36001C3.18 6.66001 2.75 7.51001 2.75 8.76001L2.75 15.24C2.75 16.49 3.17 17.34 3.95 17.64C4.78 17.96 5.9 17.6 6.67 16.75L10.99 12ZM21.25 8.76001C21.25 7.51001 20.83 6.66001 20.05 6.36001C19.22 6.04001 18.1 6.40001 17.33 7.25001L13.01 12L17.33 16.75C18.1 17.59 19.22 17.96 20.05 17.64C20.82 17.34 21.25 16.49 21.25 15.24L21.25 8.76001Z" fill="#292D32"/>
</g></symbol><symbol id="icon-user" viewBox="0 0 23 22"><g fill="none">
<path d="M5.48901 5.86761C5.48901 8.79838 8.26481 11.0499 11.4994 11.0499C14.734 11.0499 17.5098 8.79838 17.5098 5.86761C17.5098 2.93684 14.734 0.685303 11.4994 0.685303C8.26481 0.685303 5.48901 2.93684 5.48901 5.86761ZM7.92651 5.86761C7.92651 4.31151 9.45363 2.90677 11.4994 2.90677C13.5452 2.90677 15.0723 4.31151 15.0723 5.86761C15.0723 7.42372 13.5452 8.82845 11.4994 8.82845C9.45363 8.82845 7.92651 7.42372 7.92651 5.86761Z" fill="#EE2523" stroke="#EE2523"/>
<path d="M18.513 20.1862C18.513 20.8694 19.1421 21.2969 19.7317 21.2969C20.3214 21.2969 20.9505 20.8694 20.9505 20.1862C20.9505 18.2407 19.8267 16.5261 18.114 15.3182C16.3997 14.1091 14.0586 13.3752 11.4997 13.3752C8.94071 13.3752 6.59966 14.1091 4.88529 15.3182C3.1726 16.5261 2.04883 18.2407 2.04883 20.1862C2.04883 20.8694 2.67796 21.2969 3.26758 21.2969C3.85719 21.2969 4.48633 20.8694 4.48633 20.1862C4.48633 18.9975 5.19988 17.8623 6.47078 17.002C7.73864 16.1437 9.51647 15.5967 11.4997 15.5967C13.4828 15.5967 15.2607 16.1437 16.5285 17.002C17.7994 17.8623 18.513 18.9975 18.513 20.1862Z" fill="#EE2523" stroke="#EE2523"/>
</g></symbol><symbol id="icon-wallet" viewBox="0 0 24 24"><g fill="none">
<path d="M13 11.9H7C6.59 11.9 6.25 11.56 6.25 11.15C6.25 10.74 6.59 10.4 7 10.4H13C13.41 10.4 13.75 10.74 13.75 11.15C13.75 11.56 13.41 11.9 13 11.9Z" fill="white"/>
<path d="M2 11.9001C1.59 11.9001 1.25 11.5601 1.25 11.1501V6.53009C1.25 4.08009 3.24 2.09009 5.69 2.09009H11.31C13.88 2.09009 15.75 3.80009 15.75 6.15009C15.75 6.56009 15.41 6.90009 15 6.90009C14.59 6.90009 14.25 6.56009 14.25 6.15009C14.25 4.39009 12.72 3.59009 11.31 3.59009H5.69C4.07 3.59009 2.75 4.91009 2.75 6.53009V11.1501C2.75 11.5701 2.41 11.9001 2 11.9001Z" fill="white"/>
<path d="M16 21.9H6C3.38 21.9 1.25 19.77 1.25 17.15V10.15C1.25 7.53002 3.38 5.40002 6 5.40002H16C18.62 5.40002 20.75 7.53002 20.75 10.15V11.6C20.75 12.01 20.41 12.35 20 12.35H18.92C18.57 12.35 18.25 12.48 18.02 12.72L18.01 12.73C17.68 13.06 17.55 13.52 17.67 13.97C17.82 14.53 18.41 14.94 19.07 14.94H20C20.41 14.94 20.75 15.28 20.75 15.69V17.14C20.75 19.77 18.62 21.9 16 21.9ZM6 6.90002C4.21 6.90002 2.75 8.36002 2.75 10.15V17.15C2.75 18.94 4.21 20.4 6 20.4H16C17.79 20.4 19.25 18.94 19.25 17.15V16.45H19.07C17.72 16.45 16.55 15.6 16.22 14.37C15.96 13.4 16.24 12.37 16.95 11.67C17.47 11.14 18.17 10.85 18.92 10.85H19.25V10.15C19.25 8.36002 17.79 6.90002 16 6.90002H6Z" fill="white"/>
<path d="M20.9699 16.45H19.0399C17.5299 16.45 16.2499 15.33 16.1299 13.89C16.0499 13.06 16.3499 12.25 16.9499 11.66C17.4499 11.14 18.1599 10.85 18.9099 10.85H20.9599C21.9399 10.85 22.7399 11.64 22.7399 12.62V14.68C22.7499 15.66 21.9499 16.45 20.9699 16.45ZM18.9199 12.35C18.5699 12.35 18.2499 12.48 18.0199 12.72C17.7299 13 17.5899 13.38 17.6299 13.76C17.6799 14.42 18.3199 14.95 19.0399 14.95H20.9699C21.1199 14.95 21.2499 14.83 21.2499 14.68V12.62C21.2499 12.47 21.1199 12.35 20.9699 12.35H18.9199Z" fill="white"/>
</g></symbol><symbol id="logo" viewBox="0 0 199 43"><g fill="none">
<path fill-rule="evenodd" clip-rule="evenodd" d="M56.2435 14.007C49.5941 14.007 47.9629 20.0413 47.9629 23.2202C47.9629 26.4194 49.7575 28.9927 53.9593 28.9927C58.7119 28.9927 60.6492 25.7513 61.2204 23.5863H57.8761C56.8962 26.1376 55.1417 26.2382 54.3059 26.2382C53.6939 26.2382 51.5934 26.0773 51.5934 22.7153C51.5934 20.5264 52.7354 16.7616 56.1002 16.7616C57.6511 16.7616 58.6914 17.3876 58.6914 18.8061C58.6914 18.9487 58.6914 19.0897 58.67 19.2305H61.9959C62.0565 18.8884 62.0565 18.5425 62.0565 18.1982C62.0565 14.5326 58.5282 14.007 56.2435 14.007Z" fill="#EE2523"/>
<path fill-rule="evenodd" clip-rule="evenodd" d="M74.2337 25.8335H66.1368L66.7886 22.7333H73.8054L74.3556 19.9808H67.3792L67.9721 17.1658H75.9261L76.4976 14.4115H65.1976L62.1787 28.5859H73.6624L74.2337 25.8335Z" fill="#EE2523"/>
<path fill-rule="evenodd" clip-rule="evenodd" d="M80.1689 22.6729H83.2501C84.4117 22.6729 85.1866 22.9365 85.1866 24.1517C85.1866 25.4694 83.8407 25.8335 82.9636 25.8335H79.496L80.1689 22.6729ZM81.3325 17.1658H84.3505C85.2677 17.1658 85.8592 17.6308 85.8592 18.361C85.8592 19.6368 84.5136 19.9205 83.8407 19.9205L80.7404 19.9204L81.3325 17.1658ZM82.3514 28.5859C86.7158 28.5859 88.7565 26.6828 88.7565 24.0711C88.7565 22.1878 87.5727 21.4193 86.39 21.1356L86.4094 21.0934C88.8382 20.5683 89.5313 18.6631 89.5313 17.4093C89.5313 15.9709 88.8575 14.4115 85.737 14.4115H78.5576L75.5391 28.5859H82.3514Z" fill="#EE2523"/>
<path fill-rule="evenodd" clip-rule="evenodd" d="M102.442 25.8335H94.3444L94.9989 22.7333H102.014L102.564 19.9808H95.5886L96.1803 17.1658H104.134L104.706 14.4115H93.4078L90.3887 28.5859H101.87L102.442 25.8335Z" fill="#EE2523"/>
<path fill-rule="evenodd" clip-rule="evenodd" d="M109.539 17.1658H112.192C113.497 17.1658 114.291 17.5705 114.291 18.8882C114.291 19.8801 113.701 20.9728 111.375 20.9728L108.723 20.9727L109.539 17.1658ZM107.113 28.5859L108.153 23.7271H111.354C117.25 23.7271 117.862 19.7373 117.862 18.2806C117.862 14.8161 115.067 14.4115 113.436 14.4115H106.767L103.747 28.5859H107.113Z" fill="#EE2523"/>
<path fill-rule="evenodd" clip-rule="evenodd" d="M125.123 21.9043H119.248L118.719 24.4355H124.592L125.123 21.9043Z" fill="#EE2523"/>
<path fill-rule="evenodd" clip-rule="evenodd" d="M141.583 19.2305C141.643 18.8884 141.643 18.5425 141.643 18.1982C141.643 14.5326 138.116 14.007 135.832 14.007C129.182 14.007 127.551 20.0413 127.551 23.2202C127.551 26.4194 129.344 28.9927 133.548 28.9927C138.298 28.9927 140.237 25.7513 140.809 23.5863H137.463C136.484 26.1376 134.731 26.2382 133.894 26.2382C133.28 26.2382 131.181 26.0773 131.181 22.7153C131.181 20.5264 132.323 16.7616 135.688 16.7616C137.238 16.7616 138.279 17.3876 138.279 18.8061C138.279 18.9487 138.279 19.0897 138.259 19.2305H141.583Z" fill="#EE2523"/>
<path fill-rule="evenodd" clip-rule="evenodd" d="M150.068 19.9204H146.967L147.558 17.1658H150.578C151.496 17.1658 152.086 17.6308 152.086 18.361C152.086 19.6368 150.74 19.9205 150.068 19.9204ZM149.19 25.8335H145.723L146.396 22.6729H149.476C150.639 22.6729 151.413 22.9365 151.413 24.1517C151.413 25.4694 150.067 25.8335 149.19 25.8335ZM151.964 14.4115H144.784L141.767 28.5859H148.578C152.943 28.5859 154.984 26.6828 154.984 24.0711C154.984 22.1878 153.8 21.4193 152.619 21.1356L152.637 21.0934C155.065 20.5683 155.758 18.6631 155.758 17.4093C155.758 15.9709 155.085 14.4115 151.964 14.4115Z" fill="#EE2523"/>
<path fill-rule="evenodd" clip-rule="evenodd" d="M164.203 17.1658H167.18L166.385 20.9325H163.509C162.918 20.9325 161.429 20.7914 161.429 19.3731C161.429 17.4698 163.407 17.1658 164.203 17.1658ZM160.042 28.5859L163.795 23.6867H165.794L164.754 28.5859H168.118L171.137 14.4115H163.937C160.675 14.4115 157.799 16.0916 157.799 19.4133C157.799 22.0653 159.185 23.1195 160.632 23.363L156.125 28.5859H160.042Z" fill="#EE2523"/>
<path fill-rule="evenodd" clip-rule="evenodd" d="M177.276 28.9927C183.621 28.9927 184.395 25.508 184.395 24.1519C184.395 22.1076 182.804 21.4798 181.886 21.2967V21.2565C183.743 20.8721 185.047 19.5161 185.047 17.5706C185.048 15.7277 183.783 14.007 179.766 14.007C174.952 14.007 173.075 16.3168 172.483 19.009H175.89C176.074 18.1377 176.704 16.7616 179.011 16.7616C180.093 16.7616 181.416 17.0234 181.416 18.2204C181.416 19.009 180.989 20.0413 178.849 20.0413H177.177L176.625 22.653H178.644C179.46 22.653 180.766 22.7334 180.766 24.0712C180.766 25.1641 179.868 26.2382 177.543 26.2382C176.237 26.2382 174.544 25.9949 174.544 24.1114C174.544 23.9689 174.564 23.8481 174.605 23.7071H171.32C171.28 23.9305 171.259 24.1738 171.241 24.3953C171.199 24.8014 171.178 25.2264 171.241 25.6306C171.586 28.3447 174.258 28.9927 177.276 28.9927Z" fill="#EE2523"/>
<path fill-rule="evenodd" clip-rule="evenodd" d="M193.042 25.8335H189.841L190.596 22.3087H193.33C194.696 22.3087 195.43 22.7955 195.43 24.0107C195.43 25.5702 193.573 25.8335 193.042 25.8335ZM194.125 19.5544H191.168L192.268 14.4115H188.902L185.885 28.5859H192.657C197.061 28.5859 199 26.1759 199 23.6467C199.001 19.6368 195.43 19.5544 194.125 19.5544Z" fill="#EE2523"/>
<path fill-rule="evenodd" clip-rule="evenodd" d="M1.45094 26.66C1.37407 26.8245 1.45287 26.7184 1.62112 26.4553C1.54345 26.5172 1.48333 26.5868 1.45094 26.66Z" fill="#EE2523"/>
<path fill-rule="evenodd" clip-rule="evenodd" d="M18.4257 28.7721C18.3151 28.7354 16.9371 27.407 16.5943 27.0775C16.2488 26.7445 15.7742 26.7222 15.7742 26.7222C15.7742 26.7222 15.88 26.4186 16.1509 26.3196C16.421 26.221 16.3482 25.7927 16.3482 25.7927C16.8911 24.2187 18.3704 23.684 18.0653 23.5816C17.799 23.4902 16.6761 22.3794 16.5058 22.2144C16.7031 22.4012 17.0635 22.1634 17.0635 22.1634C16.6349 21.7973 15.9168 19.7367 16.1906 19.9488C16.4625 20.1612 16.7325 20.0659 16.643 19.8462C16.5538 19.6266 16.5693 19.1033 16.5693 19.1033C16.5693 19.1033 17.4719 20.2527 17.5732 20.2342C17.4938 20.249 16.9122 20.348 16.9122 20.348C16.9122 20.348 17.6938 21.4095 18.2883 21.5192C18.2883 21.5192 17.5308 21.5157 17.3557 21.413C17.2358 21.3471 17.3925 21.6912 17.4073 21.7242C17.7436 22.5294 18.3298 23.1352 19.1464 23.4756C18.6541 23.5086 17.245 26.1365 17.245 26.1365C16.9989 26.576 19.494 28.5891 19.494 28.5891C19.494 28.5891 18.5364 28.8015 18.4257 28.7721ZM14.6671 27.1396C14.1001 27.1835 11.3812 29.0428 11.3812 29.0428C11.3812 29.0428 10.8788 28.2415 10.6844 28.3294C10.489 28.4133 8.83722 29.4715 8.83722 29.4715L8.60505 28.1058C8.38946 26.5322 9.40975 23.9184 9.40975 23.9184C9.21616 24.6285 10.3233 26.2064 10.3233 26.2064C10.2079 24.3027 13.713 18.4664 13.713 18.4664C13.713 18.4664 12.4468 21.1751 13.0302 23.362L14.9389 21.8192C14.2422 22.4855 15.6486 25.9865 15.6486 25.9865C15.6486 25.9865 15.2358 27.0957 14.6671 27.1396ZM14.2643 9.93394C14.6642 9.68161 15.1398 9.51674 15.5954 9.39602C15.5954 9.39602 13.5821 10.1757 13.7087 11.6873C13.8365 13.1993 14.2605 14.6084 14.2605 14.6084C15.2469 14.2608 16.1852 14.6999 16.1852 14.6999C16.1852 14.6999 14.7094 14.6377 14.0587 15.5785C13.8339 14.9451 13.6236 14.3081 13.4402 13.6641C13.0495 12.2912 12.8891 10.7907 14.2643 9.93394ZM17.6919 11.4095C17.3187 11.3653 17.1196 11.7389 17.1196 11.7389C17.1196 11.7389 17.3732 11.5411 17.9933 12.112C18.6147 12.6829 17.456 13.7079 17.456 13.7079C17.456 13.7079 17.2551 11.9216 15.8321 12.6318C15.8321 12.6318 16.6302 12.0753 16.493 11.7937C16.104 10.9883 14.9868 12.1484 14.9868 12.1484C15.9003 10.022 18.0642 11.4496 17.6919 11.4095ZM20.033 11.4823C19.3814 11.047 19.0617 12.0865 19.0617 12.0865C19.0617 12.0865 18.9761 10.6992 18.2135 10.022C18.0534 9.87946 20.033 11.4823 20.033 11.4823ZM26.1143 17.4965C23.1381 14.4621 18.9639 14.5388 18.9639 14.5388C20.0653 13.9385 20.1095 12.6573 20.1095 12.6573C23.4203 13.6457 26.1143 17.4966 26.1143 17.4965ZM27.3881 20.4065L29.2049 21.2448L26.5079 21.6947C26.5079 21.6947 26.6702 21.4095 26.3273 21.3873C25.9826 21.3691 25.3071 20.9372 25.2721 20.7358C25.238 20.5308 25.649 18.9568 26.4131 18.829C26.4131 18.8288 26.2452 19.8428 27.3881 20.4065ZM31.8674 20.9699C32.434 21.3905 32.5871 21.7369 32.5417 22.0608C32.4949 22.3942 32.2555 22.8599 31.9774 23.2487L30.8031 23.3298C30.8482 23.1594 30.9403 22.9668 31.1055 22.7567C31.8775 21.7761 31.6851 21.2961 31.3492 21.0066C31.115 20.8051 30.2356 20.465 30.2356 20.465C30.2356 20.465 31.5245 20.716 31.8674 20.9699ZM25.5226 18.8215L24.9465 19.2826L24.7329 20.1759C24.7329 20.1759 23.4809 20.0476 23.2626 19.9965C23.0432 19.9416 23.8379 18.6128 25.5226 18.8215ZM29.604 26.3455C28.871 26.8066 26.415 26.5172 25.7143 26.2464C25.0148 25.9721 23.1907 26.4808 23.1907 26.4808C23.1907 26.4808 24.3014 25.7815 24.8102 25.6974C25.3189 25.6098 26.544 25.7451 27.8905 25.9575C29.2355 26.1733 30.2824 25.7122 30.2824 25.7122C30.2824 25.7122 30.3358 25.8876 29.604 26.3455ZM19.7474 29.6177C18.8155 29.6727 19.5079 28.8234 19.5079 28.8234C20.6809 29.563 22.0866 29.2187 22.0866 29.2187C21.8296 28.3294 22.5087 28.0072 22.5087 28.0072C24.4564 27.1579 25.7222 27.4734 25.7222 27.4734C28.2854 27.7663 30.1726 26.3016 30.1726 26.3016C31.1387 25.8293 31.9009 24.2571 32.4224 23.534C32.6904 23.1626 34.0137 21.3905 32.1287 20.6354C31.2456 20.2816 27.745 18.8105 27.745 18.8105L27.3835 16.691L24.1522 13.7005L21.2653 12.1085C21.2653 12.1085 22.4977 10.1315 21.716 9.84992C20.9355 9.56433 19.8993 9.0118 18.8994 9.28276C17.8976 9.55717 17.3195 8.61295 16.3858 8.66771C15.4522 8.71875 14.8606 8.92406 14.8606 8.92406L9.13868 7.28766L6.40517 6.60322C6.40517 6.60322 6.25468 7.56207 6.81718 8.40421C6.81718 8.40421 3.58099 9.67444 2.95521 10.9226C2.33124 12.1708 3.14126 10.7873 4.346 11.1055C4.346 11.1055 1.08126 14.6671 1.37255 15.7614L1.70332 18.9277C1.70332 18.9277 -1.04675 24.8959 0.44183 23.8124C1.93301 22.7324 4.13853 23.3987 3.73218 23.4684C3.427 23.5195 2.12366 25.6717 1.62051 26.4554C2.26118 25.9427 4.2299 25.7744 4.2299 25.7744C3.28317 26.9751 3.12364 30.9502 3.54512 29.7384C3.96703 28.5231 4.83064 28.6878 4.83064 28.6878C4.32388 29.3979 5.3701 33.6914 5.3701 33.6914C5.3701 33.6914 7.36455 30.6536 6.97533 31.444C6.58839 32.2386 7.30454 33.988 7.37099 33.1463C7.43733 32.3044 9.41258 30.3862 9.41258 30.3862C9.41258 30.3862 9.38843 31.0158 9.37275 31.3931C9.41258 30.3862 11.0088 29.314 11.0088 29.314C11.0099 29.9397 11.3672 30.1888 11.3672 30.1888C11.5674 28.9074 14.6358 27.8753 14.6358 27.8753C14.6734 27.9998 14.7565 28.1316 14.8541 28.2633L14.844 28.2557C13.6116 29.9397 13.0809 31.0526 13.0809 31.0526C13.0809 31.0526 14.1425 30.291 14.4964 30.1741C14.8506 30.057 15.2632 29.9982 15.2632 29.9982C15.2632 29.9982 13.2577 31.8141 12.5498 34.0395C11.842 36.2648 11.4881 37.7289 11.4881 37.7289C11.4881 37.7289 13.8477 34.9763 14.3784 34.5666C14.9094 34.1564 15.2632 33.9222 15.2632 33.9222C15.2632 33.9222 14.2016 35.5037 14.0246 36.3821C13.8477 37.2607 13.7296 38.8419 13.7296 38.8419L14.4375 38.1975C14.4375 38.1975 14.6144 40.3645 15.2632 41.1844C15.9123 42.0045 17.2099 43 17.2099 43C17.2099 43 16.1482 41.4187 16.3253 39.9545C16.5021 38.4904 17.2099 37.4946 17.2099 37.4946L15.8531 38.4904C15.8531 38.4904 15.6856 36.0308 16.7427 34.6835C17.7997 33.3365 17.7997 33.3365 17.7997 33.3365L16.207 33.6914C16.207 33.6914 16.5021 32.1065 17.4461 31.3454C18.3896 30.5839 18.8027 30.5255 18.8027 30.5255C18.8027 30.5255 17.7997 30.2326 17.2099 30.4084C16.6201 30.5839 15.8531 30.9941 15.8531 30.9941L16.2321 29.4493C16.3056 29.4747 16.3335 29.4638 16.2515 29.3687C15.8597 28.915 16.4191 28.5084 16.4191 28.5084C17.5253 30.0896 20.6809 29.563 19.7474 29.6177Z" fill="#EE2523"/>
<path fill-rule="evenodd" clip-rule="evenodd" d="M18.5513 0C11.8847 0 5.94069 3.04914 2.04004 7.81497C5.74621 4.14332 10.8588 1.8741 16.506 1.8741C27.8188 1.8741 36.9904 10.9811 36.9904 22.2144C36.9904 32.0372 29.9736 40.2361 20.6453 42.136C31.4098 41.093 39.8229 32.0848 39.8229 21.1202C39.8229 9.45825 30.2991 0 18.5513 0Z" fill="#EE2523"/>
</g></symbol></svg>