<svg xmlns="http://www.w3.org/2000/svg" xmlns:xlink="http://www.w3.org/1999/xlink"><symbol id="icon-chevron-right" viewBox="0 0 24 24"><g fill="none">
<path d="M10.7399 16.2321C10.5499 16.2321 10.3599 16.1623 10.2099 16.0128C9.91993 15.7236 9.91993 15.245 10.2099 14.9559L13.2099 11.9647L10.2099 8.97346C9.91993 8.68431 9.91993 8.20572 10.2099 7.91657C10.4999 7.62742 10.9799 7.62742 11.2699 7.91657L14.7999 11.4362C15.0899 11.7254 15.0899 12.204 14.7999 12.4931L11.2699 16.0128C11.1199 16.1623 10.9299 16.2321 10.7399 16.2321Z" fill="#EE2523"/>
</g></symbol><symbol id="icon-login" viewBox="0 0 20 12"><g fill="none">
<path d="M13 1H17C17.5304 1 18.0391 1.12218 18.4142 1.33965C18.7893 1.55713 19 1.85209 19 2.15965V10.2772C19 10.5848 18.7893 10.8797 18.4142 11.0972C18.0391 11.3147 17.5304 11.4368 17 11.4368H13M8 9.11755L13 6.21842M13 6.21842L8 3.3193M13 6.21842H1" stroke="#EE2523" stroke-linecap="round" stroke-linejoin="round"/>
</g></symbol><symbol id="icon-user" viewBox="0 0 23 22"><g fill="none">
<path d="M5.48901 5.86761C5.48901 8.79838 8.26481 11.0499 11.4994 11.0499C14.734 11.0499 17.5098 8.79838 17.5098 5.86761C17.5098 2.93684 14.734 0.685303 11.4994 0.685303C8.26481 0.685303 5.48901 2.93684 5.48901 5.86761ZM7.92651 5.86761C7.92651 4.31151 9.45363 2.90677 11.4994 2.90677C13.5452 2.90677 15.0723 4.31151 15.0723 5.86761C15.0723 7.42372 13.5452 8.82845 11.4994 8.82845C9.45363 8.82845 7.92651 7.42372 7.92651 5.86761Z" fill="#EE2523" stroke="#EE2523"/>
<path d="M18.513 20.1862C18.513 20.8694 19.1421 21.2969 19.7317 21.2969C20.3214 21.2969 20.9505 20.8694 20.9505 20.1862C20.9505 18.2407 19.8267 16.5261 18.114 15.3182C16.3997 14.1091 14.0586 13.3752 11.4997 13.3752C8.94071 13.3752 6.59966 14.1091 4.88529 15.3182C3.1726 16.5261 2.04883 18.2407 2.04883 20.1862C2.04883 20.8694 2.67796 21.2969 3.26758 21.2969C3.85719 21.2969 4.48633 20.8694 4.48633 20.1862C4.48633 18.9975 5.19988 17.8623 6.47078 17.002C7.73864 16.1437 9.51647 15.5967 11.4997 15.5967C13.4828 15.5967 15.2607 16.1437 16.5285 17.002C17.7994 17.8623 18.513 18.9975 18.513 20.1862Z" fill="#EE2523" stroke="#EE2523"/>
</g></symbol><symbol id="logo" viewBox="0 0 199 43"><g fill="none">
<path fill-rule="evenodd" clip-rule="evenodd" d="M56.2435 14.007C49.5941 14.007 47.9629 20.0413 47.9629 23.2202C47.9629 26.4194 49.7575 28.9927 53.9593 28.9927C58.7119 28.9927 60.6492 25.7513 61.2204 23.5863H57.8761C56.8962 26.1376 55.1417 26.2382 54.3059 26.2382C53.6939 26.2382 51.5934 26.0773 51.5934 22.7153C51.5934 20.5264 52.7354 16.7616 56.1002 16.7616C57.6511 16.7616 58.6914 17.3876 58.6914 18.8061C58.6914 18.9487 58.6914 19.0897 58.67 19.2305H61.9959C62.0565 18.8884 62.0565 18.5425 62.0565 18.1982C62.0565 14.5326 58.5282 14.007 56.2435 14.007Z" fill="#EE2523"/>
<path fill-rule="evenodd" clip-rule="evenodd" d="M74.2337 25.8335H66.1368L66.7886 22.7333H73.8054L74.3556 19.9808H67.3792L67.9721 17.1658H75.9261L76.4976 14.4115H65.1976L62.1787 28.5859H73.6624L74.2337 25.8335Z" fill="#EE2523"/>
<path fill-rule="evenodd" clip-rule="evenodd" d="M80.1689 22.6729H83.2501C84.4117 22.6729 85.1866 22.9365 85.1866 24.1517C85.1866 25.4694 83.8407 25.8335 82.9636 25.8335H79.496L80.1689 22.6729ZM81.3325 17.1658H84.3505C85.2677 17.1658 85.8592 17.6308 85.8592 18.361C85.8592 19.6368 84.5136 19.9205 83.8407 19.9205L80.7404 19.9204L81.3325 17.1658ZM82.3514 28.5859C86.7158 28.5859 88.7565 26.6828 88.7565 24.0711C88.7565 22.1878 87.5727 21.4193 86.39 21.1356L86.4094 21.0934C88.8382 20.5683 89.5313 18.6631 89.5313 17.4093C89.5313 15.9709 88.8575 14.4115 85.737 14.4115H78.5576L75.5391 28.5859H82.3514Z" fill="#EE2523"/>
<path fill-rule="evenodd" clip-rule="evenodd" d="M102.442 25.8335H94.3444L94.9989 22.7333H102.014L102.564 19.9808H95.5886L96.1803 17.1658H104.134L104.706 14.4115H93.4078L90.3887 28.5859H101.87L102.442 25.8335Z" fill="#EE2523"/>
<path fill-rule="evenodd" clip-rule="evenodd" d="M109.539 17.1658H112.192C113.497 17.1658 114.291 17.5705 114.291 18.8882C114.291 19.8801 113.701 20.9728 111.375 20.9728L108.723 20.9727L109.539 17.1658ZM107.113 28.5859L108.153 23.7271H111.354C117.25 23.7271 117.862 19.7373 117.862 18.2806C117.862 14.8161 115.067 14.4115 113.436 14.4115H106.767L103.747 28.5859H107.113Z" fill="#EE2523"/>
<path fill-rule="evenodd" clip-rule="evenodd" d="M125.123 21.9043H119.248L118.719 24.4355H124.592L125.123 21.9043Z" fill="#EE2523"/>
<path fill-rule="evenodd" clip-rule="evenodd" d="M141.583 19.2305C141.643 18.8884 141.643 18.5425 141.643 18.1982C141.643 14.5326 138.116 14.007 135.832 14.007C129.182 14.007 127.551 20.0413 127.551 23.2202C127.551 26.4194 129.344 28.9927 133.548 28.9927C138.298 28.9927 140.237 25.7513 140.809 23.5863H137.463C136.484 26.1376 134.731 26.2382 133.894 26.2382C133.28 26.2382 131.181 26.0773 131.181 22.7153C131.181 20.5264 132.323 16.7616 135.688 16.7616C137.238 16.7616 138.279 17.3876 138.279 18.8061C138.279 18.9487 138.279 19.0897 138.259 19.2305H141.583Z" fill="#EE2523"/>
<path fill-rule="evenodd" clip-rule="evenodd" d="M150.068 19.9204H146.967L147.558 17.1658H150.578C151.496 17.1658 152.086 17.6308 152.086 18.361C152.086 19.6368 150.74 19.9205 150.068 19.9204ZM149.19 25.8335H145.723L146.396 22.6729H149.476C150.639 22.6729 151.413 22.9365 151.413 24.1517C151.413 25.4694 150.067 25.8335 149.19 25.8335ZM151.964 14.4115H144.784L141.767 28.5859H148.578C152.943 28.5859 154.984 26.6828 154.984 24.0711C154.984 22.1878 153.8 21.4193 152.619 21.1356L152.637 21.0934C155.065 20.5683 155.758 18.6631 155.758 17.4093C155.758 15.9709 155.085 14.4115 151.964 14.4115Z" fill="#EE2523"/>
<path fill-rule="evenodd" clip-rule="evenodd" d="M164.203 17.1658H167.18L166.385 20.9325H163.509C162.918 20.9325 161.429 20.7914 161.429 19.3731C161.429 17.4698 163.407 17.1658 164.203 17.1658ZM160.042 28.5859L163.795 23.6867H165.794L164.754 28.5859H168.118L171.137 14.4115H163.937C160.675 14.4115 157.799 16.0916 157.799 19.4133C157.799 22.0653 159.185 23.1195 160.632 23.363L156.125 28.5859H160.042Z" fill="#EE2523"/>
<path fill-rule="evenodd" clip-rule="evenodd" d="M177.276 28.9927C183.621 28.9927 184.395 25.508 184.395 24.1519C184.395 22.1076 182.804 21.4798 181.886 21.2967V21.2565C183.743 20.8721 185.047 19.5161 185.047 17.5706C185.048 15.7277 183.783 14.007 179.766 14.007C174.952 14.007 173.075 16.3168 172.483 19.009H175.89C176.074 18.1377 176.704 16.7616 179.011 16.7616C180.093 16.7616 181.416 17.0234 181.416 18.2204C181.416 19.009 180.989 20.0413 178.849 20.0413H177.177L176.625 22.653H178.644C179.46 22.653 180.766 22.7334 180.766 24.0712C180.766 25.1641 179.868 26.2382 177.543 26.2382C176.237 26.2382 174.544 25.9949 174.544 24.1114C174.544 23.9689 174.564 23.8481 174.605 23.7071H171.32C171.28 23.9305 171.259 24.1738 171.241 24.3953C171.199 24.8014 171.178 25.2264 171.241 25.6306C171.586 28.3447 174.258 28.9927 177.276 28.9927Z" fill="#EE2523"/>
<path fill-rule="evenodd" clip-rule="evenodd" d="M193.042 25.8335H189.841L190.596 22.3087H193.33C194.696 22.3087 195.43 22.7955 195.43 24.0107C195.43 25.5702 193.573 25.8335 193.042 25.8335ZM194.125 19.5544H191.168L192.268 14.4115H188.902L185.885 28.5859H192.657C197.061 28.5859 199 26.1759 199 23.6467C199.001 19.6368 195.43 19.5544 194.125 19.5544Z" fill="#EE2523"/>
<path fill-rule="evenodd" clip-rule="evenodd" d="M1.45094 26.66C1.37407 26.8245 1.45287 26.7184 1.62112 26.4553C1.54345 26.5172 1.48333 26.5868 1.45094 26.66Z" fill="#EE2523"/>
<path fill-rule="evenodd" clip-rule="evenodd" d="M18.4257 28.7721C18.3151 28.7354 16.9371 27.407 16.5943 27.0775C16.2488 26.7445 15.7742 26.7222 15.7742 26.7222C15.7742 26.7222 15.88 26.4186 16.1509 26.3196C16.421 26.221 16.3482 25.7927 16.3482 25.7927C16.8911 24.2187 18.3704 23.684 18.0653 23.5816C17.799 23.4902 16.6761 22.3794 16.5058 22.2144C16.7031 22.4012 17.0635 22.1634 17.0635 22.1634C16.6349 21.7973 15.9168 19.7367 16.1906 19.9488C16.4625 20.1612 16.7325 20.0659 16.643 19.8462C16.5538 19.6266 16.5693 19.1033 16.5693 19.1033C16.5693 19.1033 17.4719 20.2527 17.5732 20.2342C17.4938 20.249 16.9122 20.348 16.9122 20.348C16.9122 20.348 17.6938 21.4095 18.2883 21.5192C18.2883 21.5192 17.5308 21.5157 17.3557 21.413C17.2358 21.3471 17.3925 21.6912 17.4073 21.7242C17.7436 22.5294 18.3298 23.1352 19.1464 23.4756C18.6541 23.5086 17.245 26.1365 17.245 26.1365C16.9989 26.576 19.494 28.5891 19.494 28.5891C19.494 28.5891 18.5364 28.8015 18.4257 28.7721ZM14.6671 27.1396C14.1001 27.1835 11.3812 29.0428 11.3812 29.0428C11.3812 29.0428 10.8788 28.2415 10.6844 28.3294C10.489 28.4133 8.83722 29.4715 8.83722 29.4715L8.60505 28.1058C8.38946 26.5322 9.40975 23.9184 9.40975 23.9184C9.21616 24.6285 10.3233 26.2064 10.3233 26.2064C10.2079 24.3027 13.713 18.4664 13.713 18.4664C13.713 18.4664 12.4468 21.1751 13.0302 23.362L14.9389 21.8192C14.2422 22.4855 15.6486 25.9865 15.6486 25.9865C15.6486 25.9865 15.2358 27.0957 14.6671 27.1396ZM14.2643 9.93394C14.6642 9.68161 15.1398 9.51674 15.5954 9.39602C15.5954 9.39602 13.5821 10.1757 13.7087 11.6873C13.8365 13.1993 14.2605 14.6084 14.2605 14.6084C15.2469 14.2608 16.1852 14.6999 16.1852 14.6999C16.1852 14.6999 14.7094 14.6377 14.0587 15.5785C13.8339 14.9451 13.6236 14.3081 13.4402 13.6641C13.0495 12.2912 12.8891 10.7907 14.2643 9.93394ZM17.6919 11.4095C17.3187 11.3653 17.1196 11.7389 17.1196 11.7389C17.1196 11.7389 17.3732 11.5411 17.9933 12.112C18.6147 12.6829 17.456 13.7079 17.456 13.7079C17.456 13.7079 17.2551 11.9216 15.8321 12.6318C15.8321 12.6318 16.6302 12.0753 16.493 11.7937C16.104 10.9883 14.9868 12.1484 14.9868 12.1484C15.9003 10.022 18.0642 11.4496 17.6919 11.4095ZM20.033 11.4823C19.3814 11.047 19.0617 12.0865 19.0617 12.0865C19.0617 12.0865 18.9761 10.6992 18.2135 10.022C18.0534 9.87946 20.033 11.4823 20.033 11.4823ZM26.1143 17.4965C23.1381 14.4621 18.9639 14.5388 18.9639 14.5388C20.0653 13.9385 20.1095 12.6573 20.1095 12.6573C23.4203 13.6457 26.1143 17.4966 26.1143 17.4965ZM27.3881 20.4065L29.2049 21.2448L26.5079 21.6947C26.5079 21.6947 26.6702 21.4095 26.3273 21.3873C25.9826 21.3691 25.3071 20.9372 25.2721 20.7358C25.238 20.5308 25.649 18.9568 26.4131 18.829C26.4131 18.8288 26.2452 19.8428 27.3881 20.4065ZM31.8674 20.9699C32.434 21.3905 32.5871 21.7369 32.5417 22.0608C32.4949 22.3942 32.2555 22.8599 31.9774 23.2487L30.8031 23.3298C30.8482 23.1594 30.9403 22.9668 31.1055 22.7567C31.8775 21.7761 31.6851 21.2961 31.3492 21.0066C31.115 20.8051 30.2356 20.465 30.2356 20.465C30.2356 20.465 31.5245 20.716 31.8674 20.9699ZM25.5226 18.8215L24.9465 19.2826L24.7329 20.1759C24.7329 20.1759 23.4809 20.0476 23.2626 19.9965C23.0432 19.9416 23.8379 18.6128 25.5226 18.8215ZM29.604 26.3455C28.871 26.8066 26.415 26.5172 25.7143 26.2464C25.0148 25.9721 23.1907 26.4808 23.1907 26.4808C23.1907 26.4808 24.3014 25.7815 24.8102 25.6974C25.3189 25.6098 26.544 25.7451 27.8905 25.9575C29.2355 26.1733 30.2824 25.7122 30.2824 25.7122C30.2824 25.7122 30.3358 25.8876 29.604 26.3455ZM19.7474 29.6177C18.8155 29.6727 19.5079 28.8234 19.5079 28.8234C20.6809 29.563 22.0866 29.2187 22.0866 29.2187C21.8296 28.3294 22.5087 28.0072 22.5087 28.0072C24.4564 27.1579 25.7222 27.4734 25.7222 27.4734C28.2854 27.7663 30.1726 26.3016 30.1726 26.3016C31.1387 25.8293 31.9009 24.2571 32.4224 23.534C32.6904 23.1626 34.0137 21.3905 32.1287 20.6354C31.2456 20.2816 27.745 18.8105 27.745 18.8105L27.3835 16.691L24.1522 13.7005L21.2653 12.1085C21.2653 12.1085 22.4977 10.1315 21.716 9.84992C20.9355 9.56433 19.8993 9.0118 18.8994 9.28276C17.8976 9.55717 17.3195 8.61295 16.3858 8.66771C15.4522 8.71875 14.8606 8.92406 14.8606 8.92406L9.13868 7.28766L6.40517 6.60322C6.40517 6.60322 6.25468 7.56207 6.81718 8.40421C6.81718 8.40421 3.58099 9.67444 2.95521 10.9226C2.33124 12.1708 3.14126 10.7873 4.346 11.1055C4.346 11.1055 1.08126 14.6671 1.37255 15.7614L1.70332 18.9277C1.70332 18.9277 -1.04675 24.8959 0.44183 23.8124C1.93301 22.7324 4.13853 23.3987 3.73218 23.4684C3.427 23.5195 2.12366 25.6717 1.62051 26.4554C2.26118 25.9427 4.2299 25.7744 4.2299 25.7744C3.28317 26.9751 3.12364 30.9502 3.54512 29.7384C3.96703 28.5231 4.83064 28.6878 4.83064 28.6878C4.32388 29.3979 5.3701 33.6914 5.3701 33.6914C5.3701 33.6914 7.36455 30.6536 6.97533 31.444C6.58839 32.2386 7.30454 33.988 7.37099 33.1463C7.43733 32.3044 9.41258 30.3862 9.41258 30.3862C9.41258 30.3862 9.38843 31.0158 9.37275 31.3931C9.41258 30.3862 11.0088 29.314 11.0088 29.314C11.0099 29.9397 11.3672 30.1888 11.3672 30.1888C11.5674 28.9074 14.6358 27.8753 14.6358 27.8753C14.6734 27.9998 14.7565 28.1316 14.8541 28.2633L14.844 28.2557C13.6116 29.9397 13.0809 31.0526 13.0809 31.0526C13.0809 31.0526 14.1425 30.291 14.4964 30.1741C14.8506 30.057 15.2632 29.9982 15.2632 29.9982C15.2632 29.9982 13.2577 31.8141 12.5498 34.0395C11.842 36.2648 11.4881 37.7289 11.4881 37.7289C11.4881 37.7289 13.8477 34.9763 14.3784 34.5666C14.9094 34.1564 15.2632 33.9222 15.2632 33.9222C15.2632 33.9222 14.2016 35.5037 14.0246 36.3821C13.8477 37.2607 13.7296 38.8419 13.7296 38.8419L14.4375 38.1975C14.4375 38.1975 14.6144 40.3645 15.2632 41.1844C15.9123 42.0045 17.2099 43 17.2099 43C17.2099 43 16.1482 41.4187 16.3253 39.9545C16.5021 38.4904 17.2099 37.4946 17.2099 37.4946L15.8531 38.4904C15.8531 38.4904 15.6856 36.0308 16.7427 34.6835C17.7997 33.3365 17.7997 33.3365 17.7997 33.3365L16.207 33.6914C16.207 33.6914 16.5021 32.1065 17.4461 31.3454C18.3896 30.5839 18.8027 30.5255 18.8027 30.5255C18.8027 30.5255 17.7997 30.2326 17.2099 30.4084C16.6201 30.5839 15.8531 30.9941 15.8531 30.9941L16.2321 29.4493C16.3056 29.4747 16.3335 29.4638 16.2515 29.3687C15.8597 28.915 16.4191 28.5084 16.4191 28.5084C17.5253 30.0896 20.6809 29.563 19.7474 29.6177Z" fill="#EE2523"/>
<path fill-rule="evenodd" clip-rule="evenodd" d="M18.5513 0C11.8847 0 5.94069 3.04914 2.04004 7.81497C5.74621 4.14332 10.8588 1.8741 16.506 1.8741C27.8188 1.8741 36.9904 10.9811 36.9904 22.2144C36.9904 32.0372 29.9736 40.2361 20.6453 42.136C31.4098 41.093 39.8229 32.0848 39.8229 21.1202C39.8229 9.45825 30.2991 0 18.5513 0Z" fill="#EE2523"/>
</g></symbol></svg>